{"glyphs":{"0":{"ha":829,"x_min":0,"x_max":0,"o":"m 414 -16 b 60 488 193 -16 60 179 l 60 490 b 414 994 60 800 193 994 b 768 490 635 994 768 800 l 768 488 b 414 -16 768 178 635 -16 m 414 66 b 675 488 578 66 675 229 l 675 490 b 414 912 675 751 578 912 b 153 490 250 912 153 750 l 153 488 b 414 66 153 229 250 66 "},"1":{"ha":585,"x_min":0,"x_max":0,"o":"m 329 880 l 326 880 l 64 703 l 64 798 l 328 979 l 418 979 l 418 0 l 329 0 "},"2":{"ha":781,"x_min":0,"x_max":0,"o":"m 83 65 l 429 429 b 604 719 569 574 604 633 l 604 720 b 397 913 603 831 516 913 b 168 709 266 913 171 824 l 168 704 l 78 704 l 78 710 b 395 994 81 873 218 994 b 696 724 569 994 696 876 l 696 723 b 473 359 696 618 647 538 l 212 86 l 212 83 l 721 83 l 721 0 l 83 0 "},"3":{"ha":802,"x_min":0,"x_max":0,"o":"m 399 -16 b 62 246 203 -16 77 96 l 61 254 l 151 254 l 151 248 b 399 66 165 142 257 66 b 640 264 541 66 640 149 l 640 266 b 389 467 640 394 544 467 l 271 467 l 271 547 l 385 547 b 606 732 515 547 606 624 l 606 733 b 396 913 606 843 525 913 b 172 738 270 913 182 842 l 171 731 l 81 731 l 82 738 b 396 994 97 888 218 994 b 699 744 576 994 699 890 l 699 743 b 490 512 699 622 615 537 l 490 509 b 734 268 636 498 734 407 l 734 267 b 399 -16 734 104 593 -16 "},"4":{"ha":823,"x_min":0,"x_max":0,"o":"m 547 221 l 51 221 l 51 306 l 502 979 l 637 979 l 637 303 l 783 303 l 783 221 l 637 221 l 637 0 l 547 0 m 547 303 l 547 895 l 544 895 l 144 306 l 144 303 "},"5":{"ha":804,"x_min":0,"x_max":0,"o":"m 410 -16 b 83 248 231 -16 98 98 l 82 255 l 173 255 l 174 250 b 412 66 187 146 286 66 b 661 313 557 66 661 170 l 661 314 b 416 559 661 455 557 559 b 222 479 338 559 270 531 b 183 430 208 465 194 449 l 100 430 l 153 979 l 695 979 l 695 896 l 229 896 l 191 528 l 193 528 b 431 640 242 599 331 640 b 754 316 617 640 754 503 l 754 315 b 410 -16 753 122 610 -16 "},"6":{"ha":836,"x_min":0,"x_max":0,"o":"m 427 -16 b 62 462 237 -16 62 122 l 62 463 b 433 994 62 797 201 994 b 747 759 598 994 718 897 l 749 751 l 655 751 l 652 758 b 433 911 626 850 544 911 b 152 485 238 911 156 718 b 151 456 151 475 151 466 l 154 456 b 441 641 191 560 301 641 b 766 317 627 641 766 503 l 766 316 b 427 -16 766 125 622 -16 m 178 322 b 426 67 178 181 283 67 b 672 315 564 67 672 176 l 672 316 b 427 559 672 456 568 559 b 178 323 288 559 178 455 l 178 322 "},"7":{"ha":749,"x_min":0,"x_max":0,"o":"m 602 893 l 602 896 l 56 896 l 56 979 l 694 979 l 694 892 l 246 0 l 148 0 "},"8":{"ha":821,"x_min":0,"x_max":0,"o":"m 411 -16 b 62 265 206 -16 62 101 l 62 267 b 279 517 62 389 151 490 l 279 519 b 97 738 169 551 97 632 l 97 739 b 411 994 97 886 229 994 b 724 739 593 994 724 886 l 724 738 b 542 519 724 632 652 551 l 542 517 b 760 267 671 490 760 389 l 760 265 b 411 -16 760 101 616 -16 m 411 555 b 632 730 541 555 632 628 l 632 732 b 411 913 632 836 542 913 b 189 732 279 913 189 836 l 189 730 b 411 555 189 628 280 555 m 411 66 b 665 271 561 66 665 152 l 665 272 b 411 472 665 389 561 472 b 156 272 260 472 156 389 l 156 271 b 411 66 156 152 261 66 "},"9":{"ha":836,"x_min":0,"x_max":0,"o":"m 409 994 b 774 517 600 994 774 857 l 774 515 b 402 -16 774 182 634 -16 b 88 220 237 -16 118 81 l 87 228 l 180 228 l 183 220 b 404 67 210 128 292 67 b 684 494 597 67 680 260 b 684 522 684 503 684 513 l 682 522 b 395 338 645 418 534 338 b 70 661 208 338 70 476 l 70 663 b 409 994 70 854 214 994 m 409 420 b 659 656 547 420 659 524 l 659 656 b 410 911 659 798 552 911 b 163 664 272 911 163 803 l 163 663 b 409 420 163 523 268 420 "},"":{"ha":0,"x_min":0,"x_max":0,"o":""},"":{"ha":0,"x_min":0,"x_max":0,"o":""}," ":{"ha":284,"x_min":0,"x_max":0,"o":""}," ":{"ha":284,"x_min":0,"x_max":0,"o":""}," ":{"ha":142,"x_min":0,"x_max":0,"o":""}," ":{"ha":694,"x_min":0,"x_max":0,"o":""}," ":{"ha":1389,"x_min":0,"x_max":0,"o":""}," ":{"ha":694,"x_min":0,"x_max":0,"o":""}," ":{"ha":1389,"x_min":0,"x_max":0,"o":""}," ":{"ha":463,"x_min":0,"x_max":0,"o":""}," ":{"ha":347,"x_min":0,"x_max":0,"o":""}," ":{"ha":231,"x_min":0,"x_max":0,"o":""}," ":{"ha":831,"x_min":0,"x_max":0,"o":""}," ":{"ha":291,"x_min":0,"x_max":0,"o":""}," ":{"ha":142,"x_min":0,"x_max":0,"o":""}," ":{"ha":71,"x_min":0,"x_max":0,"o":""},"​":{"ha":0,"x_min":0,"x_max":0,"o":""},"‌":{"ha":0,"x_min":0,"x_max":0,"o":""},"‍":{"ha":0,"x_min":0,"x_max":0,"o":""},"⁠":{"ha":0,"x_min":0,"x_max":0,"o":""}," ":{"ha":309,"x_min":0,"x_max":0,"o":""},"A":{"ha":860,"x_min":0,"x_max":0,"o":"m 385 979 l 476 979 l 844 0 l 747 0 l 637 300 l 223 300 l 114 0 l 16 0 m 252 380 l 608 380 l 431 865 l 429 865 "},"À":{"ha":860,"x_min":0,"x_max":0,"o":"m 275 1249 l 368 1249 l 478 1055 l 408 1055 m 385 979 l 476 979 l 844 0 l 747 0 l 637 300 l 223 300 l 114 0 l 16 0 m 252 380 l 608 380 l 431 865 l 429 865 "},"Á":{"ha":860,"x_min":0,"x_max":0,"o":"m 386 1055 l 496 1249 l 589 1249 l 456 1055 m 385 979 l 476 979 l 844 0 l 747 0 l 637 300 l 223 300 l 114 0 l 16 0 m 252 380 l 608 380 l 431 865 l 429 865 "},"Ä":{"ha":860,"x_min":0,"x_max":0,"o":"m 315 1099 b 260 1152 285 1099 260 1122 b 315 1206 260 1183 285 1206 b 368 1152 345 1206 368 1183 b 315 1099 368 1122 345 1099 m 546 1099 b 492 1152 517 1099 492 1122 b 546 1206 492 1183 517 1206 b 600 1152 576 1206 600 1183 b 546 1099 600 1122 576 1099 m 385 979 l 476 979 l 844 0 l 747 0 l 637 300 l 223 300 l 114 0 l 16 0 m 252 380 l 608 380 l 431 865 l 429 865 "},"Ǟ":{"ha":860,"x_min":0,"x_max":0,"o":"m 260 1269 l 600 1269 l 600 1204 l 260 1204 m 545 1042 b 495 1092 517 1042 495 1064 l 495 1093 b 545 1141 495 1120 517 1141 l 546 1141 b 595 1093 573 1141 595 1120 l 595 1092 b 546 1042 595 1064 573 1042 l 545 1042 m 315 1042 b 266 1092 288 1042 266 1064 l 266 1093 b 315 1141 266 1120 288 1141 l 317 1141 b 366 1093 345 1141 366 1120 l 366 1092 b 317 1042 366 1064 344 1042 l 315 1042 m 385 979 l 476 979 l 844 0 l 747 0 l 637 300 l 223 300 l 114 0 l 16 0 m 252 380 l 608 380 l 431 865 l 429 865 "},"Å":{"ha":860,"x_min":0,"x_max":0,"o":"m 433 1037 b 315 1152 367 1037 315 1088 l 315 1153 b 433 1268 315 1217 367 1268 b 550 1153 498 1268 550 1217 l 550 1152 b 433 1037 550 1088 498 1037 m 433 1090 b 494 1152 467 1090 494 1118 l 494 1153 b 433 1215 494 1187 467 1215 b 370 1153 397 1215 370 1187 l 370 1152 b 433 1090 370 1118 397 1090 m 385 979 l 476 979 l 844 0 l 747 0 l 637 300 l 223 300 l 114 0 l 16 0 m 252 380 l 608 380 l 431 865 l 429 865 "},"Å":{"ha":860,"x_min":0,"x_max":0,"o":"m 433 1037 b 550 1152 498 1037 550 1088 l 550 1153 b 433 1268 550 1217 498 1268 b 315 1153 367 1268 315 1217 l 315 1152 b 433 1037 315 1088 367 1037 m 433 1090 b 370 1152 397 1090 370 1118 l 370 1153 b 433 1215 370 1187 397 1215 b 494 1153 467 1215 494 1187 l 494 1152 b 433 1090 494 1118 467 1090 m 16 0 l 114 0 l 223 300 l 637 300 l 747 0 l 844 0 l 476 979 l 385 979 m 429 865 l 431 865 l 608 380 l 252 380 "},"Ǻ":{"ha":860,"x_min":0,"x_max":0,"o":"m 498 1321 l 582 1321 l 446 1195 l 381 1195 m 391 1023 b 299 1101 332 1023 299 1059 l 299 1102 b 391 1179 299 1142 332 1179 l 470 1179 b 562 1102 530 1179 562 1143 l 562 1101 b 470 1023 562 1059 529 1023 l 391 1023 m 468 1069 b 507 1100 492 1069 507 1082 l 507 1101 b 468 1133 507 1120 492 1133 l 393 1133 b 354 1101 369 1133 354 1120 l 354 1100 b 393 1069 354 1082 369 1069 m 385 979 l 476 979 l 844 0 l 747 0 l 637 300 l 223 300 l 114 0 l 16 0 m 252 380 l 608 380 l 431 865 l 429 865 "},"Ã":{"ha":860,"x_min":0,"x_max":0,"o":"m 521 1062 b 432 1101 484 1062 456 1080 l 409 1123 b 348 1160 388 1143 369 1160 b 307 1070 319 1160 307 1131 l 307 1063 l 243 1063 l 243 1072 b 339 1228 243 1175 278 1228 b 427 1188 375 1228 403 1210 l 450 1166 b 513 1130 471 1147 491 1130 b 553 1219 542 1130 553 1159 l 553 1227 l 616 1227 l 616 1218 b 521 1062 616 1115 583 1062 m 385 979 l 476 979 l 844 0 l 747 0 l 637 300 l 223 300 l 114 0 l 16 0 m 252 380 l 608 380 l 431 865 l 429 865 "},"Ằ":{"ha":860,"x_min":0,"x_max":0,"o":"m 414 1197 l 279 1322 l 363 1322 l 479 1197 m 429 1032 b 256 1183 326 1032 256 1088 l 256 1189 l 316 1189 l 316 1186 b 429 1088 316 1129 357 1088 l 431 1088 b 545 1186 503 1088 545 1129 l 545 1189 l 604 1189 l 604 1183 b 431 1032 604 1088 535 1032 l 429 1032 m 385 979 l 476 979 l 844 0 l 747 0 l 637 300 l 223 300 l 114 0 l 16 0 m 252 380 l 608 380 l 431 865 l 429 865 "},"Ǡ":{"ha":860,"x_min":0,"x_max":0,"o":"m 260 1268 l 600 1268 l 600 1204 l 260 1204 m 430 1046 b 380 1097 402 1046 380 1069 l 380 1098 b 430 1147 380 1126 402 1147 l 431 1147 b 481 1098 459 1147 481 1126 l 481 1097 b 431 1046 481 1069 458 1046 l 430 1046 m 385 979 l 476 979 l 844 0 l 747 0 l 637 300 l 223 300 l 114 0 l 16 0 m 252 380 l 608 380 l 431 865 l 429 865 "},"Ḁ":{"ha":860,"x_min":0,"x_max":0,"o":"m 385 979 l 476 979 l 844 0 l 747 0 l 637 300 l 223 300 l 114 0 l 16 0 m 252 380 l 608 380 l 431 865 l 429 865 m 431 -71 b 559 -197 502 -71 559 -127 l 559 -197 b 431 -323 559 -266 502 -323 l 430 -323 b 302 -197 359 -323 302 -266 l 302 -197 b 430 -71 302 -127 359 -71 l 431 -71 m 430 -126 b 359 -197 390 -126 359 -158 l 359 -197 b 430 -267 359 -236 390 -267 l 431 -267 b 501 -197 471 -267 501 -236 l 501 -197 b 431 -126 501 -158 471 -126 "},"Â":{"ha":860,"x_min":0,"x_max":0,"o":"m 390 1247 l 471 1247 l 617 1058 l 538 1058 l 430 1199 l 323 1058 l 244 1058 m 385 979 l 476 979 l 844 0 l 747 0 l 637 300 l 223 300 l 114 0 l 16 0 m 252 380 l 608 380 l 431 865 l 429 865 "},"Ậ":{"ha":860,"x_min":0,"x_max":0,"o":"m 390 1247 l 471 1247 l 617 1058 l 538 1058 l 430 1199 l 323 1058 l 244 1058 m 385 979 l 476 979 l 844 0 l 747 0 l 637 300 l 223 300 l 114 0 l 16 0 m 252 380 l 608 380 l 431 865 l 429 865 m 431 -246 b 371 -187 397 -246 371 -220 b 431 -127 371 -153 397 -127 b 490 -187 463 -127 490 -153 b 431 -246 490 -220 463 -246 "},"Ấ":{"ha":860,"x_min":0,"x_max":0,"o":"m 630 1320 l 713 1320 l 578 1195 l 513 1195 m 469 1161 l 606 1029 l 526 1029 l 430 1122 l 334 1029 l 255 1029 l 391 1161 m 385 979 l 476 979 l 844 0 l 747 0 l 637 300 l 223 300 l 114 0 l 16 0 m 252 380 l 608 380 l 431 865 l 429 865 "},"Ẫ":{"ha":860,"x_min":0,"x_max":0,"o":"m 512 1193 b 426 1223 481 1193 454 1202 l 408 1236 b 355 1257 388 1251 372 1257 b 317 1197 331 1257 317 1237 l 317 1194 l 258 1194 l 258 1200 b 349 1316 258 1277 294 1316 b 433 1286 379 1316 407 1305 l 451 1272 b 505 1251 472 1257 488 1251 b 543 1312 531 1251 543 1271 l 543 1315 l 602 1315 l 602 1309 b 512 1193 602 1232 567 1193 m 469 1161 l 606 1029 l 526 1029 l 430 1122 l 334 1029 l 255 1029 l 391 1161 m 385 979 l 476 979 l 844 0 l 747 0 l 637 300 l 223 300 l 114 0 l 16 0 m 252 380 l 608 380 l 431 865 l 429 865 "},"Ầ":{"ha":860,"x_min":0,"x_max":0,"o":"m 546 1195 l 410 1320 l 494 1320 l 611 1195 m 469 1161 l 606 1029 l 526 1029 l 430 1122 l 334 1029 l 255 1029 l 391 1161 m 385 979 l 476 979 l 844 0 l 747 0 l 637 300 l 223 300 l 114 0 l 16 0 m 252 380 l 608 380 l 431 865 l 429 865 "},"Ẩ":{"ha":860,"x_min":0,"x_max":0,"o":"m 523 1174 b 554 1229 544 1193 554 1212 b 503 1269 554 1255 534 1269 b 482 1267 495 1269 487 1267 l 482 1322 b 523 1328 493 1325 507 1328 b 618 1249 580 1328 618 1296 b 576 1172 618 1217 602 1192 l 523 1172 m 469 1161 l 606 1029 l 526 1029 l 430 1122 l 334 1029 l 255 1029 l 391 1161 m 385 979 l 476 979 l 844 0 l 747 0 l 637 300 l 223 300 l 114 0 l 16 0 m 252 380 l 608 380 l 431 865 l 429 865 "},"Ă":{"ha":860,"x_min":0,"x_max":0,"o":"m 431 1057 b 251 1234 320 1057 251 1127 l 251 1239 l 317 1239 l 317 1236 b 431 1120 317 1171 358 1120 b 544 1236 503 1120 544 1171 l 544 1239 l 610 1239 l 610 1234 b 431 1057 610 1127 541 1057 m 385 979 l 476 979 l 844 0 l 747 0 l 637 300 l 223 300 l 114 0 l 16 0 m 252 380 l 608 380 l 431 865 l 429 865 "},"Ắ":{"ha":860,"x_min":0,"x_max":0,"o":"m 498 1322 l 582 1322 l 446 1197 l 381 1197 m 429 1032 b 256 1183 326 1032 256 1088 l 256 1189 l 316 1189 l 316 1186 b 429 1088 316 1129 357 1088 l 431 1088 b 545 1186 503 1088 545 1129 l 545 1189 l 604 1189 l 604 1183 b 431 1032 604 1088 535 1032 l 429 1032 m 385 979 l 476 979 l 844 0 l 747 0 l 637 300 l 223 300 l 114 0 l 16 0 m 252 380 l 608 380 l 431 865 l 429 865 "},"Ẵ":{"ha":860,"x_min":0,"x_max":0,"o":"m 512 1198 b 426 1227 481 1198 454 1208 l 408 1240 b 355 1263 388 1256 372 1263 b 317 1202 331 1263 317 1242 l 317 1198 l 258 1198 l 258 1205 b 349 1321 258 1282 294 1321 b 433 1291 379 1321 407 1310 l 451 1278 b 505 1257 472 1262 488 1257 b 543 1317 531 1257 543 1276 l 543 1320 l 602 1320 l 602 1314 b 512 1198 602 1236 567 1198 m 429 1032 b 258 1158 327 1032 258 1079 l 258 1163 l 318 1163 l 318 1161 b 429 1088 318 1118 359 1088 l 431 1088 b 543 1161 502 1088 543 1118 l 543 1163 l 602 1163 l 602 1158 b 431 1032 602 1079 534 1032 l 429 1032 m 385 979 l 476 979 l 844 0 l 747 0 l 637 300 l 223 300 l 114 0 l 16 0 m 252 380 l 608 380 l 431 865 l 429 865 "},"Ẳ":{"ha":860,"x_min":0,"x_max":0,"o":"m 392 1176 b 422 1231 412 1195 422 1214 b 371 1271 422 1256 403 1271 b 351 1269 363 1271 355 1270 l 351 1324 b 391 1330 361 1327 376 1330 b 487 1251 448 1330 487 1298 b 444 1174 487 1219 470 1194 l 392 1174 m 429 1032 b 256 1183 326 1032 256 1088 l 256 1189 l 316 1189 l 316 1186 b 429 1088 316 1129 357 1088 l 431 1088 b 545 1186 503 1088 545 1129 l 545 1189 l 604 1189 l 604 1183 b 431 1032 604 1088 535 1032 l 429 1032 m 385 979 l 476 979 l 844 0 l 747 0 l 637 300 l 223 300 l 114 0 l 16 0 m 252 380 l 608 380 l 431 865 l 429 865 "},"Ặ":{"ha":860,"x_min":0,"x_max":0,"o":"m 431 1057 b 251 1234 320 1057 251 1127 l 251 1239 l 317 1239 l 317 1236 b 431 1120 317 1171 358 1120 b 544 1236 503 1120 544 1171 l 544 1239 l 610 1239 l 610 1234 b 431 1057 610 1127 541 1057 m 385 979 l 476 979 l 844 0 l 747 0 l 637 300 l 223 300 l 114 0 l 16 0 m 252 380 l 608 380 l 431 865 l 429 865 m 431 -246 b 371 -187 397 -246 371 -220 b 431 -127 371 -153 397 -127 b 490 -187 463 -127 490 -153 b 431 -246 490 -220 463 -246 "},"Ȃ":{"ha":860,"x_min":0,"x_max":0,"o":"m 431 1239 b 610 1062 541 1239 610 1168 l 610 1057 l 544 1057 l 544 1059 b 431 1175 544 1124 503 1175 b 317 1059 358 1175 317 1124 l 317 1057 l 251 1057 l 251 1062 b 431 1239 251 1168 320 1239 m 385 979 l 476 979 l 844 0 l 747 0 l 637 300 l 223 300 l 114 0 l 16 0 m 252 380 l 608 380 l 431 865 l 429 865 "},"Ǎ":{"ha":860,"x_min":0,"x_max":0,"o":"m 471 1058 l 391 1058 l 244 1247 l 323 1247 l 431 1106 l 538 1247 l 617 1247 m 385 979 l 476 979 l 844 0 l 747 0 l 637 300 l 223 300 l 114 0 l 16 0 m 252 380 l 608 380 l 431 865 l 429 865 "},"Ȧ":{"ha":860,"x_min":0,"x_max":0,"o":"m 430 1099 b 374 1156 399 1099 374 1125 b 430 1213 374 1187 399 1213 b 487 1156 461 1213 487 1187 b 430 1099 487 1125 461 1099 m 385 979 l 476 979 l 844 0 l 747 0 l 637 300 l 223 300 l 114 0 l 16 0 m 252 380 l 608 380 l 431 865 l 429 865 "},"Ạ":{"ha":860,"x_min":0,"x_max":0,"o":"m 385 979 l 476 979 l 844 0 l 747 0 l 637 300 l 223 300 l 114 0 l 16 0 m 252 380 l 608 380 l 431 865 l 429 865 m 431 -246 b 371 -187 397 -246 371 -220 b 431 -127 371 -153 397 -127 b 490 -187 463 -127 490 -153 b 431 -246 490 -220 463 -246 "},"Ả":{"ha":860,"x_min":0,"x_max":0,"o":"m 390 1057 b 454 1142 432 1088 454 1116 b 372 1194 454 1174 420 1194 b 332 1192 354 1194 340 1193 l 332 1246 b 395 1255 345 1251 369 1255 b 522 1156 466 1255 522 1215 b 458 1055 522 1116 500 1084 l 390 1055 m 385 979 l 476 979 l 844 0 l 747 0 l 637 300 l 223 300 l 114 0 l 16 0 m 252 380 l 608 380 l 431 865 l 429 865 "},"Ȁ":{"ha":860,"x_min":0,"x_max":0,"o":"m 161 1249 l 254 1249 l 377 1055 l 307 1055 m 373 1249 l 467 1249 l 576 1055 l 506 1055 m 385 979 l 476 979 l 844 0 l 747 0 l 637 300 l 223 300 l 114 0 l 16 0 m 252 380 l 608 380 l 431 865 l 429 865 "},"Ā":{"ha":860,"x_min":0,"x_max":0,"o":"m 258 1186 l 602 1186 l 602 1119 l 258 1119 m 385 979 l 476 979 l 844 0 l 747 0 l 637 300 l 223 300 l 114 0 l 16 0 m 252 380 l 608 380 l 431 865 l 429 865 "},"Ą":{"ha":860,"x_min":0,"x_max":0,"o":"m 385 979 l 476 979 l 844 0 b 736 -163 772 -51 736 -100 l 736 -164 b 809 -245 736 -217 768 -245 b 855 -235 826 -245 842 -242 l 855 -297 b 792 -309 838 -306 811 -309 b 652 -176 718 -309 652 -265 l 652 -175 b 751 0 652 -111 687 -50 l 747 0 l 637 300 l 223 300 l 114 0 l 16 0 m 252 380 l 608 380 l 431 865 l 429 865 "},"B":{"ha":817,"x_min":0,"x_max":0,"o":"m 92 979 l 440 979 b 726 737 612 979 726 882 l 726 736 b 541 515 726 628 650 532 l 541 513 b 777 269 680 496 777 404 l 777 268 b 439 0 777 102 656 0 l 92 0 m 184 897 l 184 544 l 395 544 b 632 727 543 544 632 611 l 632 728 b 420 897 632 833 553 897 m 184 464 l 184 82 l 427 82 b 682 271 595 82 682 151 l 682 273 b 418 464 682 395 585 464 "},"Ḇ":{"ha":817,"x_min":0,"x_max":0,"o":"m 92 979 l 440 979 b 726 737 612 979 726 882 l 726 736 b 541 515 726 628 650 532 l 541 513 b 777 269 680 496 777 404 l 777 268 b 439 0 777 102 656 0 l 92 0 m 184 897 l 184 544 l 395 544 b 632 727 543 544 632 611 l 632 728 b 420 897 632 833 553 897 m 184 464 l 184 82 l 427 82 b 682 271 595 82 682 151 l 682 273 b 418 464 682 395 585 464 m 195 -147 l 552 -147 l 552 -215 l 195 -215 "},"Ḅ":{"ha":817,"x_min":0,"x_max":0,"o":"m 92 979 l 440 979 b 726 737 612 979 726 882 l 726 736 b 541 515 726 628 650 532 l 541 513 b 777 269 680 496 777 404 l 777 268 b 439 0 777 102 656 0 l 92 0 m 184 897 l 184 544 l 395 544 b 632 727 543 544 632 611 l 632 728 b 420 897 632 833 553 897 m 184 464 l 184 82 l 427 82 b 682 271 595 82 682 151 l 682 273 b 418 464 682 395 585 464 m 374 -246 b 314 -187 340 -246 314 -220 b 374 -127 314 -153 340 -127 b 433 -187 407 -127 433 -153 b 374 -246 433 -220 407 -246 "},"Ḃ":{"ha":817,"x_min":0,"x_max":0,"o":"m 373 1099 b 317 1156 342 1099 317 1125 b 373 1213 317 1187 342 1213 b 430 1156 404 1213 430 1187 b 373 1099 430 1125 404 1099 m 92 979 l 440 979 b 726 737 612 979 726 882 l 726 736 b 541 515 726 628 650 532 l 541 513 b 777 269 680 496 777 404 l 777 268 b 439 0 777 102 656 0 l 92 0 m 184 897 l 184 544 l 395 544 b 632 727 543 544 632 611 l 632 728 b 420 897 632 833 553 897 m 184 464 l 184 82 l 427 82 b 682 271 595 82 682 151 l 682 273 b 418 464 682 395 585 464 "},"Ɓ":{"ha":987,"x_min":0,"x_max":0,"o":"m 261 895 l 224 895 b 105 784 144 895 105 857 b 125 677 105 751 111 717 l 40 677 b 18 795 25 715 18 755 b 217 979 18 911 92 979 l 610 979 b 895 737 782 979 895 882 l 895 736 b 711 515 895 628 819 532 l 711 513 b 946 269 849 496 946 404 l 946 268 b 609 0 946 102 827 0 l 261 0 m 353 897 l 353 544 l 564 544 b 802 727 713 544 802 611 l 802 728 b 590 897 802 833 723 897 m 353 464 l 353 82 l 596 82 b 851 271 765 82 851 151 l 851 273 b 588 464 851 395 754 464 "},"C":{"ha":930,"x_min":0,"x_max":0,"o":"m 494 -16 b 52 490 226 -16 52 183 l 52 490 b 494 994 52 798 224 994 b 884 686 697 994 847 869 l 885 680 l 792 680 l 788 692 b 494 908 751 824 647 908 b 147 490 283 908 147 745 l 147 490 b 494 71 147 236 284 71 b 790 293 646 71 749 154 l 792 299 l 885 299 l 884 292 b 494 -16 847 108 698 -16 "},"Ć":{"ha":930,"x_min":0,"x_max":0,"o":"m 451 1055 l 561 1249 l 654 1249 l 522 1055 m 494 -16 b 52 490 226 -16 52 183 l 52 490 b 494 994 52 798 224 994 b 884 686 697 994 847 869 l 885 680 l 792 680 l 788 692 b 494 908 751 824 647 908 b 147 490 283 908 147 745 l 147 490 b 494 71 147 236 284 71 b 790 293 646 71 749 154 l 792 299 l 885 299 l 884 292 b 494 -16 847 108 698 -16 "},"Č":{"ha":930,"x_min":0,"x_max":0,"o":"m 536 1058 l 456 1058 l 309 1247 l 387 1247 l 496 1106 l 604 1247 l 682 1247 m 494 -16 b 52 490 226 -16 52 183 l 52 490 b 494 994 52 798 224 994 b 884 686 697 994 847 869 l 885 680 l 792 680 l 788 692 b 494 908 751 824 647 908 b 147 490 283 908 147 745 l 147 490 b 494 71 147 236 284 71 b 790 293 646 71 749 154 l 792 299 l 885 299 l 884 292 b 494 -16 847 108 698 -16 "},"Ĉ":{"ha":930,"x_min":0,"x_max":0,"o":"m 455 1247 l 535 1247 l 682 1058 l 604 1058 l 495 1199 l 387 1058 l 309 1058 m 494 -16 b 52 490 226 -16 52 183 l 52 490 b 494 994 52 798 224 994 b 884 686 697 994 847 869 l 885 680 l 792 680 l 788 692 b 494 908 751 824 647 908 b 147 490 283 908 147 745 l 147 490 b 494 71 147 236 284 71 b 790 293 646 71 749 154 l 792 299 l 885 299 l 884 292 b 494 -16 847 108 698 -16 "},"Ċ":{"ha":930,"x_min":0,"x_max":0,"o":"m 495 1099 b 439 1156 465 1099 439 1125 b 495 1213 439 1187 465 1213 b 552 1156 526 1213 552 1187 b 495 1099 552 1125 526 1099 m 494 -16 b 52 490 226 -16 52 183 l 52 490 b 494 994 52 798 224 994 b 884 686 697 994 847 869 l 885 680 l 792 680 l 788 692 b 494 908 751 824 647 908 b 147 490 283 908 147 745 l 147 490 b 494 71 147 236 284 71 b 790 293 646 71 749 154 l 792 299 l 885 299 l 884 292 b 494 -16 847 108 698 -16 "},"Ç":{"ha":930,"x_min":0,"x_max":0,"o":"m 486 -302 b 387 -283 446 -302 407 -294 l 387 -224 b 466 -239 404 -232 435 -239 b 541 -187 506 -239 541 -223 l 541 -186 b 450 -129 541 -147 508 -129 l 424 -129 l 424 -82 l 465 -15 b 52 490 214 -1 52 195 l 52 490 b 494 994 52 798 224 994 b 884 686 697 994 847 869 l 885 680 l 792 680 l 788 692 b 494 908 751 824 647 908 b 147 490 283 908 147 745 l 147 490 b 494 71 147 236 284 71 b 790 293 646 71 749 154 l 792 299 l 885 299 l 884 292 b 531 -14 849 119 715 0 l 497 -71 b 621 -184 571 -74 621 -112 l 621 -185 b 486 -302 621 -260 557 -302 "},"Ḉ":{"ha":930,"x_min":0,"x_max":0,"o":"m 451 1055 l 561 1249 l 654 1249 l 522 1055 m 486 -302 b 387 -283 446 -302 407 -294 l 387 -224 b 466 -239 404 -232 435 -239 b 541 -187 506 -239 541 -223 l 541 -186 b 450 -129 541 -147 508 -129 l 424 -129 l 424 -82 l 465 -15 b 52 490 214 -1 52 195 l 52 490 b 494 994 52 798 224 994 b 884 686 697 994 847 869 l 885 680 l 792 680 l 788 692 b 494 908 751 824 647 908 b 147 490 283 908 147 745 l 147 490 b 494 71 147 236 284 71 b 790 293 646 71 749 154 l 792 299 l 885 299 l 884 292 b 531 -14 849 119 715 0 l 497 -71 b 621 -184 571 -74 621 -112 l 621 -185 b 486 -302 621 -260 557 -302 "},"D":{"ha":925,"x_min":0,"x_max":0,"o":"m 92 979 l 409 979 b 873 490 701 979 873 800 l 873 489 b 409 0 873 180 702 0 l 92 0 m 404 84 b 779 488 644 84 779 229 l 779 490 b 404 895 779 750 644 895 l 184 895 l 184 84 "},"Ḋ":{"ha":925,"x_min":0,"x_max":0,"o":"m 412 1099 b 355 1156 381 1099 355 1125 b 412 1213 355 1187 381 1213 b 469 1156 443 1213 469 1187 b 412 1099 469 1125 443 1099 m 92 979 l 409 979 b 873 490 701 979 873 800 l 873 489 b 409 0 873 180 702 0 l 92 0 m 404 84 b 779 488 644 84 779 229 l 779 490 b 404 895 779 750 644 895 l 184 895 l 184 84 "},"Ḓ":{"ha":925,"x_min":0,"x_max":0,"o":"m 92 979 l 409 979 b 873 490 701 979 873 800 l 873 489 b 409 0 873 180 702 0 l 92 0 m 404 84 b 779 488 644 84 779 229 l 779 490 b 404 895 779 750 644 895 l 184 895 l 184 84 m 372 -82 l 452 -82 l 606 -280 l 526 -280 l 412 -131 l 298 -280 l 218 -280 "},"Ḑ":{"ha":925,"x_min":0,"x_max":0,"o":"m 92 979 l 409 979 b 873 490 701 979 873 800 l 873 489 b 409 0 873 180 702 0 l 92 0 m 404 84 b 779 488 644 84 779 229 l 779 490 b 404 895 779 750 644 895 l 184 895 l 184 84 m 368 -82 l 455 -82 l 368 -302 l 309 -302 "},"Ḏ":{"ha":925,"x_min":0,"x_max":0,"o":"m 92 979 l 409 979 b 873 490 701 979 873 800 l 873 489 b 409 0 873 180 702 0 l 92 0 m 404 84 b 779 488 644 84 779 229 l 779 490 b 404 895 779 750 644 895 l 184 895 l 184 84 m 233 -147 l 591 -147 l 591 -215 l 233 -215 "},"Ď":{"ha":925,"x_min":0,"x_max":0,"o":"m 452 1058 l 372 1058 l 226 1247 l 304 1247 l 412 1106 l 520 1247 l 599 1247 m 92 979 l 409 979 b 873 490 701 979 873 800 l 873 489 b 409 0 873 180 702 0 l 92 0 m 404 84 b 779 488 644 84 779 229 l 779 490 b 404 895 779 750 644 895 l 184 895 l 184 84 "},"Ḍ":{"ha":925,"x_min":0,"x_max":0,"o":"m 92 979 l 409 979 b 873 490 701 979 873 800 l 873 489 b 409 0 873 180 702 0 l 92 0 m 404 84 b 779 488 644 84 779 229 l 779 490 b 404 895 779 750 644 895 l 184 895 l 184 84 m 412 -246 b 353 -187 379 -246 353 -220 b 412 -127 353 -153 379 -127 b 472 -187 446 -127 472 -153 b 412 -246 472 -220 446 -246 "},"Ð":{"ha":955,"x_min":0,"x_max":0,"o":"m 121 450 l 30 450 l 30 529 l 121 529 l 121 979 l 439 979 b 903 490 732 979 903 800 l 903 489 b 439 0 903 180 732 0 l 121 0 m 433 84 b 808 488 674 84 808 229 l 808 490 b 433 895 808 750 674 895 l 214 895 l 214 529 l 398 529 l 398 450 l 214 450 l 214 84 "},"Đ":{"ha":955,"x_min":0,"x_max":0,"o":"m 121 0 l 439 0 b 903 489 732 0 903 180 l 903 490 b 439 979 903 800 732 979 l 121 979 l 121 529 l 30 529 l 30 450 l 121 450 m 214 84 l 214 450 l 398 450 l 398 529 l 214 529 l 214 895 l 433 895 b 808 490 674 895 808 750 l 808 488 b 433 84 808 229 674 84 "},"Ɗ":{"ha":1095,"x_min":0,"x_max":0,"o":"m 261 895 l 224 895 b 105 784 144 895 105 857 b 125 677 105 751 111 717 l 40 677 b 18 795 25 715 18 755 b 217 979 18 911 92 979 l 578 979 b 1042 490 871 979 1042 800 l 1042 489 b 578 0 1042 180 872 0 l 261 0 m 573 84 b 948 488 814 84 948 229 l 948 490 b 573 895 948 750 814 895 l 353 895 l 353 84 "},"E":{"ha":749,"x_min":0,"x_max":0,"o":"m 92 979 l 682 979 l 682 895 l 184 895 l 184 543 l 657 543 l 657 460 l 184 460 l 184 84 l 682 84 l 682 0 l 92 0 "},"È":{"ha":749,"x_min":0,"x_max":0,"o":"m 231 1249 l 325 1249 l 435 1055 l 364 1055 m 92 979 l 682 979 l 682 895 l 184 895 l 184 543 l 657 543 l 657 460 l 184 460 l 184 84 l 682 84 l 682 0 l 92 0 "},"Ȅ":{"ha":749,"x_min":0,"x_max":0,"o":"m 117 1249 l 211 1249 l 334 1055 l 263 1055 m 330 1249 l 423 1249 l 533 1055 l 463 1055 m 92 979 l 682 979 l 682 895 l 184 895 l 184 543 l 657 543 l 657 460 l 184 460 l 184 84 l 682 84 l 682 0 l 92 0 "},"É":{"ha":749,"x_min":0,"x_max":0,"o":"m 342 1055 l 452 1249 l 546 1249 l 413 1055 m 92 979 l 682 979 l 682 895 l 184 895 l 184 543 l 657 543 l 657 460 l 184 460 l 184 84 l 682 84 l 682 0 l 92 0 "},"Ê":{"ha":749,"x_min":0,"x_max":0,"o":"m 347 1247 l 427 1247 l 574 1058 l 495 1058 l 387 1199 l 279 1058 l 201 1058 m 92 979 l 682 979 l 682 895 l 184 895 l 184 543 l 657 543 l 657 460 l 184 460 l 184 84 l 682 84 l 682 0 l 92 0 "},"Ể":{"ha":749,"x_min":0,"x_max":0,"o":"m 479 1174 b 511 1229 500 1193 511 1212 b 459 1269 511 1255 491 1269 b 439 1267 452 1269 444 1267 l 439 1322 b 479 1328 450 1325 464 1328 b 575 1249 536 1328 575 1296 b 532 1172 575 1217 558 1192 l 479 1172 m 425 1161 l 563 1029 l 483 1029 l 387 1122 l 291 1029 l 212 1029 l 348 1161 m 92 979 l 682 979 l 682 895 l 184 895 l 184 543 l 657 543 l 657 460 l 184 460 l 184 84 l 682 84 l 682 0 l 92 0 "},"Ề":{"ha":749,"x_min":0,"x_max":0,"o":"m 503 1195 l 367 1320 l 450 1320 l 568 1195 m 425 1161 l 563 1029 l 483 1029 l 387 1122 l 291 1029 l 212 1029 l 348 1161 m 92 979 l 682 979 l 682 895 l 184 895 l 184 543 l 657 543 l 657 460 l 184 460 l 184 84 l 682 84 l 682 0 l 92 0 "},"Ễ":{"ha":749,"x_min":0,"x_max":0,"o":"m 469 1193 b 382 1223 437 1193 410 1202 l 365 1236 b 312 1257 345 1251 329 1257 b 274 1197 288 1257 274 1237 l 274 1194 l 215 1194 l 215 1200 b 305 1316 215 1277 250 1316 b 390 1286 336 1316 363 1305 l 408 1272 b 462 1251 429 1257 444 1251 b 500 1312 488 1251 500 1271 l 500 1315 l 559 1315 l 559 1309 b 469 1193 559 1232 524 1193 m 425 1161 l 563 1029 l 483 1029 l 387 1122 l 291 1029 l 212 1029 l 348 1161 m 92 979 l 682 979 l 682 895 l 184 895 l 184 543 l 657 543 l 657 460 l 184 460 l 184 84 l 682 84 l 682 0 l 92 0 "},"Ệ":{"ha":749,"x_min":0,"x_max":0,"o":"m 347 1247 l 427 1247 l 574 1058 l 495 1058 l 387 1199 l 279 1058 l 201 1058 m 92 979 l 682 979 l 682 895 l 184 895 l 184 543 l 657 543 l 657 460 l 184 460 l 184 84 l 682 84 l 682 0 l 92 0 m 387 -246 b 328 -187 354 -246 328 -220 b 387 -127 328 -153 354 -127 b 446 -187 420 -127 446 -153 b 387 -246 446 -220 420 -246 "},"Ế":{"ha":749,"x_min":0,"x_max":0,"o":"m 587 1320 l 670 1320 l 534 1195 l 469 1195 m 425 1161 l 563 1029 l 483 1029 l 387 1122 l 291 1029 l 212 1029 l 348 1161 m 92 979 l 682 979 l 682 895 l 184 895 l 184 543 l 657 543 l 657 460 l 184 460 l 184 84 l 682 84 l 682 0 l 92 0 "},"Ë":{"ha":749,"x_min":0,"x_max":0,"o":"m 271 1099 b 217 1152 241 1099 217 1122 b 271 1206 217 1183 241 1206 b 325 1152 301 1206 325 1183 b 271 1099 325 1122 301 1099 m 503 1099 b 449 1152 473 1099 449 1122 b 503 1206 449 1183 473 1206 b 557 1152 533 1206 557 1183 b 503 1099 557 1122 533 1099 m 92 979 l 682 979 l 682 895 l 184 895 l 184 543 l 657 543 l 657 460 l 184 460 l 184 84 l 682 84 l 682 0 l 92 0 "},"Ẹ":{"ha":749,"x_min":0,"x_max":0,"o":"m 92 979 l 682 979 l 682 895 l 184 895 l 184 543 l 657 543 l 657 460 l 184 460 l 184 84 l 682 84 l 682 0 l 92 0 m 387 -246 b 328 -187 354 -246 328 -220 b 387 -127 328 -153 354 -127 b 446 -187 420 -127 446 -153 b 387 -246 446 -220 420 -246 "},"Ȇ":{"ha":749,"x_min":0,"x_max":0,"o":"m 387 1239 b 567 1062 497 1239 567 1168 l 567 1057 l 500 1057 l 500 1059 b 387 1175 500 1124 460 1175 b 274 1059 315 1175 274 1124 l 274 1057 l 208 1057 l 208 1062 b 387 1239 208 1168 277 1239 m 92 979 l 682 979 l 682 895 l 184 895 l 184 543 l 657 543 l 657 460 l 184 460 l 184 84 l 682 84 l 682 0 l 92 0 "},"Ẻ":{"ha":749,"x_min":0,"x_max":0,"o":"m 347 1057 b 410 1142 389 1088 410 1116 b 329 1194 410 1174 377 1194 b 288 1192 311 1194 297 1193 l 288 1246 b 351 1255 302 1251 326 1255 b 479 1156 422 1255 479 1215 b 414 1055 479 1116 456 1084 l 347 1055 m 92 979 l 682 979 l 682 895 l 184 895 l 184 543 l 657 543 l 657 460 l 184 460 l 184 84 l 682 84 l 682 0 l 92 0 "},"Ě":{"ha":749,"x_min":0,"x_max":0,"o":"m 427 1058 l 347 1058 l 201 1247 l 279 1247 l 387 1106 l 495 1247 l 574 1247 m 92 979 l 682 979 l 682 895 l 184 895 l 184 543 l 657 543 l 657 460 l 184 460 l 184 84 l 682 84 l 682 0 l 92 0 "},"Ē":{"ha":749,"x_min":0,"x_max":0,"o":"m 215 1186 l 558 1186 l 558 1119 l 215 1119 m 92 979 l 682 979 l 682 895 l 184 895 l 184 543 l 657 543 l 657 460 l 184 460 l 184 84 l 682 84 l 682 0 l 92 0 "},"Ḕ":{"ha":749,"x_min":0,"x_max":0,"o":"m 371 1185 l 235 1311 l 319 1311 l 436 1185 m 217 1122 l 557 1122 l 557 1058 l 217 1058 m 92 979 l 682 979 l 682 895 l 184 895 l 184 543 l 657 543 l 657 460 l 184 460 l 184 84 l 682 84 l 682 0 l 92 0 "},"Ḗ":{"ha":749,"x_min":0,"x_max":0,"o":"m 455 1311 l 538 1311 l 403 1185 l 338 1185 m 217 1122 l 557 1122 l 557 1058 l 217 1058 m 92 979 l 682 979 l 682 895 l 184 895 l 184 543 l 657 543 l 657 460 l 184 460 l 184 84 l 682 84 l 682 0 l 92 0 "},"Ẽ":{"ha":749,"x_min":0,"x_max":0,"o":"m 477 1062 b 389 1101 441 1062 412 1080 l 366 1123 b 304 1160 345 1143 326 1160 b 264 1070 275 1160 264 1131 l 264 1063 l 200 1063 l 200 1072 b 296 1228 200 1175 235 1228 b 383 1188 332 1228 359 1210 l 406 1166 b 469 1130 427 1147 448 1130 b 510 1219 498 1130 510 1159 l 510 1227 l 573 1227 l 573 1218 b 477 1062 573 1115 539 1062 m 92 979 l 682 979 l 682 895 l 184 895 l 184 543 l 657 543 l 657 460 l 184 460 l 184 84 l 682 84 l 682 0 l 92 0 "},"Ḙ":{"ha":749,"x_min":0,"x_max":0,"o":"m 92 979 l 682 979 l 682 895 l 184 895 l 184 543 l 657 543 l 657 460 l 184 460 l 184 84 l 682 84 l 682 0 l 92 0 m 346 -82 l 427 -82 l 581 -280 l 501 -280 l 387 -131 l 273 -280 l 193 -280 "},"Ĕ":{"ha":749,"x_min":0,"x_max":0,"o":"m 387 1057 b 208 1234 277 1057 208 1127 l 208 1239 l 274 1239 l 274 1236 b 387 1120 274 1171 315 1120 b 500 1236 460 1120 500 1171 l 500 1239 l 567 1239 l 567 1234 b 387 1057 567 1127 497 1057 m 92 979 l 682 979 l 682 895 l 184 895 l 184 543 l 657 543 l 657 460 l 184 460 l 184 84 l 682 84 l 682 0 l 92 0 "},"Ḛ":{"ha":749,"x_min":0,"x_max":0,"o":"m 92 979 l 682 979 l 682 895 l 184 895 l 184 543 l 657 543 l 657 460 l 184 460 l 184 84 l 682 84 l 682 0 l 92 0 m 482 -279 b 389 -237 444 -279 414 -260 l 365 -214 b 300 -175 342 -193 322 -175 b 258 -270 270 -175 258 -205 l 258 -277 l 193 -277 l 193 -269 b 292 -106 193 -161 228 -106 b 383 -149 330 -106 359 -125 l 408 -171 b 474 -210 430 -192 451 -210 b 516 -115 504 -210 516 -179 l 516 -107 l 581 -107 l 581 -117 b 482 -279 581 -224 546 -279 "},"Ė":{"ha":749,"x_min":0,"x_max":0,"o":"m 387 1099 b 330 1156 356 1099 330 1125 b 387 1213 330 1187 356 1213 b 444 1156 418 1213 444 1187 b 387 1099 444 1125 418 1099 m 92 979 l 682 979 l 682 895 l 184 895 l 184 543 l 657 543 l 657 460 l 184 460 l 184 84 l 682 84 l 682 0 l 92 0 "},"Ȩ":{"ha":749,"x_min":0,"x_max":0,"o":"m 92 979 l 682 979 l 682 895 l 184 895 l 184 543 l 657 543 l 657 460 l 184 460 l 184 84 l 682 84 l 682 0 l 431 0 l 389 -71 b 513 -184 463 -74 513 -112 l 513 -185 b 378 -302 513 -260 449 -302 b 279 -283 337 -302 299 -294 l 279 -224 b 358 -239 296 -232 327 -239 b 433 -187 398 -239 433 -223 l 433 -186 b 342 -129 433 -147 400 -129 l 316 -129 l 316 -82 l 366 0 l 92 0 "},"Ḝ":{"ha":749,"x_min":0,"x_max":0,"o":"m 387 1057 b 208 1234 277 1057 208 1127 l 208 1239 l 274 1239 l 274 1236 b 387 1120 274 1171 315 1120 b 500 1236 460 1120 500 1171 l 500 1239 l 567 1239 l 567 1234 b 387 1057 567 1127 497 1057 m 92 979 l 682 979 l 682 895 l 184 895 l 184 543 l 657 543 l 657 460 l 184 460 l 184 84 l 682 84 l 682 0 l 431 0 l 389 -71 b 513 -184 463 -74 513 -112 l 513 -185 b 378 -302 513 -260 449 -302 b 279 -283 337 -302 299 -294 l 279 -224 b 358 -239 296 -232 327 -239 b 433 -187 398 -239 433 -223 l 433 -186 b 342 -129 433 -147 400 -129 l 316 -129 l 316 -82 l 366 0 l 92 0 "},"Ę":{"ha":749,"x_min":0,"x_max":0,"o":"m 92 979 l 682 979 l 682 895 l 184 895 l 184 543 l 657 543 l 657 460 l 184 460 l 184 84 l 682 84 l 682 0 b 574 -163 610 -51 574 -100 l 574 -164 b 647 -245 574 -217 606 -245 b 693 -235 664 -245 680 -242 l 693 -297 b 630 -309 676 -306 649 -309 b 490 -176 555 -309 490 -265 l 490 -175 b 589 0 490 -111 525 -50 l 92 0 "},"Ǝ":{"ha":749,"x_min":0,"x_max":0,"o":"m 66 0 l 66 84 l 565 84 l 565 460 l 92 460 l 92 543 l 565 543 l 565 895 l 66 895 l 66 979 l 657 979 l 657 0 "},"F":{"ha":720,"x_min":0,"x_max":0,"o":"m 92 979 l 674 979 l 674 895 l 184 895 l 184 527 l 634 527 l 634 444 l 184 444 l 184 0 l 92 0 "},"Ḟ":{"ha":720,"x_min":0,"x_max":0,"o":"m 382 1099 b 326 1156 352 1099 326 1125 b 382 1213 326 1187 352 1213 b 439 1156 414 1213 439 1187 b 382 1099 439 1125 414 1099 m 92 979 l 674 979 l 674 895 l 184 895 l 184 527 l 634 527 l 634 444 l 184 444 l 184 0 l 92 0 "},"Ƒ":{"ha":720,"x_min":0,"x_max":0,"o":"m 184 -48 b -5 -237 184 -177 123 -237 b -60 -234 -25 -237 -47 -236 l -60 -160 b -18 -162 -49 -161 -33 -162 b 92 -49 57 -162 92 -126 l 92 979 l 674 979 l 674 895 l 184 895 l 184 527 l 634 527 l 634 444 l 184 444 "},"G":{"ha":956,"x_min":0,"x_max":0,"o":"m 490 -16 b 52 495 224 -16 52 184 l 52 496 b 490 994 52 801 224 994 b 889 690 705 994 844 873 l 892 680 l 795 680 l 793 686 b 490 908 747 831 639 908 b 146 496 278 908 146 751 l 146 495 b 490 71 146 234 280 71 b 806 389 680 71 806 199 l 806 410 l 502 410 l 502 492 l 898 492 l 898 410 b 490 -16 898 147 744 -16 "},"Ǵ":{"ha":956,"x_min":0,"x_max":0,"o":"m 447 1055 l 557 1249 l 650 1249 l 517 1055 m 490 -16 b 52 495 224 -16 52 184 l 52 496 b 490 994 52 801 224 994 b 889 690 705 994 844 873 l 892 680 l 795 680 l 793 686 b 490 908 747 831 639 908 b 146 496 278 908 146 751 l 146 495 b 490 71 146 234 280 71 b 806 389 680 71 806 199 l 806 410 l 502 410 l 502 492 l 898 492 l 898 410 b 490 -16 898 147 744 -16 "},"Ǧ":{"ha":956,"x_min":0,"x_max":0,"o":"m 532 1058 l 452 1058 l 305 1247 l 384 1247 l 492 1106 l 600 1247 l 678 1247 m 490 -16 b 52 495 224 -16 52 184 l 52 496 b 490 994 52 801 224 994 b 889 690 705 994 844 873 l 892 680 l 795 680 l 793 686 b 490 908 747 831 639 908 b 146 496 278 908 146 751 l 146 495 b 490 71 146 234 280 71 b 806 389 680 71 806 199 l 806 410 l 502 410 l 502 492 l 898 492 l 898 410 b 490 -16 898 147 744 -16 "},"Ĝ":{"ha":956,"x_min":0,"x_max":0,"o":"m 451 1247 l 532 1247 l 678 1058 l 600 1058 l 492 1199 l 384 1058 l 305 1058 m 490 -16 b 52 495 224 -16 52 184 l 52 496 b 490 994 52 801 224 994 b 889 690 705 994 844 873 l 892 680 l 795 680 l 793 686 b 490 908 747 831 639 908 b 146 496 278 908 146 751 l 146 495 b 490 71 146 234 280 71 b 806 389 680 71 806 199 l 806 410 l 502 410 l 502 492 l 898 492 l 898 410 b 490 -16 898 147 744 -16 "},"Ğ":{"ha":956,"x_min":0,"x_max":0,"o":"m 492 1057 b 312 1234 382 1057 312 1127 l 312 1239 l 378 1239 l 378 1236 b 492 1120 378 1171 419 1120 b 606 1236 564 1120 606 1171 l 606 1239 l 671 1239 l 671 1234 b 492 1057 671 1127 602 1057 m 490 -16 b 52 495 224 -16 52 184 l 52 496 b 490 994 52 801 224 994 b 889 690 705 994 844 873 l 892 680 l 795 680 l 793 686 b 490 908 747 831 639 908 b 146 496 278 908 146 751 l 146 495 b 490 71 146 234 280 71 b 806 389 680 71 806 199 l 806 410 l 502 410 l 502 492 l 898 492 l 898 410 b 490 -16 898 147 744 -16 "},"Ḡ":{"ha":956,"x_min":0,"x_max":0,"o":"m 320 1186 l 663 1186 l 663 1119 l 320 1119 m 490 -16 b 52 495 224 -16 52 184 l 52 496 b 490 994 52 801 224 994 b 889 690 705 994 844 873 l 892 680 l 795 680 l 793 686 b 490 908 747 831 639 908 b 146 496 278 908 146 751 l 146 495 b 490 71 146 234 280 71 b 806 389 680 71 806 199 l 806 410 l 502 410 l 502 492 l 898 492 l 898 410 b 490 -16 898 147 744 -16 "},"Ġ":{"ha":956,"x_min":0,"x_max":0,"o":"m 491 1099 b 435 1156 460 1099 435 1125 b 491 1213 435 1187 460 1213 b 548 1156 523 1213 548 1187 b 491 1099 548 1125 523 1099 m 490 -16 b 52 495 224 -16 52 184 l 52 496 b 490 994 52 801 224 994 b 889 690 705 994 844 873 l 892 680 l 795 680 l 793 686 b 490 908 747 831 639 908 b 146 496 278 908 146 751 l 146 495 b 490 71 146 234 280 71 b 806 389 680 71 806 199 l 806 410 l 502 410 l 502 492 l 898 492 l 898 410 b 490 -16 898 147 744 -16 "},"Ģ":{"ha":956,"x_min":0,"x_max":0,"o":"m 490 -16 b 52 495 224 -16 52 184 l 52 496 b 490 994 52 801 224 994 b 889 690 705 994 844 873 l 892 680 l 795 680 l 793 686 b 490 908 747 831 639 908 b 146 496 278 908 146 751 l 146 495 b 490 71 146 234 280 71 b 806 389 680 71 806 199 l 806 410 l 502 410 l 502 492 l 898 492 l 898 410 b 490 -16 898 147 744 -16 m 447 -82 l 534 -82 l 448 -302 l 388 -302 "},"H":{"ha":941,"x_min":0,"x_max":0,"o":"m 92 979 l 184 979 l 184 543 l 756 543 l 756 979 l 849 979 l 849 0 l 756 0 l 756 459 l 184 459 l 184 0 l 92 0 "},"Ḧ":{"ha":941,"x_min":0,"x_max":0,"o":"m 355 1099 b 300 1152 325 1099 300 1122 b 355 1206 300 1183 325 1206 b 408 1152 385 1206 408 1183 b 355 1099 408 1122 385 1099 m 586 1099 b 532 1152 557 1099 532 1122 b 586 1206 532 1183 557 1206 b 640 1152 616 1206 640 1183 b 586 1099 640 1122 616 1099 m 92 979 l 184 979 l 184 543 l 756 543 l 756 979 l 849 979 l 849 0 l 756 0 l 756 459 l 184 459 l 184 0 l 92 0 "},"Ȟ":{"ha":941,"x_min":0,"x_max":0,"o":"m 511 1058 l 431 1058 l 284 1247 l 362 1247 l 471 1106 l 578 1247 l 656 1247 m 92 979 l 184 979 l 184 543 l 756 543 l 756 979 l 849 979 l 849 0 l 756 0 l 756 459 l 184 459 l 184 0 l 92 0 "},"Ĥ":{"ha":941,"x_min":0,"x_max":0,"o":"m 430 1247 l 510 1247 l 656 1058 l 578 1058 l 470 1199 l 362 1058 l 284 1058 m 92 979 l 184 979 l 184 543 l 756 543 l 756 979 l 849 979 l 849 0 l 756 0 l 756 459 l 184 459 l 184 0 l 92 0 "},"Ḥ":{"ha":941,"x_min":0,"x_max":0,"o":"m 92 979 l 184 979 l 184 543 l 756 543 l 756 979 l 849 979 l 849 0 l 756 0 l 756 459 l 184 459 l 184 0 l 92 0 m 470 -246 b 410 -187 437 -246 410 -220 b 470 -127 410 -153 437 -127 b 530 -187 503 -127 530 -153 b 470 -246 530 -220 503 -246 "},"Ḣ":{"ha":941,"x_min":0,"x_max":0,"o":"m 470 1099 b 414 1156 439 1099 414 1125 b 470 1213 414 1187 439 1213 b 527 1156 501 1213 527 1187 b 470 1099 527 1125 501 1099 m 92 979 l 184 979 l 184 543 l 756 543 l 756 979 l 849 979 l 849 0 l 756 0 l 756 459 l 184 459 l 184 0 l 92 0 "},"Ḫ":{"ha":941,"x_min":0,"x_max":0,"o":"m 92 979 l 184 979 l 184 543 l 756 543 l 756 979 l 849 979 l 849 0 l 756 0 l 756 459 l 184 459 l 184 0 l 92 0 m 470 -279 b 283 -88 355 -279 283 -203 l 283 -82 l 351 -82 l 351 -85 b 470 -214 351 -157 393 -214 b 589 -85 547 -214 589 -157 l 589 -82 l 657 -82 l 657 -88 b 470 -279 657 -203 585 -279 "},"Ḩ":{"ha":941,"x_min":0,"x_max":0,"o":"m 92 979 l 184 979 l 184 543 l 756 543 l 756 979 l 849 979 l 849 0 l 756 0 l 756 459 l 184 459 l 184 0 l 142 -71 b 266 -184 216 -74 266 -112 l 266 -185 b 130 -302 266 -260 201 -302 b 32 -283 90 -302 52 -294 l 32 -224 b 111 -239 48 -232 79 -239 b 186 -187 151 -239 186 -223 l 186 -186 b 95 -129 186 -147 153 -129 l 68 -129 l 68 -82 l 119 0 l 92 0 "},"Ħ":{"ha":1000,"x_min":0,"x_max":0,"o":"m 122 734 l 31 734 l 31 812 l 122 812 l 122 979 l 214 979 l 214 812 l 787 812 l 787 979 l 880 979 l 880 812 l 971 812 l 971 734 l 880 734 l 880 0 l 787 0 l 787 459 l 214 459 l 214 0 l 122 0 m 787 543 l 787 734 l 214 734 l 214 543 "},"I":{"ha":275,"x_min":0,"x_max":0,"o":"m 92 979 l 184 979 l 184 0 l 92 0 "},"İ":{"ha":275,"x_min":0,"x_max":0,"o":"m 137 1099 b 81 1156 106 1099 81 1125 b 137 1213 81 1187 106 1213 b 194 1156 169 1213 194 1187 b 137 1099 194 1125 169 1099 m 92 979 l 184 979 l 184 0 l 92 0 "},"Ì":{"ha":275,"x_min":0,"x_max":0,"o":"m -18 1249 l 76 1249 l 185 1055 l 115 1055 m 92 979 l 184 979 l 184 0 l 92 0 "},"Ȉ":{"ha":275,"x_min":0,"x_max":0,"o":"m -132 1249 l -39 1249 l 85 1055 l 14 1055 m 81 1249 l 174 1249 l 284 1055 l 214 1055 m 92 979 l 184 979 l 184 0 l 92 0 "},"Í":{"ha":275,"x_min":0,"x_max":0,"o":"m 93 1055 l 203 1249 l 297 1249 l 164 1055 m 92 979 l 184 979 l 184 0 l 92 0 "},"Î":{"ha":275,"x_min":0,"x_max":0,"o":"m 98 1247 l 178 1247 l 324 1058 l 245 1058 l 138 1199 l 30 1058 l -49 1058 m 92 979 l 184 979 l 184 0 l 92 0 "},"Ǐ":{"ha":275,"x_min":0,"x_max":0,"o":"m 178 1058 l 98 1058 l -49 1247 l 30 1247 l 138 1106 l 245 1247 l 324 1247 m 92 979 l 184 979 l 184 0 l 92 0 "},"Ï":{"ha":275,"x_min":0,"x_max":0,"o":"m 22 1099 b -32 1152 -8 1099 -32 1122 b 22 1206 -32 1183 -8 1206 b 75 1152 52 1206 75 1183 b 22 1099 75 1122 52 1099 m 254 1099 b 200 1152 224 1099 200 1122 b 254 1206 200 1183 224 1206 b 307 1152 284 1206 307 1183 b 254 1099 307 1122 284 1099 m 92 979 l 184 979 l 184 0 l 92 0 "},"Ḯ":{"ha":275,"x_min":0,"x_max":0,"o":"m 205 1313 l 290 1313 l 154 1187 l 89 1187 m 252 1042 b 202 1092 224 1042 202 1064 l 202 1093 b 252 1141 202 1120 224 1141 l 253 1141 b 302 1093 281 1141 302 1120 l 302 1092 b 253 1042 302 1064 280 1042 l 252 1042 m 23 1042 b -26 1092 -5 1042 -26 1064 l -26 1093 b 23 1141 -26 1120 -5 1141 l 24 1141 b 73 1093 52 1141 73 1120 l 73 1092 b 24 1042 73 1064 52 1042 l 23 1042 m 92 979 l 184 979 l 184 0 l 92 0 "},"Ĭ":{"ha":275,"x_min":0,"x_max":0,"o":"m 138 1057 b -42 1234 28 1057 -42 1127 l -42 1239 l 24 1239 l 24 1236 b 138 1120 24 1171 65 1120 b 252 1236 210 1120 252 1171 l 252 1239 l 317 1239 l 317 1234 b 138 1057 317 1127 248 1057 m 92 979 l 184 979 l 184 0 l 92 0 "},"Ị":{"ha":275,"x_min":0,"x_max":0,"o":"m 92 979 l 184 979 l 184 0 l 92 0 m 138 -246 b 78 -187 105 -246 78 -220 b 138 -127 78 -153 105 -127 b 197 -187 171 -127 197 -153 b 138 -246 197 -220 171 -246 "},"Ȋ":{"ha":275,"x_min":0,"x_max":0,"o":"m 138 1239 b 317 1062 248 1239 317 1168 l 317 1057 l 252 1057 l 252 1059 b 138 1175 252 1124 210 1175 b 24 1059 65 1175 24 1124 l 24 1057 l -42 1057 l -42 1062 b 138 1239 -42 1168 28 1239 m 92 979 l 184 979 l 184 0 l 92 0 "},"Ī":{"ha":275,"x_min":0,"x_max":0,"o":"m -34 1186 l 309 1186 l 309 1119 l -34 1119 m 92 979 l 184 979 l 184 0 l 92 0 "},"Ḭ":{"ha":275,"x_min":0,"x_max":0,"o":"m 92 979 l 184 979 l 184 0 l 92 0 m 233 -279 b 140 -237 194 -279 164 -260 l 115 -214 b 51 -175 94 -193 73 -175 b 8 -270 20 -175 8 -205 l 8 -277 l -57 -277 l -57 -269 b 42 -106 -57 -161 -21 -106 b 134 -149 81 -106 109 -125 l 158 -171 b 224 -210 180 -192 202 -210 b 267 -115 255 -210 267 -179 l 267 -107 l 332 -107 l 332 -117 b 233 -279 332 -224 296 -279 "},"Ỉ":{"ha":275,"x_min":0,"x_max":0,"o":"m 97 1057 b 161 1142 140 1088 161 1116 b 79 1194 161 1174 127 1194 b 39 1192 61 1194 47 1193 l 39 1246 b 102 1255 52 1251 77 1255 b 230 1156 173 1255 230 1215 b 165 1055 230 1116 207 1084 l 97 1055 m 92 979 l 184 979 l 184 0 l 92 0 "},"Ĩ":{"ha":275,"x_min":0,"x_max":0,"o":"m 228 1062 b 140 1101 191 1062 163 1080 l 116 1123 b 55 1160 96 1143 76 1160 b 14 1070 26 1160 14 1131 l 14 1063 l -49 1063 l -49 1072 b 47 1228 -49 1175 -15 1228 b 134 1188 83 1228 111 1210 l 157 1166 b 220 1130 178 1147 199 1130 b 260 1219 249 1130 260 1159 l 260 1227 l 324 1227 l 324 1218 b 228 1062 324 1115 290 1062 m 92 979 l 184 979 l 184 0 l 92 0 "},"Į":{"ha":275,"x_min":0,"x_max":0,"o":"m 132 -309 b -9 -176 58 -309 -9 -265 l -9 -175 b 92 1 -9 -110 27 -49 l 92 979 l 184 979 l 184 0 b 75 -163 112 -51 75 -100 l 75 -164 b 149 -245 75 -217 109 -245 b 195 -235 166 -245 182 -242 l 195 -297 b 132 -309 178 -306 151 -309 "},"J":{"ha":669,"x_min":0,"x_max":0,"o":"m 298 -16 b 29 227 128 -16 39 92 l 28 237 l 121 237 l 121 229 b 297 71 130 144 182 71 b 486 274 418 71 486 144 l 486 979 l 578 979 l 578 272 b 298 -16 578 93 473 -16 "},"Ĵ":{"ha":669,"x_min":0,"x_max":0,"o":"m 492 1247 l 572 1247 l 718 1058 l 640 1058 l 532 1199 l 424 1058 l 345 1058 m 298 -16 b 29 227 128 -16 39 92 l 28 237 l 121 237 l 121 229 b 297 71 130 144 182 71 b 486 274 418 71 486 144 l 486 979 l 578 979 l 578 272 b 298 -16 578 93 473 -16 "},"Ĳ":{"ha":945,"x_min":0,"x_max":0,"o":"m 92 979 l 184 979 l 184 0 l 92 0 m 573 -16 b 304 227 404 -16 314 92 l 304 237 l 396 237 l 397 229 b 572 71 405 144 458 71 b 761 274 693 71 761 144 l 761 979 l 853 979 l 853 272 b 573 -16 853 93 748 -16 "},"K":{"ha":806,"x_min":0,"x_max":0,"o":"m 92 979 l 184 979 l 184 469 l 188 469 l 641 979 l 758 979 l 369 546 l 798 0 l 679 0 l 304 480 l 184 349 l 184 0 l 92 0 "},"K":{"ha":806,"x_min":0,"x_max":0,"o":"m 92 0 l 184 0 l 184 349 l 304 480 l 679 0 l 798 0 l 369 546 l 758 979 l 641 979 l 188 469 l 184 469 l 184 979 l 92 979 "},"Ḱ":{"ha":806,"x_min":0,"x_max":0,"o":"m 357 1055 l 466 1249 l 560 1249 l 427 1055 m 92 979 l 184 979 l 184 469 l 188 469 l 641 979 l 758 979 l 369 546 l 798 0 l 679 0 l 304 480 l 184 349 l 184 0 l 92 0 "},"Ǩ":{"ha":806,"x_min":0,"x_max":0,"o":"m 441 1058 l 361 1058 l 215 1247 l 293 1247 l 401 1106 l 509 1247 l 587 1247 m 92 979 l 184 979 l 184 469 l 188 469 l 641 979 l 758 979 l 369 546 l 798 0 l 679 0 l 304 480 l 184 349 l 184 0 l 92 0 "},"Ḳ":{"ha":806,"x_min":0,"x_max":0,"o":"m 92 979 l 184 979 l 184 469 l 188 469 l 641 979 l 758 979 l 369 546 l 798 0 l 679 0 l 304 480 l 184 349 l 184 0 l 92 0 m 401 -246 b 341 -187 368 -246 341 -220 b 401 -127 341 -153 368 -127 b 460 -187 434 -127 460 -153 b 401 -246 460 -220 434 -246 "},"Ḵ":{"ha":806,"x_min":0,"x_max":0,"o":"m 92 979 l 184 979 l 184 469 l 188 469 l 641 979 l 758 979 l 369 546 l 798 0 l 679 0 l 304 480 l 184 349 l 184 0 l 92 0 m 222 -147 l 580 -147 l 580 -215 l 222 -215 "},"Ķ":{"ha":806,"x_min":0,"x_max":0,"o":"m 92 979 l 184 979 l 184 469 l 188 469 l 641 979 l 758 979 l 369 546 l 798 0 l 679 0 l 304 480 l 184 349 l 184 0 l 92 0 m 356 -82 l 444 -82 l 357 -302 l 298 -302 "},"Ƙ":{"ha":827,"x_min":0,"x_max":0,"o":"m 92 978 l 184 978 l 184 469 l 188 469 l 597 913 b 743 989 646 966 686 989 b 814 975 766 989 793 985 l 814 890 b 751 902 792 899 771 902 b 659 857 713 902 691 890 l 370 546 l 812 -1 l 693 -1 l 304 480 l 184 349 l 184 -1 l 92 -1 "},"L":{"ha":713,"x_min":0,"x_max":0,"o":"m 92 979 l 184 979 l 184 84 l 674 84 l 674 0 l 92 0 "},"Ĺ":{"ha":713,"x_min":0,"x_max":0,"o":"m 93 1055 l 203 1249 l 297 1249 l 164 1055 m 92 979 l 184 979 l 184 84 l 674 84 l 674 0 l 92 0 "},"Ḽ":{"ha":713,"x_min":0,"x_max":0,"o":"m 92 979 l 184 979 l 184 84 l 674 84 l 674 0 l 92 0 m 342 -82 l 423 -82 l 577 -280 l 497 -280 l 382 -131 l 269 -280 l 189 -280 "},"Ŀ":{"ha":713,"x_min":0,"x_max":0,"o":"m 92 979 l 184 979 l 184 84 l 674 84 l 674 0 l 92 0 m 557 486 b 495 423 557 451 530 423 l 494 423 b 431 486 459 423 431 451 l 431 487 b 494 549 431 522 459 549 l 495 549 b 557 487 530 549 557 522 "},"Ḷ":{"ha":713,"x_min":0,"x_max":0,"o":"m 92 979 l 184 979 l 184 84 l 674 84 l 674 0 l 92 0 m 382 -246 b 323 -187 350 -246 323 -220 b 382 -127 323 -153 350 -127 b 442 -187 416 -127 442 -153 b 382 -246 442 -220 416 -246 "},"Ḹ":{"ha":713,"x_min":0,"x_max":0,"o":"m -34 1186 l 309 1186 l 309 1119 l -34 1119 m 92 979 l 184 979 l 184 84 l 674 84 l 674 0 l 92 0 m 382 -246 b 323 -187 350 -246 323 -220 b 382 -127 323 -153 350 -127 b 442 -187 416 -127 442 -153 b 382 -246 442 -220 416 -246 "},"Ḻ":{"ha":713,"x_min":0,"x_max":0,"o":"m 92 979 l 184 979 l 184 84 l 674 84 l 674 0 l 92 0 m 204 -147 l 562 -147 l 562 -215 l 204 -215 "},"Ļ":{"ha":713,"x_min":0,"x_max":0,"o":"m 92 979 l 184 979 l 184 84 l 674 84 l 674 0 l 92 0 m 338 -82 l 426 -82 l 339 -302 l 279 -302 "},"Ľ":{"ha":713,"x_min":0,"x_max":0,"o":"m 422 979 l 508 979 l 432 715 l 373 715 m 92 979 l 184 979 l 184 84 l 674 84 l 674 0 l 92 0 "},"Ł":{"ha":734,"x_min":0,"x_max":0,"o":"m 111 402 l 30 361 l 30 445 l 111 486 l 111 979 l 204 979 l 204 532 l 490 675 l 490 591 l 204 448 l 204 84 l 694 84 l 694 0 l 111 0 "},"M":{"ha":1126,"x_min":0,"x_max":0,"o":"m 92 979 l 198 979 l 561 117 l 565 117 l 928 979 l 1034 979 l 1034 0 l 947 0 l 947 804 l 943 804 l 603 0 l 522 0 l 183 804 l 178 804 l 178 0 l 92 0 "},"Ḿ":{"ha":1126,"x_min":0,"x_max":0,"o":"m 518 1055 l 628 1249 l 722 1249 l 589 1055 m 92 979 l 198 979 l 561 117 l 565 117 l 928 979 l 1034 979 l 1034 0 l 947 0 l 947 804 l 943 804 l 603 0 l 522 0 l 183 804 l 178 804 l 178 0 l 92 0 "},"Ṁ":{"ha":1126,"x_min":0,"x_max":0,"o":"m 562 1099 b 506 1156 532 1099 506 1125 b 562 1213 506 1187 532 1213 b 619 1156 594 1213 619 1187 b 562 1099 619 1125 594 1099 m 92 979 l 198 979 l 561 117 l 565 117 l 928 979 l 1034 979 l 1034 0 l 947 0 l 947 804 l 943 804 l 603 0 l 522 0 l 183 804 l 178 804 l 178 0 l 92 0 "},"Ṃ":{"ha":1126,"x_min":0,"x_max":0,"o":"m 92 979 l 198 979 l 561 117 l 565 117 l 928 979 l 1034 979 l 1034 0 l 947 0 l 947 804 l 943 804 l 603 0 l 522 0 l 183 804 l 178 804 l 178 0 l 92 0 m 563 -246 b 503 -187 530 -246 503 -220 b 563 -127 503 -153 530 -127 b 623 -187 596 -127 623 -153 b 563 -246 623 -220 596 -246 "},"N":{"ha":945,"x_min":0,"x_max":0,"o":"m 92 979 l 183 979 l 758 157 l 762 157 l 762 979 l 853 979 l 853 0 l 762 0 l 186 822 l 183 822 l 183 0 l 92 0 "},"Ǹ":{"ha":945,"x_min":0,"x_max":0,"o":"m 317 1249 l 410 1249 l 520 1055 l 450 1055 m 92 979 l 183 979 l 758 157 l 762 157 l 762 979 l 853 979 l 853 0 l 762 0 l 186 822 l 183 822 l 183 0 l 92 0 "},"Ń":{"ha":945,"x_min":0,"x_max":0,"o":"m 428 1055 l 538 1249 l 631 1249 l 498 1055 m 92 979 l 183 979 l 758 157 l 762 157 l 762 979 l 853 979 l 853 0 l 762 0 l 186 822 l 183 822 l 183 0 l 92 0 "},"Ñ":{"ha":945,"x_min":0,"x_max":0,"o":"m 563 1062 b 474 1101 526 1062 497 1080 l 450 1123 b 389 1160 430 1143 410 1160 b 349 1070 361 1160 349 1131 l 349 1063 l 286 1063 l 286 1072 b 381 1228 286 1175 320 1228 b 468 1188 417 1228 445 1210 l 492 1166 b 555 1130 513 1147 533 1130 b 595 1219 584 1130 595 1159 l 595 1227 l 659 1227 l 659 1218 b 563 1062 659 1115 625 1062 m 92 979 l 183 979 l 758 157 l 762 157 l 762 979 l 853 979 l 853 0 l 762 0 l 186 822 l 183 822 l 183 0 l 92 0 "},"Ṇ":{"ha":945,"x_min":0,"x_max":0,"o":"m 92 979 l 183 979 l 758 157 l 762 157 l 762 979 l 853 979 l 853 0 l 762 0 l 186 822 l 183 822 l 183 0 l 92 0 m 472 -246 b 413 -187 439 -246 413 -220 b 472 -127 413 -153 439 -127 b 532 -187 505 -127 532 -153 b 472 -246 532 -220 505 -246 "},"Ṅ":{"ha":945,"x_min":0,"x_max":0,"o":"m 472 1099 b 416 1156 441 1099 416 1125 b 472 1213 416 1187 441 1213 b 529 1156 503 1213 529 1187 b 472 1099 529 1125 503 1099 m 92 979 l 183 979 l 758 157 l 762 157 l 762 979 l 853 979 l 853 0 l 762 0 l 186 822 l 183 822 l 183 0 l 92 0 "},"Ň":{"ha":945,"x_min":0,"x_max":0,"o":"m 513 1058 l 433 1058 l 286 1247 l 365 1247 l 473 1106 l 581 1247 l 659 1247 m 92 979 l 183 979 l 758 157 l 762 157 l 762 979 l 853 979 l 853 0 l 762 0 l 186 822 l 183 822 l 183 0 l 92 0 "},"Ṋ":{"ha":945,"x_min":0,"x_max":0,"o":"m 92 979 l 183 979 l 758 157 l 762 157 l 762 979 l 853 979 l 853 0 l 762 0 l 186 822 l 183 822 l 183 0 l 92 0 m 431 -82 l 513 -82 l 667 -280 l 587 -280 l 472 -131 l 358 -280 l 278 -280 "},"Ṉ":{"ha":945,"x_min":0,"x_max":0,"o":"m 92 979 l 183 979 l 758 157 l 762 157 l 762 979 l 853 979 l 853 0 l 762 0 l 186 822 l 183 822 l 183 0 l 92 0 m 294 -147 l 651 -147 l 651 -215 l 294 -215 "},"Ņ":{"ha":945,"x_min":0,"x_max":0,"o":"m 92 979 l 183 979 l 758 157 l 762 157 l 762 979 l 853 979 l 853 0 l 762 0 l 186 822 l 183 822 l 183 0 l 92 0 m 428 -82 l 515 -82 l 429 -302 l 369 -302 "},"Ŋ":{"ha":945,"x_min":0,"x_max":0,"o":"m 92 0 l 92 979 l 183 979 l 758 157 l 762 157 l 762 979 l 853 979 l 853 -48 b 665 -237 853 -177 792 -237 b 609 -234 644 -237 623 -236 l 609 -160 b 652 -162 621 -161 636 -162 b 761 -49 726 -162 761 -126 l 761 3 l 186 822 l 183 822 l 183 0 "},"O":{"ha":994,"x_min":0,"x_max":0,"o":"m 497 -16 b 52 489 224 -16 52 179 l 52 490 b 497 994 52 799 224 994 b 941 490 770 994 941 799 l 941 489 b 497 -16 941 179 770 -16 m 497 71 b 846 489 713 71 846 235 l 846 490 b 497 908 846 746 711 908 b 146 490 283 908 146 747 l 146 489 b 497 71 146 233 282 71 "},"Ö":{"ha":994,"x_min":0,"x_max":0,"o":"m 380 1099 b 327 1152 351 1099 327 1122 b 380 1206 327 1183 351 1206 b 434 1152 410 1206 434 1183 b 380 1099 434 1122 410 1099 m 612 1099 b 558 1152 583 1099 558 1122 b 612 1206 558 1183 583 1206 b 666 1152 642 1206 666 1183 b 612 1099 666 1122 642 1099 m 497 -16 b 52 489 224 -16 52 179 l 52 490 b 497 994 52 799 224 994 b 941 490 770 994 941 799 l 941 489 b 497 -16 941 179 770 -16 m 497 71 b 846 489 713 71 846 235 l 846 490 b 497 908 846 746 711 908 b 146 490 283 908 146 747 l 146 489 b 497 71 146 233 282 71 "},"Õ":{"ha":994,"x_min":0,"x_max":0,"o":"m 587 1062 b 498 1101 550 1062 522 1080 l 475 1123 b 414 1160 454 1143 435 1160 b 373 1070 385 1160 373 1131 l 373 1063 l 310 1063 l 310 1072 b 406 1228 310 1175 344 1228 b 492 1188 441 1228 469 1210 l 515 1166 b 578 1130 537 1147 557 1130 b 619 1219 608 1130 619 1159 l 619 1227 l 683 1227 l 683 1218 b 587 1062 683 1115 648 1062 m 497 -16 b 52 489 224 -16 52 179 l 52 490 b 497 994 52 799 224 994 b 941 490 770 994 941 799 l 941 489 b 497 -16 941 179 770 -16 m 497 71 b 846 489 713 71 846 235 l 846 490 b 497 908 846 746 711 908 b 146 490 283 908 146 747 l 146 489 b 497 71 146 233 282 71 "},"Ó":{"ha":994,"x_min":0,"x_max":0,"o":"m 452 1055 l 562 1249 l 656 1249 l 522 1055 m 497 -16 b 52 489 224 -16 52 179 l 52 490 b 497 994 52 799 224 994 b 941 490 770 994 941 799 l 941 489 b 497 -16 941 179 770 -16 m 497 71 b 846 489 713 71 846 235 l 846 490 b 497 908 846 746 711 908 b 146 490 283 908 146 747 l 146 489 b 497 71 146 233 282 71 "},"Ô":{"ha":994,"x_min":0,"x_max":0,"o":"m 456 1247 l 536 1247 l 683 1058 l 604 1058 l 496 1199 l 389 1058 l 310 1058 m 497 -16 b 52 489 224 -16 52 179 l 52 490 b 497 994 52 799 224 994 b 941 490 770 994 941 799 l 941 489 b 497 -16 941 179 770 -16 m 497 71 b 846 489 713 71 846 235 l 846 490 b 497 908 846 746 711 908 b 146 490 283 908 146 747 l 146 489 b 497 71 146 233 282 71 "},"Ò":{"ha":994,"x_min":0,"x_max":0,"o":"m 340 1249 l 435 1249 l 544 1055 l 473 1055 m 497 -16 b 52 489 224 -16 52 179 l 52 490 b 497 994 52 799 224 994 b 941 490 770 994 941 799 l 941 489 b 497 -16 941 179 770 -16 m 497 71 b 846 489 713 71 846 235 l 846 490 b 497 908 846 746 711 908 b 146 490 283 908 146 747 l 146 489 b 497 71 146 233 282 71 "},"Ổ":{"ha":994,"x_min":0,"x_max":0,"o":"m 589 1174 b 620 1229 610 1193 620 1212 b 568 1269 620 1255 600 1269 b 548 1267 561 1269 553 1267 l 548 1322 b 589 1328 559 1325 574 1328 b 684 1249 646 1328 684 1296 b 642 1172 684 1217 667 1192 l 589 1172 m 535 1161 l 672 1029 l 592 1029 l 496 1122 l 400 1029 l 321 1029 l 458 1161 m 497 -16 b 52 489 224 -16 52 179 l 52 490 b 497 994 52 799 224 994 b 941 490 770 994 941 799 l 941 489 b 497 -16 941 179 770 -16 m 497 71 b 846 489 713 71 846 235 l 846 490 b 497 908 846 746 711 908 b 146 490 283 908 146 747 l 146 489 b 497 71 146 233 282 71 "},"Ồ":{"ha":994,"x_min":0,"x_max":0,"o":"m 612 1195 l 476 1320 l 560 1320 l 677 1195 m 535 1161 l 672 1029 l 592 1029 l 496 1122 l 400 1029 l 321 1029 l 458 1161 m 497 -16 b 52 489 224 -16 52 179 l 52 490 b 497 994 52 799 224 994 b 941 490 770 994 941 799 l 941 489 b 497 -16 941 179 770 -16 m 497 71 b 846 489 713 71 846 235 l 846 490 b 497 908 846 746 711 908 b 146 490 283 908 146 747 l 146 489 b 497 71 146 233 282 71 "},"Ọ":{"ha":994,"x_min":0,"x_max":0,"o":"m 497 -16 b 52 489 224 -16 52 179 l 52 490 b 497 994 52 799 224 994 b 941 490 770 994 941 799 l 941 489 b 497 -16 941 179 770 -16 m 497 71 b 846 489 713 71 846 235 l 846 490 b 497 908 846 746 711 908 b 146 490 283 908 146 747 l 146 489 b 497 71 146 233 282 71 m 497 -246 b 437 -187 464 -246 437 -220 b 497 -127 437 -153 464 -127 b 556 -187 530 -127 556 -153 b 497 -246 556 -220 530 -246 "},"Ȍ":{"ha":994,"x_min":0,"x_max":0,"o":"m 227 1249 l 320 1249 l 444 1055 l 373 1055 m 439 1249 l 533 1249 l 643 1055 l 572 1055 m 497 -16 b 52 489 224 -16 52 179 l 52 490 b 497 994 52 799 224 994 b 941 490 770 994 941 799 l 941 489 b 497 -16 941 179 770 -16 m 497 71 b 846 489 713 71 846 235 l 846 490 b 497 908 846 746 711 908 b 146 490 283 908 146 747 l 146 489 b 497 71 146 233 282 71 "},"Ṍ":{"ha":994,"x_min":0,"x_max":0,"o":"m 564 1322 l 648 1322 l 513 1197 l 448 1197 m 578 1038 b 492 1067 547 1038 519 1047 l 475 1080 b 422 1102 454 1095 439 1102 b 384 1041 397 1102 384 1082 l 384 1038 l 324 1038 l 324 1044 b 415 1160 324 1121 360 1160 b 499 1130 445 1160 473 1149 l 517 1117 b 571 1096 538 1101 553 1096 b 609 1156 597 1096 609 1116 l 609 1160 l 669 1160 l 669 1153 b 578 1038 669 1076 633 1038 m 497 -16 b 52 489 224 -16 52 179 l 52 490 b 497 994 52 799 224 994 b 941 490 770 994 941 799 l 941 489 b 497 -16 941 179 770 -16 m 497 71 b 846 489 713 71 846 235 l 846 490 b 497 908 846 746 711 908 b 146 490 283 908 146 747 l 146 489 b 497 71 146 233 282 71 "},"Ṓ":{"ha":994,"x_min":0,"x_max":0,"o":"m 564 1311 l 648 1311 l 513 1185 l 448 1185 m 326 1122 l 667 1122 l 667 1058 l 326 1058 m 497 -16 b 52 489 224 -16 52 179 l 52 490 b 497 994 52 799 224 994 b 941 490 770 994 941 799 l 941 489 b 497 -16 941 179 770 -16 m 497 71 b 846 489 713 71 846 235 l 846 490 b 497 908 846 746 711 908 b 146 490 283 908 146 747 l 146 489 b 497 71 146 233 282 71 "},"Ỗ":{"ha":994,"x_min":0,"x_max":0,"o":"m 578 1193 b 492 1223 547 1193 519 1202 l 475 1236 b 422 1257 454 1251 439 1257 b 384 1197 397 1257 384 1237 l 384 1194 l 324 1194 l 324 1200 b 415 1316 324 1277 360 1316 b 499 1286 445 1316 473 1305 l 517 1272 b 571 1251 538 1257 553 1251 b 609 1312 597 1251 609 1271 l 609 1315 l 669 1315 l 669 1309 b 578 1193 669 1232 633 1193 m 535 1161 l 672 1029 l 592 1029 l 496 1122 l 400 1029 l 321 1029 l 458 1161 m 497 -16 b 52 489 224 -16 52 179 l 52 490 b 497 994 52 799 224 994 b 941 490 770 994 941 799 l 941 489 b 497 -16 941 179 770 -16 m 497 71 b 846 489 713 71 846 235 l 846 490 b 497 908 846 746 711 908 b 146 490 283 908 146 747 l 146 489 b 497 71 146 233 282 71 "},"Ȱ":{"ha":994,"x_min":0,"x_max":0,"o":"m 326 1268 l 667 1268 l 667 1204 l 326 1204 m 496 1046 b 446 1097 469 1046 446 1069 l 446 1098 b 496 1147 446 1126 468 1147 l 497 1147 b 547 1098 525 1147 547 1126 l 547 1097 b 497 1046 547 1069 525 1046 l 496 1046 m 497 -16 b 52 489 224 -16 52 179 l 52 490 b 497 994 52 799 224 994 b 941 490 770 994 941 799 l 941 489 b 497 -16 941 179 770 -16 m 497 71 b 846 489 713 71 846 235 l 846 490 b 497 908 846 746 711 908 b 146 490 283 908 146 747 l 146 489 b 497 71 146 233 282 71 "},"Ṑ":{"ha":994,"x_min":0,"x_max":0,"o":"m 480 1185 l 345 1311 l 429 1311 l 545 1185 m 326 1122 l 667 1122 l 667 1058 l 326 1058 m 497 -16 b 52 489 224 -16 52 179 l 52 490 b 497 994 52 799 224 994 b 941 490 770 994 941 799 l 941 489 b 497 -16 941 179 770 -16 m 497 71 b 846 489 713 71 846 235 l 846 490 b 497 908 846 746 711 908 b 146 490 283 908 146 747 l 146 489 b 497 71 146 233 282 71 "},"Ǒ":{"ha":994,"x_min":0,"x_max":0,"o":"m 537 1058 l 456 1058 l 310 1247 l 389 1247 l 496 1106 l 604 1247 l 683 1247 m 497 -16 b 52 489 224 -16 52 179 l 52 490 b 497 994 52 799 224 994 b 941 490 770 994 941 799 l 941 489 b 497 -16 941 179 770 -16 m 497 71 b 846 489 713 71 846 235 l 846 490 b 497 908 846 746 711 908 b 146 490 283 908 146 747 l 146 489 b 497 71 146 233 282 71 "},"Ő":{"ha":994,"x_min":0,"x_max":0,"o":"m 351 1055 l 448 1249 l 541 1249 l 422 1055 m 550 1055 l 660 1249 l 753 1249 l 621 1055 m 497 -16 b 52 489 224 -16 52 179 l 52 490 b 497 994 52 799 224 994 b 941 490 770 994 941 799 l 941 489 b 497 -16 941 179 770 -16 m 497 71 b 846 489 713 71 846 235 l 846 490 b 497 908 846 746 711 908 b 146 490 283 908 146 747 l 146 489 b 497 71 146 233 282 71 "},"Ŏ":{"ha":994,"x_min":0,"x_max":0,"o":"m 497 1057 b 317 1234 387 1057 317 1127 l 317 1239 l 383 1239 l 383 1236 b 497 1120 383 1171 424 1120 b 610 1236 569 1120 610 1171 l 610 1239 l 676 1239 l 676 1234 b 497 1057 676 1127 607 1057 m 497 -16 b 52 489 224 -16 52 179 l 52 490 b 497 994 52 799 224 994 b 941 490 770 994 941 799 l 941 489 b 497 -16 941 179 770 -16 m 497 71 b 846 489 713 71 846 235 l 846 490 b 497 908 846 746 711 908 b 146 490 283 908 146 747 l 146 489 b 497 71 146 233 282 71 "},"Ȏ":{"ha":994,"x_min":0,"x_max":0,"o":"m 496 1239 b 676 1062 607 1239 676 1168 l 676 1057 l 610 1057 l 610 1059 b 496 1175 610 1124 569 1175 b 383 1059 424 1175 383 1124 l 383 1057 l 317 1057 l 317 1062 b 496 1239 317 1168 387 1239 m 497 -16 b 52 489 224 -16 52 179 l 52 490 b 497 994 52 799 224 994 b 941 490 770 994 941 799 l 941 489 b 497 -16 941 179 770 -16 m 497 71 b 846 489 713 71 846 235 l 846 490 b 497 908 846 746 711 908 b 146 490 283 908 146 747 l 146 489 b 497 71 146 233 282 71 "},"Ỏ":{"ha":994,"x_min":0,"x_max":0,"o":"m 456 1057 b 519 1142 498 1088 519 1116 b 438 1194 519 1174 486 1194 b 397 1192 420 1194 406 1193 l 397 1246 b 461 1255 411 1251 435 1255 b 589 1156 532 1255 589 1215 b 524 1055 589 1116 566 1084 l 456 1055 m 497 -16 b 52 489 224 -16 52 179 l 52 490 b 497 994 52 799 224 994 b 941 490 770 994 941 799 l 941 489 b 497 -16 941 179 770 -16 m 497 71 b 846 489 713 71 846 235 l 846 490 b 497 908 846 746 711 908 b 146 490 283 908 146 747 l 146 489 b 497 71 146 233 282 71 "},"Ȫ":{"ha":994,"x_min":0,"x_max":0,"o":"m 326 1269 l 667 1269 l 667 1204 l 326 1204 m 610 1042 b 561 1092 583 1042 561 1064 l 561 1093 b 610 1141 561 1120 583 1141 l 612 1141 b 661 1093 640 1141 661 1120 l 661 1092 b 612 1042 661 1064 639 1042 l 610 1042 m 382 1042 b 332 1092 354 1042 332 1064 l 332 1093 b 382 1141 332 1120 354 1141 l 382 1141 b 432 1093 410 1141 432 1120 l 432 1092 b 382 1042 432 1064 410 1042 l 382 1042 m 497 -16 b 52 489 224 -16 52 179 l 52 490 b 497 994 52 799 224 994 b 941 490 770 994 941 799 l 941 489 b 497 -16 941 179 770 -16 m 497 71 b 846 489 713 71 846 235 l 846 490 b 497 908 846 746 711 908 b 146 490 283 908 146 747 l 146 489 b 497 71 146 233 282 71 "},"Ȭ":{"ha":994,"x_min":0,"x_max":0,"o":"m 326 1278 l 667 1278 l 667 1215 l 326 1215 m 578 1038 b 492 1067 547 1038 519 1047 l 475 1080 b 422 1102 454 1095 439 1102 b 384 1041 397 1102 384 1082 l 384 1038 l 324 1038 l 324 1044 b 415 1160 324 1121 360 1160 b 499 1130 445 1160 473 1149 l 517 1117 b 571 1096 538 1101 553 1096 b 609 1156 597 1096 609 1116 l 609 1160 l 669 1160 l 669 1153 b 578 1038 669 1076 633 1038 m 497 -16 b 52 489 224 -16 52 179 l 52 490 b 497 994 52 799 224 994 b 941 490 770 994 941 799 l 941 489 b 497 -16 941 179 770 -16 m 497 71 b 846 489 713 71 846 235 l 846 490 b 497 908 846 746 711 908 b 146 490 283 908 146 747 l 146 489 b 497 71 146 233 282 71 "},"Ȯ":{"ha":994,"x_min":0,"x_max":0,"o":"m 496 1099 b 439 1156 465 1099 439 1125 b 496 1213 439 1187 465 1213 b 553 1156 528 1213 553 1187 b 496 1099 553 1125 528 1099 m 497 -16 b 52 489 224 -16 52 179 l 52 490 b 497 994 52 799 224 994 b 941 490 770 994 941 799 l 941 489 b 497 -16 941 179 770 -16 m 497 71 b 846 489 713 71 846 235 l 846 490 b 497 908 846 746 711 908 b 146 490 283 908 146 747 l 146 489 b 497 71 146 233 282 71 "},"Ộ":{"ha":994,"x_min":0,"x_max":0,"o":"m 456 1247 l 536 1247 l 683 1058 l 604 1058 l 496 1199 l 389 1058 l 310 1058 m 497 -16 b 52 489 224 -16 52 179 l 52 490 b 497 994 52 799 224 994 b 941 490 770 994 941 799 l 941 489 b 497 -16 941 179 770 -16 m 497 71 b 846 489 713 71 846 235 l 846 490 b 497 908 846 746 711 908 b 146 490 283 908 146 747 l 146 489 b 497 71 146 233 282 71 m 497 -246 b 437 -187 464 -246 437 -220 b 497 -127 437 -153 464 -127 b 556 -187 530 -127 556 -153 b 497 -246 556 -220 530 -246 "},"Ố":{"ha":994,"x_min":0,"x_max":0,"o":"m 696 1320 l 780 1320 l 644 1195 l 579 1195 m 535 1161 l 672 1029 l 592 1029 l 496 1122 l 400 1029 l 321 1029 l 458 1161 m 497 -16 b 52 489 224 -16 52 179 l 52 490 b 497 994 52 799 224 994 b 941 490 770 994 941 799 l 941 489 b 497 -16 941 179 770 -16 m 497 71 b 846 489 713 71 846 235 l 846 490 b 497 908 846 746 711 908 b 146 490 283 908 146 747 l 146 489 b 497 71 146 233 282 71 "},"Ṏ":{"ha":994,"x_min":0,"x_max":0,"o":"m 610 1201 b 561 1251 583 1201 561 1223 l 561 1251 b 610 1300 561 1279 583 1300 l 612 1300 b 661 1251 640 1300 661 1279 l 661 1251 b 612 1201 661 1223 639 1201 l 610 1201 m 382 1201 b 332 1251 354 1201 332 1223 l 332 1251 b 382 1300 332 1279 354 1300 l 382 1300 b 432 1251 410 1300 432 1279 l 432 1251 b 382 1201 432 1223 410 1201 l 382 1201 m 578 1038 b 492 1067 547 1038 519 1047 l 475 1080 b 422 1102 454 1095 439 1102 b 384 1041 397 1102 384 1082 l 384 1038 l 324 1038 l 324 1044 b 415 1160 324 1121 360 1160 b 499 1130 445 1160 473 1149 l 517 1117 b 571 1096 538 1101 553 1096 b 609 1156 597 1096 609 1116 l 609 1160 l 669 1160 l 669 1153 b 578 1038 669 1076 633 1038 m 497 -16 b 52 489 224 -16 52 179 l 52 490 b 497 994 52 799 224 994 b 941 490 770 994 941 799 l 941 489 b 497 -16 941 179 770 -16 m 497 71 b 846 489 713 71 846 235 l 846 490 b 497 908 846 746 711 908 b 146 490 283 908 146 747 l 146 489 b 497 71 146 233 282 71 "},"Ō":{"ha":994,"x_min":0,"x_max":0,"o":"m 325 1186 l 668 1186 l 668 1119 l 325 1119 m 497 -16 b 52 489 224 -16 52 179 l 52 490 b 497 994 52 799 224 994 b 941 490 770 994 941 799 l 941 489 b 497 -16 941 179 770 -16 m 497 71 b 846 489 713 71 846 235 l 846 490 b 497 908 846 746 711 908 b 146 490 283 908 146 747 l 146 489 b 497 71 146 233 282 71 "},"Ǫ":{"ha":994,"x_min":0,"x_max":0,"o":"m 548 -309 b 408 -176 474 -309 408 -265 l 408 -175 b 488 -16 408 -117 436 -62 b 52 489 220 -11 52 182 l 52 490 b 497 994 52 799 224 994 b 941 490 770 994 941 799 l 941 489 b 574 -10 941 209 802 23 b 492 -157 519 -55 492 -101 l 492 -159 b 565 -245 492 -218 525 -245 b 611 -235 583 -245 598 -242 l 611 -297 b 548 -309 594 -306 567 -309 m 497 71 b 846 489 713 71 846 235 l 846 490 b 497 908 846 746 711 908 b 146 490 283 908 146 747 l 146 489 b 497 71 146 233 282 71 "},"Ǭ":{"ha":994,"x_min":0,"x_max":0,"o":"m 325 1186 l 668 1186 l 668 1119 l 325 1119 m 548 -309 b 408 -176 474 -309 408 -265 l 408 -175 b 488 -16 408 -117 436 -62 b 52 489 220 -11 52 182 l 52 490 b 497 994 52 799 224 994 b 941 490 770 994 941 799 l 941 489 b 574 -10 941 209 802 23 b 492 -157 519 -55 492 -101 l 492 -159 b 565 -245 492 -218 525 -245 b 611 -235 583 -245 598 -242 l 611 -297 b 548 -309 594 -306 567 -309 m 497 71 b 846 489 713 71 846 235 l 846 490 b 497 908 846 746 711 908 b 146 490 283 908 146 747 l 146 489 b 497 71 146 233 282 71 "},"Ơ":{"ha":994,"x_min":0,"x_max":0,"o":"m 497 -16 b 52 489 224 -16 52 179 l 52 490 b 496 994 52 799 224 994 b 770 1164 712 998 764 1040 l 850 1164 b 680 960 846 1044 810 985 b 941 490 844 890 941 722 l 941 489 b 497 -16 941 179 770 -16 m 497 71 b 846 489 713 71 846 235 l 846 490 b 497 908 846 746 711 908 b 146 490 283 908 146 747 l 146 489 b 497 71 146 233 282 71 "},"Ợ":{"ha":994,"x_min":0,"x_max":0,"o":"m 497 -16 b 52 489 224 -16 52 179 l 52 490 b 496 994 52 799 224 994 b 770 1164 712 998 764 1040 l 850 1164 b 680 960 846 1044 810 985 b 941 490 844 890 941 722 l 941 489 b 497 -16 941 179 770 -16 m 497 71 b 846 489 713 71 846 235 l 846 490 b 497 908 846 746 711 908 b 146 490 283 908 146 747 l 146 489 b 497 71 146 233 282 71 m 497 -246 b 437 -187 464 -246 437 -220 b 497 -127 437 -153 464 -127 b 556 -187 530 -127 556 -153 b 497 -246 556 -220 530 -246 "},"Ở":{"ha":994,"x_min":0,"x_max":0,"o":"m 422 1057 b 486 1142 465 1088 486 1116 b 405 1194 486 1174 453 1194 b 364 1192 387 1194 373 1193 l 364 1246 b 427 1255 378 1251 402 1255 b 555 1156 498 1255 555 1215 b 490 1055 555 1116 532 1084 l 422 1055 m 497 -16 b 52 489 224 -16 52 179 l 52 490 b 496 994 52 799 224 994 b 770 1164 712 998 764 1040 l 850 1164 b 680 960 846 1044 810 985 b 941 490 844 890 941 722 l 941 489 b 497 -16 941 179 770 -16 m 497 71 b 846 489 713 71 846 235 l 846 490 b 497 908 846 746 711 908 b 146 490 283 908 146 747 l 146 489 b 497 71 146 233 282 71 "},"Ỡ":{"ha":994,"x_min":0,"x_max":0,"o":"m 545 1062 b 465 1101 512 1062 486 1080 l 444 1123 b 389 1160 425 1143 408 1160 b 352 1070 363 1160 352 1131 l 352 1063 l 294 1063 l 294 1072 b 380 1228 294 1175 325 1228 b 459 1188 413 1228 438 1210 l 481 1166 b 537 1130 500 1147 517 1130 b 574 1219 564 1130 574 1159 l 574 1227 l 633 1227 l 633 1218 b 545 1062 633 1115 601 1062 m 497 -16 b 52 489 224 -16 52 179 l 52 490 b 496 994 52 799 224 994 b 814 1164 746 994 807 1036 l 894 1164 b 690 956 888 1038 847 977 b 941 490 848 884 941 718 l 941 489 b 497 -16 941 179 770 -16 m 497 71 b 846 489 713 71 846 235 l 846 490 b 497 908 846 746 711 908 b 146 490 283 908 146 747 l 146 489 b 497 71 146 233 282 71 "},"Ờ":{"ha":994,"x_min":0,"x_max":0,"o":"m 340 1249 l 435 1249 l 544 1055 l 473 1055 m 497 -16 b 52 489 224 -16 52 179 l 52 490 b 496 994 52 799 224 994 b 770 1164 712 998 764 1040 l 850 1164 b 680 960 846 1044 810 985 b 941 490 844 890 941 722 l 941 489 b 497 -16 941 179 770 -16 m 497 71 b 846 489 713 71 846 235 l 846 490 b 497 908 846 746 711 908 b 146 490 283 908 146 747 l 146 489 b 497 71 146 233 282 71 "},"Ớ":{"ha":994,"x_min":0,"x_max":0,"o":"m 418 1055 l 528 1249 l 622 1249 l 489 1055 m 497 -16 b 52 489 224 -16 52 179 l 52 490 b 496 994 52 799 224 994 b 770 1164 712 998 764 1040 l 850 1164 b 680 960 846 1044 810 985 b 941 490 844 890 941 722 l 941 489 b 497 -16 941 179 770 -16 m 497 71 b 846 489 713 71 846 235 l 846 490 b 497 908 846 746 711 908 b 146 490 283 908 146 747 l 146 489 b 497 71 146 233 282 71 "},"Ø":{"ha":991,"x_min":0,"x_max":0,"o":"m 496 -16 b 206 86 378 -16 280 20 l 111 -28 l 56 18 l 157 139 b 52 489 90 225 52 345 l 52 490 b 495 994 52 799 224 994 b 785 892 612 994 711 958 l 880 1006 l 935 960 l 834 840 b 938 490 901 753 938 634 l 938 489 b 496 -16 938 179 768 -16 m 141 489 b 216 210 141 376 168 281 l 728 824 b 496 910 668 880 589 910 b 141 490 279 910 141 747 l 141 489 m 496 68 b 849 489 714 68 849 234 l 849 490 b 774 768 849 603 823 698 l 263 155 b 496 68 323 99 401 68 "},"Ǿ":{"ha":991,"x_min":0,"x_max":0,"o":"m 450 1055 l 560 1249 l 654 1249 l 521 1055 m 496 -16 b 206 86 378 -16 280 20 l 111 -28 l 56 18 l 157 139 b 52 489 90 225 52 345 l 52 490 b 495 994 52 799 224 994 b 785 892 612 994 711 958 l 880 1006 l 935 960 l 834 840 b 938 490 901 753 938 634 l 938 489 b 496 -16 938 179 768 -16 m 141 489 b 216 210 141 376 168 281 l 728 824 b 496 910 668 880 589 910 b 141 490 279 910 141 747 l 141 489 m 496 68 b 849 489 714 68 849 234 l 849 490 b 774 768 849 603 823 698 l 263 155 b 496 68 323 99 401 68 "},"Ɵ":{"ha":994,"x_min":0,"x_max":0,"o":"m 497 -16 b 52 489 224 -16 52 179 l 52 490 b 497 994 52 799 224 994 b 941 490 770 994 941 799 l 941 489 b 497 -16 941 179 770 -16 m 497 908 b 149 538 296 908 164 766 l 845 538 b 497 908 829 766 697 908 m 497 71 b 846 460 705 71 836 222 l 147 460 b 497 71 157 220 291 71 "},"P":{"ha":780,"x_min":0,"x_max":0,"o":"m 92 979 l 425 979 b 739 675 611 979 739 857 l 739 674 b 425 369 739 492 611 369 l 184 369 l 184 0 l 92 0 m 184 896 l 184 452 l 403 452 b 644 673 553 452 644 535 l 644 675 b 403 896 644 812 553 896 "},"Ṗ":{"ha":780,"x_min":0,"x_max":0,"o":"m 333 1099 b 277 1156 302 1099 277 1125 b 333 1213 277 1187 302 1213 b 390 1156 364 1213 390 1187 b 333 1099 390 1125 364 1099 m 92 979 l 425 979 b 739 675 611 979 739 857 l 739 674 b 425 369 739 492 611 369 l 184 369 l 184 0 l 92 0 m 184 896 l 184 452 l 403 452 b 644 673 553 452 644 535 l 644 675 b 403 896 644 812 553 896 "},"Ṕ":{"ha":780,"x_min":0,"x_max":0,"o":"m 289 1055 l 399 1249 l 492 1249 l 359 1055 m 92 979 l 425 979 b 739 675 611 979 739 857 l 739 674 b 425 369 739 492 611 369 l 184 369 l 184 0 l 92 0 m 184 896 l 184 452 l 403 452 b 644 673 553 452 644 535 l 644 675 b 403 896 644 812 553 896 "},"Q":{"ha":994,"x_min":0,"x_max":0,"o":"m 497 -16 b 52 489 224 -16 52 179 l 52 490 b 497 994 52 799 224 994 b 941 490 770 994 941 799 l 941 489 b 754 60 941 294 873 144 l 882 -115 l 777 -115 l 680 19 b 497 -16 626 -3 565 -16 m 497 71 b 626 93 545 71 587 78 l 498 268 l 603 268 l 701 134 b 846 489 793 205 846 329 l 846 490 b 497 908 846 746 711 908 b 147 490 283 908 147 747 l 147 489 b 497 71 147 233 282 71 "},"R":{"ha":809,"x_min":0,"x_max":0,"o":"m 92 979 l 437 979 b 750 692 628 979 750 867 l 750 691 b 541 416 750 553 671 450 l 778 0 l 669 0 l 444 401 b 425 401 439 401 431 401 l 184 401 l 184 0 l 92 0 m 429 483 b 654 689 571 483 654 559 l 654 690 b 426 896 654 819 568 896 l 184 896 l 184 483 "},"Ř":{"ha":809,"x_min":0,"x_max":0,"o":"m 431 1058 l 351 1058 l 205 1247 l 283 1247 l 391 1106 l 499 1247 l 577 1247 m 92 979 l 437 979 b 750 692 628 979 750 867 l 750 691 b 541 416 750 553 671 450 l 778 0 l 669 0 l 444 401 b 425 401 439 401 431 401 l 184 401 l 184 0 l 92 0 m 429 483 b 654 689 571 483 654 559 l 654 690 b 426 896 654 819 568 896 l 184 896 l 184 483 "},"Ṟ":{"ha":809,"x_min":0,"x_max":0,"o":"m 92 979 l 437 979 b 750 692 628 979 750 867 l 750 691 b 541 416 750 553 671 450 l 778 0 l 669 0 l 444 401 b 425 401 439 401 431 401 l 184 401 l 184 0 l 92 0 m 429 483 b 654 689 571 483 654 559 l 654 690 b 426 896 654 819 568 896 l 184 896 l 184 483 m 229 -147 l 587 -147 l 587 -215 l 229 -215 "},"Ṝ":{"ha":809,"x_min":0,"x_max":0,"o":"m 219 1186 l 562 1186 l 562 1119 l 219 1119 m 92 979 l 437 979 b 750 692 628 979 750 867 l 750 691 b 541 416 750 553 671 450 l 778 0 l 669 0 l 444 401 b 425 401 439 401 431 401 l 184 401 l 184 0 l 92 0 m 429 483 b 654 689 571 483 654 559 l 654 690 b 426 896 654 819 568 896 l 184 896 l 184 483 m 408 -246 b 349 -187 376 -246 349 -220 b 408 -127 349 -153 376 -127 b 468 -187 441 -127 468 -153 b 408 -246 468 -220 441 -246 "},"Ȑ":{"ha":809,"x_min":0,"x_max":0,"o":"m 121 1249 l 215 1249 l 338 1055 l 267 1055 m 334 1249 l 427 1249 l 537 1055 l 467 1055 m 92 979 l 437 979 b 750 692 628 979 750 867 l 750 691 b 541 416 750 553 671 450 l 778 0 l 669 0 l 444 401 b 425 401 439 401 431 401 l 184 401 l 184 0 l 92 0 m 429 483 b 654 689 571 483 654 559 l 654 690 b 426 896 654 819 568 896 l 184 896 l 184 483 "},"Ȓ":{"ha":809,"x_min":0,"x_max":0,"o":"m 391 1239 b 571 1062 501 1239 571 1168 l 571 1057 l 505 1057 l 505 1059 b 391 1175 505 1124 464 1175 b 277 1059 319 1175 277 1124 l 277 1057 l 212 1057 l 212 1062 b 391 1239 212 1168 281 1239 m 92 979 l 437 979 b 750 692 628 979 750 867 l 750 691 b 541 416 750 553 671 450 l 778 0 l 669 0 l 444 401 b 425 401 439 401 431 401 l 184 401 l 184 0 l 92 0 m 429 483 b 654 689 571 483 654 559 l 654 690 b 426 896 654 819 568 896 l 184 896 l 184 483 "},"Ŕ":{"ha":809,"x_min":0,"x_max":0,"o":"m 347 1055 l 456 1249 l 550 1249 l 417 1055 m 92 979 l 437 979 b 750 692 628 979 750 867 l 750 691 b 541 416 750 553 671 450 l 778 0 l 669 0 l 444 401 b 425 401 439 401 431 401 l 184 401 l 184 0 l 92 0 m 429 483 b 654 689 571 483 654 559 l 654 690 b 426 896 654 819 568 896 l 184 896 l 184 483 "},"Ṛ":{"ha":809,"x_min":0,"x_max":0,"o":"m 92 979 l 437 979 b 750 692 628 979 750 867 l 750 691 b 541 416 750 553 671 450 l 778 0 l 669 0 l 444 401 b 425 401 439 401 431 401 l 184 401 l 184 0 l 92 0 m 429 483 b 654 689 571 483 654 559 l 654 690 b 426 896 654 819 568 896 l 184 896 l 184 483 m 408 -246 b 349 -187 376 -246 349 -220 b 408 -127 349 -153 376 -127 b 468 -187 441 -127 468 -153 b 408 -246 468 -220 441 -246 "},"Ṙ":{"ha":809,"x_min":0,"x_max":0,"o":"m 391 1099 b 334 1156 359 1099 334 1125 b 391 1213 334 1187 359 1213 b 447 1156 422 1213 447 1187 b 391 1099 447 1125 422 1099 m 92 979 l 437 979 b 750 692 628 979 750 867 l 750 691 b 541 416 750 553 671 450 l 778 0 l 669 0 l 444 401 b 425 401 439 401 431 401 l 184 401 l 184 0 l 92 0 m 429 483 b 654 689 571 483 654 559 l 654 690 b 426 896 654 819 568 896 l 184 896 l 184 483 "},"Ŗ":{"ha":809,"x_min":0,"x_max":0,"o":"m 92 979 l 437 979 b 750 692 628 979 750 867 l 750 691 b 541 416 750 553 671 450 l 778 0 l 669 0 l 444 401 b 425 401 439 401 431 401 l 184 401 l 184 0 l 92 0 m 429 483 b 654 689 571 483 654 559 l 654 690 b 426 896 654 819 568 896 l 184 896 l 184 483 m 363 -82 l 451 -82 l 364 -302 l 304 -302 "},"S":{"ha":801,"x_min":0,"x_max":0,"o":"m 406 -16 b 45 255 198 -16 57 90 l 44 264 l 137 264 l 138 255 b 410 71 151 142 256 71 b 663 256 564 71 663 143 l 663 257 b 451 441 663 353 602 407 l 344 465 b 68 728 154 507 68 589 l 68 729 b 402 994 69 884 208 994 b 739 724 591 994 728 884 l 740 714 l 647 714 l 646 723 b 399 908 632 838 538 908 b 163 732 258 908 163 837 l 163 730 b 368 553 163 640 227 584 l 475 528 b 758 261 676 484 758 406 l 758 260 b 406 -16 758 93 621 -16 "},"Š":{"ha":801,"x_min":0,"x_max":0,"o":"m 444 1058 l 363 1058 l 217 1247 l 295 1247 l 404 1106 l 511 1247 l 589 1247 m 406 -16 b 45 255 198 -16 57 90 l 44 264 l 137 264 l 138 255 b 410 71 151 142 256 71 b 663 256 564 71 663 143 l 663 257 b 451 441 663 353 602 407 l 344 465 b 68 728 154 507 68 589 l 68 729 b 402 994 69 884 208 994 b 739 724 591 994 728 884 l 740 714 l 647 714 l 646 723 b 399 908 632 838 538 908 b 163 732 258 908 163 837 l 163 730 b 368 553 163 640 227 584 l 475 528 b 758 261 676 484 758 406 l 758 260 b 406 -16 758 93 621 -16 "},"Ş":{"ha":801,"x_min":0,"x_max":0,"o":"m 398 -302 b 300 -283 358 -302 319 -294 l 300 -224 b 379 -239 317 -232 348 -239 b 454 -187 419 -239 454 -223 l 454 -186 b 363 -129 454 -147 421 -129 l 336 -129 l 336 -82 l 378 -15 b 45 255 185 -5 56 97 l 44 264 l 137 264 l 138 255 b 410 71 151 142 256 71 b 663 256 564 71 663 143 l 663 257 b 451 441 663 353 602 407 l 344 465 b 68 728 154 507 68 589 l 68 729 b 402 994 69 884 208 994 b 739 724 591 994 728 884 l 740 714 l 647 714 l 646 723 b 399 908 632 838 538 908 b 163 732 258 908 163 837 l 163 730 b 368 553 163 640 227 584 l 475 528 b 758 261 676 484 758 406 l 758 260 b 444 -14 758 103 637 -2 l 410 -71 b 534 -184 484 -74 534 -112 l 534 -185 b 398 -302 534 -260 470 -302 "},"Ṡ":{"ha":801,"x_min":0,"x_max":0,"o":"m 403 1099 b 346 1156 372 1099 346 1125 b 403 1213 346 1187 372 1213 b 459 1156 434 1213 459 1187 b 403 1099 459 1125 434 1099 m 406 -16 b 45 255 198 -16 57 90 l 44 264 l 137 264 l 138 255 b 410 71 151 142 256 71 b 663 256 564 71 663 143 l 663 257 b 451 441 663 353 602 407 l 344 465 b 68 728 154 507 68 589 l 68 729 b 402 994 69 884 208 994 b 739 724 591 994 728 884 l 740 714 l 647 714 l 646 723 b 399 908 632 838 538 908 b 163 732 258 908 163 837 l 163 730 b 368 553 163 640 227 584 l 475 528 b 758 261 676 484 758 406 l 758 260 b 406 -16 758 93 621 -16 "},"Ṣ":{"ha":801,"x_min":0,"x_max":0,"o":"m 406 -16 b 45 255 198 -16 57 90 l 44 264 l 137 264 l 138 255 b 410 71 151 142 256 71 b 663 256 564 71 663 143 l 663 257 b 451 441 663 353 602 407 l 344 465 b 68 728 154 507 68 589 l 68 729 b 402 994 69 884 208 994 b 739 724 591 994 728 884 l 740 714 l 647 714 l 646 723 b 399 908 632 838 538 908 b 163 732 258 908 163 837 l 163 730 b 368 553 163 640 227 584 l 475 528 b 758 261 676 484 758 406 l 758 260 b 406 -16 758 93 621 -16 m 408 -246 b 348 -187 375 -246 348 -220 b 408 -127 348 -153 375 -127 b 467 -187 441 -127 467 -153 b 408 -246 467 -220 441 -246 "},"Ș":{"ha":801,"x_min":0,"x_max":0,"o":"m 406 -16 b 45 255 198 -16 57 90 l 44 264 l 137 264 l 138 255 b 410 71 151 142 256 71 b 663 256 564 71 663 143 l 663 257 b 451 441 663 353 602 407 l 344 465 b 68 728 154 507 68 589 l 68 729 b 402 994 69 884 208 994 b 739 724 591 994 728 884 l 740 714 l 647 714 l 646 723 b 399 908 632 838 538 908 b 163 732 258 908 163 837 l 163 730 b 368 553 163 640 227 584 l 475 528 b 758 261 676 484 758 406 l 758 260 b 406 -16 758 93 621 -16 m 363 -82 l 451 -82 l 363 -302 l 304 -302 "},"Ṩ":{"ha":801,"x_min":0,"x_max":0,"o":"m 403 1099 b 346 1156 372 1099 346 1125 b 403 1213 346 1187 372 1213 b 459 1156 434 1213 459 1187 b 403 1099 459 1125 434 1099 m 406 -16 b 45 255 198 -16 57 90 l 44 264 l 137 264 l 138 255 b 410 71 151 142 256 71 b 663 256 564 71 663 143 l 663 257 b 451 441 663 353 602 407 l 344 465 b 68 728 154 507 68 589 l 68 729 b 402 994 69 884 208 994 b 739 724 591 994 728 884 l 740 714 l 647 714 l 646 723 b 399 908 632 838 538 908 b 163 732 258 908 163 837 l 163 730 b 368 553 163 640 227 584 l 475 528 b 758 261 676 484 758 406 l 758 260 b 406 -16 758 93 621 -16 m 408 -246 b 348 -187 375 -246 348 -220 b 408 -127 348 -153 375 -127 b 467 -187 441 -127 467 -153 b 408 -246 467 -220 441 -246 "},"Ṧ":{"ha":801,"x_min":0,"x_max":0,"o":"m 403 1195 b 352 1244 375 1195 352 1217 l 352 1246 b 403 1295 352 1274 374 1295 l 404 1295 b 453 1246 432 1295 453 1274 l 453 1244 b 404 1195 453 1217 431 1195 l 403 1195 m 365 1035 l 227 1168 l 307 1168 l 404 1075 l 499 1168 l 578 1168 l 442 1035 m 406 -16 b 45 255 198 -16 57 90 l 44 264 l 137 264 l 138 255 b 410 71 151 142 256 71 b 663 256 564 71 663 143 l 663 257 b 451 441 663 353 602 407 l 344 465 b 68 728 154 507 68 589 l 68 729 b 402 994 69 884 208 994 b 739 724 591 994 728 884 l 740 714 l 647 714 l 646 723 b 399 908 632 838 538 908 b 163 732 258 908 163 837 l 163 730 b 368 553 163 640 227 584 l 475 528 b 758 261 676 484 758 406 l 758 260 b 406 -16 758 93 621 -16 "},"Ŝ":{"ha":801,"x_min":0,"x_max":0,"o":"m 363 1247 l 443 1247 l 589 1058 l 511 1058 l 403 1199 l 295 1058 l 217 1058 m 406 -16 b 45 255 198 -16 57 90 l 44 264 l 137 264 l 138 255 b 410 71 151 142 256 71 b 663 256 564 71 663 143 l 663 257 b 451 441 663 353 602 407 l 344 465 b 68 728 154 507 68 589 l 68 729 b 402 994 69 884 208 994 b 739 724 591 994 728 884 l 740 714 l 647 714 l 646 723 b 399 908 632 838 538 908 b 163 732 258 908 163 837 l 163 730 b 368 553 163 640 227 584 l 475 528 b 758 261 676 484 758 406 l 758 260 b 406 -16 758 93 621 -16 "},"Ṥ":{"ha":801,"x_min":0,"x_max":0,"o":"m 454 1195 b 404 1244 427 1195 404 1217 l 404 1246 b 454 1295 404 1274 427 1295 l 455 1295 b 505 1246 484 1295 505 1274 l 505 1244 b 455 1195 505 1217 483 1195 l 454 1195 m 471 1160 l 555 1160 l 419 1035 l 354 1035 m 406 -16 b 45 255 198 -16 57 90 l 44 264 l 137 264 l 138 255 b 410 71 151 142 256 71 b 663 256 564 71 663 143 l 663 257 b 451 441 663 353 602 407 l 344 465 b 68 728 154 507 68 589 l 68 729 b 402 994 69 884 208 994 b 739 724 591 994 728 884 l 740 714 l 647 714 l 646 723 b 399 908 632 838 538 908 b 163 732 258 908 163 837 l 163 730 b 368 553 163 640 227 584 l 475 528 b 758 261 676 484 758 406 l 758 260 b 406 -16 758 93 621 -16 "},"Ś":{"ha":801,"x_min":0,"x_max":0,"o":"m 359 1055 l 468 1249 l 562 1249 l 429 1055 m 406 -16 b 45 255 198 -16 57 90 l 44 264 l 137 264 l 138 255 b 410 71 151 142 256 71 b 663 256 564 71 663 143 l 663 257 b 451 441 663 353 602 407 l 344 465 b 68 728 154 507 68 589 l 68 729 b 402 994 69 884 208 994 b 739 724 591 994 728 884 l 740 714 l 647 714 l 646 723 b 399 908 632 838 538 908 b 163 732 258 908 163 837 l 163 730 b 368 553 163 640 227 584 l 475 528 b 758 261 676 484 758 406 l 758 260 b 406 -16 758 93 621 -16 "},"ẞ":{"ha":926,"x_min":0,"x_max":0,"o":"m 591 -16 b 368 33 516 -16 437 1 l 368 125 b 588 71 447 86 517 71 b 788 258 709 71 788 144 l 788 259 b 551 462 788 368 713 433 l 458 479 l 458 551 l 724 849 b 471 908 635 889 554 908 b 184 632 294 908 184 817 l 184 0 l 92 0 l 92 642 b 473 994 92 871 241 994 b 825 901 581 994 701 962 l 825 831 l 562 540 l 599 532 b 883 260 793 493 883 407 l 883 259 b 591 -16 883 92 768 -16 "},"T":{"ha":790,"x_min":0,"x_max":0,"o":"m 349 895 l 26 895 l 26 979 l 765 979 l 765 895 l 441 895 l 441 0 l 349 0 "},"Ṱ":{"ha":790,"x_min":0,"x_max":0,"o":"m 349 895 l 26 895 l 26 979 l 765 979 l 765 895 l 441 895 l 441 0 l 349 0 m 355 -82 l 435 -82 l 589 -280 l 509 -280 l 395 -131 l 281 -280 l 201 -280 "},"Ṭ":{"ha":790,"x_min":0,"x_max":0,"o":"m 349 895 l 26 895 l 26 979 l 765 979 l 765 895 l 441 895 l 441 0 l 349 0 m 395 -246 b 336 -187 362 -246 336 -220 b 395 -127 336 -153 362 -127 b 455 -187 429 -127 455 -153 b 395 -246 455 -220 429 -246 "},"Ț":{"ha":790,"x_min":0,"x_max":0,"o":"m 349 895 l 26 895 l 26 979 l 765 979 l 765 895 l 441 895 l 441 0 l 349 0 m 351 -82 l 438 -82 l 351 -302 l 292 -302 "},"Ṫ":{"ha":790,"x_min":0,"x_max":0,"o":"m 395 1099 b 338 1156 364 1099 338 1125 b 395 1213 338 1187 364 1213 b 452 1156 426 1213 452 1187 b 395 1099 452 1125 426 1099 m 349 895 l 26 895 l 26 979 l 765 979 l 765 895 l 441 895 l 441 0 l 349 0 "},"Ţ":{"ha":790,"x_min":0,"x_max":0,"o":"m 349 895 l 26 895 l 26 979 l 765 979 l 765 895 l 441 895 l 441 0 l 399 -71 b 524 -184 473 -74 524 -112 l 524 -185 b 387 -302 524 -260 459 -302 b 290 -283 347 -302 309 -294 l 290 -224 b 368 -239 306 -232 337 -239 b 443 -187 408 -239 443 -223 l 443 -186 b 353 -129 443 -147 410 -129 l 326 -129 l 326 -82 l 376 0 l 349 0 "},"Ṯ":{"ha":790,"x_min":0,"x_max":0,"o":"m 349 895 l 26 895 l 26 979 l 765 979 l 765 895 l 441 895 l 441 0 l 349 0 m 216 -147 l 574 -147 l 574 -215 l 216 -215 "},"Ť":{"ha":790,"x_min":0,"x_max":0,"o":"m 435 1058 l 355 1058 l 209 1247 l 288 1247 l 395 1106 l 503 1247 l 582 1247 m 349 895 l 26 895 l 26 979 l 765 979 l 765 895 l 441 895 l 441 0 l 349 0 "},"Ŧ":{"ha":790,"x_min":0,"x_max":0,"o":"m 349 449 l 118 449 l 118 528 l 349 528 l 349 895 l 26 895 l 26 979 l 765 979 l 765 895 l 441 895 l 441 528 l 673 528 l 673 449 l 441 449 l 441 0 l 349 0 "},"U":{"ha":940,"x_min":0,"x_max":0,"o":"m 471 -16 b 92 342 235 -16 92 128 l 92 979 l 184 979 l 184 347 b 471 71 184 181 291 71 b 756 347 650 71 756 181 l 756 979 l 849 979 l 849 342 b 471 -16 849 128 706 -16 "},"Ù":{"ha":940,"x_min":0,"x_max":0,"o":"m 314 1249 l 408 1249 l 517 1055 l 447 1055 m 471 -16 b 92 342 235 -16 92 128 l 92 979 l 184 979 l 184 347 b 471 71 184 181 291 71 b 756 347 650 71 756 181 l 756 979 l 849 979 l 849 342 b 471 -16 849 128 706 -16 "},"Ȕ":{"ha":940,"x_min":0,"x_max":0,"o":"m 200 1249 l 294 1249 l 417 1055 l 347 1055 m 412 1249 l 507 1249 l 616 1055 l 545 1055 m 471 -16 b 92 342 235 -16 92 128 l 92 979 l 184 979 l 184 347 b 471 71 184 181 291 71 b 756 347 650 71 756 181 l 756 979 l 849 979 l 849 342 b 471 -16 849 128 706 -16 "},"Ú":{"ha":940,"x_min":0,"x_max":0,"o":"m 425 1055 l 535 1249 l 629 1249 l 496 1055 m 471 -16 b 92 342 235 -16 92 128 l 92 979 l 184 979 l 184 347 b 471 71 184 181 291 71 b 756 347 650 71 756 181 l 756 979 l 849 979 l 849 342 b 471 -16 849 128 706 -16 "},"Ű":{"ha":940,"x_min":0,"x_max":0,"o":"m 324 1055 l 420 1249 l 515 1249 l 395 1055 m 524 1055 l 633 1249 l 727 1249 l 594 1055 m 471 -16 b 92 342 235 -16 92 128 l 92 979 l 184 979 l 184 347 b 471 71 184 181 291 71 b 756 347 650 71 756 181 l 756 979 l 849 979 l 849 342 b 471 -16 849 128 706 -16 "},"Û":{"ha":940,"x_min":0,"x_max":0,"o":"m 429 1247 l 510 1247 l 656 1058 l 578 1058 l 470 1199 l 362 1058 l 283 1058 m 471 -16 b 92 342 235 -16 92 128 l 92 979 l 184 979 l 184 347 b 471 71 184 181 291 71 b 756 347 650 71 756 181 l 756 979 l 849 979 l 849 342 b 471 -16 849 128 706 -16 "},"Ǔ":{"ha":940,"x_min":0,"x_max":0,"o":"m 511 1058 l 430 1058 l 283 1247 l 362 1247 l 470 1106 l 578 1247 l 656 1247 m 471 -16 b 92 342 235 -16 92 128 l 92 979 l 184 979 l 184 347 b 471 71 184 181 291 71 b 756 347 650 71 756 181 l 756 979 l 849 979 l 849 342 b 471 -16 849 128 706 -16 "},"Ṷ":{"ha":940,"x_min":0,"x_max":0,"o":"m 471 -16 b 92 342 235 -16 92 128 l 92 979 l 184 979 l 184 347 b 471 71 184 181 291 71 b 756 347 650 71 756 181 l 756 979 l 849 979 l 849 342 b 471 -16 849 128 706 -16 m 429 -82 l 510 -82 l 664 -280 l 584 -280 l 470 -131 l 355 -280 l 275 -280 "},"Ü":{"ha":940,"x_min":0,"x_max":0,"o":"m 354 1099 b 300 1152 324 1099 300 1122 b 354 1206 300 1183 324 1206 b 408 1152 384 1206 408 1183 b 354 1099 408 1122 384 1099 m 585 1099 b 532 1152 556 1099 532 1122 b 585 1206 532 1183 556 1206 b 640 1152 616 1206 640 1183 b 585 1099 640 1122 616 1099 m 471 -16 b 92 342 235 -16 92 128 l 92 979 l 184 979 l 184 347 b 471 71 184 181 291 71 b 756 347 650 71 756 181 l 756 979 l 849 979 l 849 342 b 471 -16 849 128 706 -16 "},"Ǜ":{"ha":940,"x_min":0,"x_max":0,"o":"m 454 1187 l 318 1313 l 402 1313 l 519 1187 m 584 1042 b 534 1092 557 1042 534 1064 l 534 1093 b 584 1141 534 1120 557 1141 l 585 1141 b 634 1093 613 1141 634 1120 l 634 1092 b 585 1042 634 1064 612 1042 l 584 1042 m 355 1042 b 306 1092 328 1042 306 1064 l 306 1093 b 355 1141 306 1120 328 1141 l 356 1141 b 405 1093 384 1141 405 1120 l 405 1092 b 356 1042 405 1064 384 1042 l 355 1042 m 471 -16 b 92 342 235 -16 92 128 l 92 979 l 184 979 l 184 347 b 471 71 184 181 291 71 b 756 347 650 71 756 181 l 756 979 l 849 979 l 849 342 b 471 -16 849 128 706 -16 "},"Ǘ":{"ha":940,"x_min":0,"x_max":0,"o":"m 538 1313 l 621 1313 l 486 1187 l 421 1187 m 584 1042 b 534 1092 557 1042 534 1064 l 534 1093 b 584 1141 534 1120 557 1141 l 585 1141 b 634 1093 613 1141 634 1120 l 634 1092 b 585 1042 634 1064 612 1042 l 584 1042 m 355 1042 b 306 1092 328 1042 306 1064 l 306 1093 b 355 1141 306 1120 328 1141 l 356 1141 b 405 1093 384 1141 405 1120 l 405 1092 b 356 1042 405 1064 384 1042 l 355 1042 m 471 -16 b 92 342 235 -16 92 128 l 92 979 l 184 979 l 184 347 b 471 71 184 181 291 71 b 756 347 650 71 756 181 l 756 979 l 849 979 l 849 342 b 471 -16 849 128 706 -16 "},"Ǖ":{"ha":940,"x_min":0,"x_max":0,"o":"m 300 1269 l 640 1269 l 640 1204 l 300 1204 m 584 1042 b 534 1092 557 1042 534 1064 l 534 1093 b 584 1141 534 1120 557 1141 l 585 1141 b 634 1093 613 1141 634 1120 l 634 1092 b 585 1042 634 1064 612 1042 l 584 1042 m 355 1042 b 306 1092 328 1042 306 1064 l 306 1093 b 355 1141 306 1120 328 1141 l 356 1141 b 405 1093 384 1141 405 1120 l 405 1092 b 356 1042 405 1064 384 1042 l 355 1042 m 471 -16 b 92 342 235 -16 92 128 l 92 979 l 184 979 l 184 347 b 471 71 184 181 291 71 b 756 347 650 71 756 181 l 756 979 l 849 979 l 849 342 b 471 -16 849 128 706 -16 "},"Ǚ":{"ha":940,"x_min":0,"x_max":0,"o":"m 431 1183 l 294 1316 l 374 1316 l 470 1223 l 566 1316 l 646 1316 l 509 1183 m 584 1042 b 534 1092 557 1042 534 1064 l 534 1093 b 584 1141 534 1120 557 1141 l 585 1141 b 634 1093 613 1141 634 1120 l 634 1092 b 585 1042 634 1064 612 1042 l 584 1042 m 355 1042 b 306 1092 328 1042 306 1064 l 306 1093 b 355 1141 306 1120 328 1141 l 356 1141 b 405 1093 384 1141 405 1120 l 405 1092 b 356 1042 405 1064 384 1042 l 355 1042 m 471 -16 b 92 342 235 -16 92 128 l 92 979 l 184 979 l 184 347 b 471 71 184 181 291 71 b 756 347 650 71 756 181 l 756 979 l 849 979 l 849 342 b 471 -16 849 128 706 -16 "},"Ṳ":{"ha":940,"x_min":0,"x_max":0,"o":"m 471 -16 b 92 342 235 -16 92 128 l 92 979 l 184 979 l 184 347 b 471 71 184 181 291 71 b 756 347 650 71 756 181 l 756 979 l 849 979 l 849 342 b 471 -16 849 128 706 -16 m 347 -98 b 401 -153 376 -98 401 -123 b 347 -208 401 -184 376 -208 b 291 -153 315 -208 291 -184 b 347 -98 291 -123 315 -98 m 593 -98 b 649 -153 624 -98 649 -123 b 593 -208 649 -184 624 -208 b 539 -153 563 -208 539 -184 b 593 -98 539 -123 563 -98 "},"Ṵ":{"ha":940,"x_min":0,"x_max":0,"o":"m 471 -16 b 92 342 235 -16 92 128 l 92 979 l 184 979 l 184 347 b 471 71 184 181 291 71 b 756 347 650 71 756 181 l 756 979 l 849 979 l 849 342 b 471 -16 849 128 706 -16 m 565 -279 b 471 -237 526 -279 496 -260 l 448 -214 b 383 -175 425 -193 406 -175 b 340 -270 353 -175 340 -205 l 340 -277 l 275 -277 l 275 -269 b 374 -106 275 -161 311 -106 b 466 -149 412 -106 441 -125 l 490 -171 b 557 -210 513 -192 534 -210 b 600 -115 587 -210 600 -179 l 600 -107 l 665 -107 l 665 -117 b 565 -279 665 -224 629 -279 "},"Ủ":{"ha":940,"x_min":0,"x_max":0,"o":"m 429 1057 b 493 1142 472 1088 493 1116 b 412 1194 493 1174 460 1194 b 371 1192 393 1194 380 1193 l 371 1246 b 434 1255 385 1251 409 1255 b 562 1156 505 1255 562 1215 b 497 1055 562 1116 539 1084 l 429 1055 m 471 -16 b 92 342 235 -16 92 128 l 92 979 l 184 979 l 184 347 b 471 71 184 181 291 71 b 756 347 650 71 756 181 l 756 979 l 849 979 l 849 342 b 471 -16 849 128 706 -16 "},"Ŭ":{"ha":940,"x_min":0,"x_max":0,"o":"m 471 1057 b 290 1234 360 1057 290 1127 l 290 1239 l 357 1239 l 357 1236 b 471 1120 357 1171 397 1120 b 584 1236 543 1120 584 1171 l 584 1239 l 650 1239 l 650 1234 b 471 1057 650 1127 581 1057 m 471 -16 b 92 342 235 -16 92 128 l 92 979 l 184 979 l 184 347 b 471 71 184 181 291 71 b 756 347 650 71 756 181 l 756 979 l 849 979 l 849 342 b 471 -16 849 128 706 -16 "},"Ȗ":{"ha":940,"x_min":0,"x_max":0,"o":"m 470 1239 b 650 1062 581 1239 650 1168 l 650 1057 l 584 1057 l 584 1059 b 470 1175 584 1124 543 1175 b 357 1059 397 1175 357 1124 l 357 1057 l 290 1057 l 290 1062 b 470 1239 290 1168 360 1239 m 471 -16 b 92 342 235 -16 92 128 l 92 979 l 184 979 l 184 347 b 471 71 184 181 291 71 b 756 347 650 71 756 181 l 756 979 l 849 979 l 849 342 b 471 -16 849 128 706 -16 "},"Ṹ":{"ha":940,"x_min":0,"x_max":0,"o":"m 538 1322 l 621 1322 l 486 1197 l 421 1197 m 551 1038 b 466 1067 520 1038 493 1047 l 448 1080 b 395 1102 427 1095 412 1102 b 357 1041 370 1102 357 1082 l 357 1038 l 298 1038 l 298 1044 b 388 1160 298 1121 334 1160 b 473 1130 418 1160 446 1149 l 490 1117 b 545 1096 512 1101 527 1096 b 583 1156 570 1096 583 1116 l 583 1160 l 642 1160 l 642 1153 b 551 1038 642 1076 606 1038 m 471 -16 b 92 342 235 -16 92 128 l 92 979 l 184 979 l 184 347 b 471 71 184 181 291 71 b 756 347 650 71 756 181 l 756 979 l 849 979 l 849 342 b 471 -16 849 128 706 -16 "},"Ụ":{"ha":940,"x_min":0,"x_max":0,"o":"m 471 -16 b 92 342 235 -16 92 128 l 92 979 l 184 979 l 184 347 b 471 71 184 181 291 71 b 756 347 650 71 756 181 l 756 979 l 849 979 l 849 342 b 471 -16 849 128 706 -16 m 470 -246 b 410 -187 437 -246 410 -220 b 470 -127 410 -153 437 -127 b 530 -187 503 -127 530 -153 b 470 -246 530 -220 503 -246 "},"Ũ":{"ha":940,"x_min":0,"x_max":0,"o":"m 560 1062 b 471 1101 524 1062 495 1080 l 448 1123 b 387 1160 427 1143 408 1160 b 347 1070 358 1160 347 1131 l 347 1063 l 283 1063 l 283 1072 b 378 1228 283 1175 317 1228 b 466 1188 415 1228 442 1210 l 489 1166 b 552 1130 511 1147 530 1130 b 593 1219 581 1130 593 1159 l 593 1227 l 656 1227 l 656 1218 b 560 1062 656 1115 622 1062 m 471 -16 b 92 342 235 -16 92 128 l 92 979 l 184 979 l 184 347 b 471 71 184 181 291 71 b 756 347 650 71 756 181 l 756 979 l 849 979 l 849 342 b 471 -16 849 128 706 -16 "},"Ū":{"ha":940,"x_min":0,"x_max":0,"o":"m 298 1186 l 641 1186 l 641 1119 l 298 1119 m 471 -16 b 92 342 235 -16 92 128 l 92 979 l 184 979 l 184 347 b 471 71 184 181 291 71 b 756 347 650 71 756 181 l 756 979 l 849 979 l 849 342 b 471 -16 849 128 706 -16 "},"Ṻ":{"ha":940,"x_min":0,"x_max":0,"o":"m 584 1190 b 534 1239 557 1190 534 1211 l 534 1240 b 584 1289 534 1267 557 1289 l 585 1289 b 634 1240 613 1289 634 1267 l 634 1239 b 585 1190 634 1211 612 1190 l 584 1190 m 355 1190 b 306 1239 328 1190 306 1211 l 306 1240 b 355 1289 306 1267 328 1289 l 356 1289 b 405 1240 384 1289 405 1267 l 405 1239 b 356 1190 405 1211 384 1190 l 355 1190 m 300 1122 l 640 1122 l 640 1058 l 300 1058 m 471 -16 b 92 342 235 -16 92 128 l 92 979 l 184 979 l 184 347 b 471 71 184 181 291 71 b 756 347 650 71 756 181 l 756 979 l 849 979 l 849 342 b 471 -16 849 128 706 -16 "},"Ů":{"ha":940,"x_min":0,"x_max":0,"o":"m 472 1037 b 354 1152 406 1037 354 1088 l 354 1153 b 472 1268 354 1217 406 1268 b 589 1153 537 1268 589 1217 l 589 1152 b 472 1037 589 1088 537 1037 m 472 1090 b 534 1152 507 1090 534 1118 l 534 1153 b 472 1215 534 1187 507 1215 b 410 1153 436 1215 410 1187 l 410 1152 b 472 1090 410 1118 436 1090 m 471 -16 b 92 342 235 -16 92 128 l 92 979 l 184 979 l 184 347 b 471 71 184 181 291 71 b 756 347 650 71 756 181 l 756 979 l 849 979 l 849 342 b 471 -16 849 128 706 -16 "},"Ų":{"ha":940,"x_min":0,"x_max":0,"o":"m 519 -309 b 379 -176 446 -309 379 -265 l 379 -175 b 460 -16 379 -117 408 -62 b 92 342 231 -11 92 132 l 92 979 l 184 979 l 184 347 b 471 71 184 181 291 71 b 756 347 650 71 756 181 l 756 979 l 849 979 l 849 342 b 545 -10 849 152 736 17 b 463 -157 491 -56 463 -101 l 463 -159 b 536 -245 463 -218 496 -245 b 583 -235 554 -245 570 -242 l 583 -297 b 519 -309 566 -306 538 -309 "},"Ư":{"ha":940,"x_min":0,"x_max":0,"o":"m 471 -16 b 92 342 235 -16 92 128 l 92 979 l 184 979 l 184 347 b 471 71 184 181 291 71 b 756 347 650 71 756 181 l 756 979 b 899 1164 876 996 901 1036 l 979 1164 b 849 941 980 1028 953 972 l 849 342 b 471 -16 849 128 706 -16 "},"Ừ":{"ha":940,"x_min":0,"x_max":0,"o":"m 314 1249 l 408 1249 l 517 1055 l 447 1055 m 471 -16 b 92 342 235 -16 92 128 l 92 979 l 184 979 l 184 347 b 471 71 184 181 291 71 b 756 347 650 71 756 181 l 756 979 b 899 1164 876 996 901 1036 l 979 1164 b 849 941 980 1028 953 972 l 849 342 b 471 -16 849 128 706 -16 "},"Ứ":{"ha":940,"x_min":0,"x_max":0,"o":"m 425 1055 l 535 1249 l 629 1249 l 496 1055 m 471 -16 b 92 342 235 -16 92 128 l 92 979 l 184 979 l 184 347 b 471 71 184 181 291 71 b 756 347 650 71 756 181 l 756 979 b 899 1164 876 996 901 1036 l 979 1164 b 849 941 980 1028 953 972 l 849 342 b 471 -16 849 128 706 -16 "},"Ự":{"ha":940,"x_min":0,"x_max":0,"o":"m 471 -16 b 92 342 235 -16 92 128 l 92 979 l 184 979 l 184 347 b 471 71 184 181 291 71 b 756 347 650 71 756 181 l 756 979 b 899 1164 876 996 901 1036 l 979 1164 b 849 941 980 1028 953 972 l 849 342 b 471 -16 849 128 706 -16 m 470 -246 b 410 -187 437 -246 410 -220 b 470 -127 410 -153 437 -127 b 530 -187 503 -127 530 -153 b 470 -246 530 -220 503 -246 "},"Ử":{"ha":940,"x_min":0,"x_max":0,"o":"m 429 1057 b 493 1142 472 1088 493 1116 b 412 1194 493 1174 460 1194 b 371 1192 393 1194 380 1193 l 371 1246 b 434 1255 385 1251 409 1255 b 562 1156 505 1255 562 1215 b 497 1055 562 1116 539 1084 l 429 1055 m 471 -16 b 92 342 235 -16 92 128 l 92 979 l 184 979 l 184 347 b 471 71 184 181 291 71 b 756 347 650 71 756 181 l 756 979 b 899 1164 876 996 901 1036 l 979 1164 b 849 941 980 1028 953 972 l 849 342 b 471 -16 849 128 706 -16 "},"Ữ":{"ha":940,"x_min":0,"x_max":0,"o":"m 564 1062 b 485 1101 532 1062 505 1080 l 463 1123 b 408 1160 445 1143 427 1160 b 372 1070 382 1160 372 1131 l 372 1063 l 313 1063 l 313 1072 b 400 1228 313 1175 345 1228 b 479 1188 433 1228 458 1210 l 500 1166 b 557 1130 519 1147 537 1130 b 593 1219 583 1130 593 1159 l 593 1227 l 652 1227 l 652 1218 b 564 1062 652 1115 621 1062 m 471 -16 b 92 342 235 -16 92 128 l 92 979 l 184 979 l 184 347 b 471 71 184 181 291 71 b 756 347 650 71 756 181 l 756 979 b 899 1164 876 996 901 1036 l 979 1164 b 849 941 980 1028 953 972 l 849 342 b 471 -16 849 128 706 -16 "},"V":{"ha":856,"x_min":0,"x_max":0,"o":"m 16 979 l 114 979 l 427 113 l 429 113 l 743 979 l 840 979 l 474 0 l 382 0 "},"Ṽ":{"ha":856,"x_min":0,"x_max":0,"o":"m 518 1062 b 430 1101 482 1062 453 1080 l 406 1123 b 345 1160 386 1143 366 1160 b 304 1070 316 1160 304 1131 l 304 1063 l 241 1063 l 241 1072 b 337 1228 241 1175 275 1228 b 424 1188 373 1228 401 1210 l 447 1166 b 510 1130 469 1147 489 1130 b 551 1219 539 1130 551 1159 l 551 1227 l 614 1227 l 614 1218 b 518 1062 614 1115 580 1062 m 16 979 l 114 979 l 427 113 l 429 113 l 743 979 l 840 979 l 474 0 l 382 0 "},"Ṿ":{"ha":856,"x_min":0,"x_max":0,"o":"m 16 979 l 114 979 l 427 113 l 429 113 l 743 979 l 840 979 l 474 0 l 382 0 m 428 -246 b 368 -187 395 -246 368 -220 b 428 -127 368 -153 395 -127 b 488 -187 461 -127 488 -153 b 428 -246 488 -220 461 -246 "},"W":{"ha":1257,"x_min":0,"x_max":0,"o":"m 29 979 l 126 979 l 342 138 l 345 138 l 582 979 l 675 979 l 912 138 l 914 138 l 1131 979 l 1227 979 l 958 0 l 871 0 l 629 826 l 627 826 l 385 0 l 298 0 "},"Ẁ":{"ha":1257,"x_min":0,"x_max":0,"o":"m 473 1249 l 566 1249 l 676 1055 l 606 1055 m 29 979 l 126 979 l 342 138 l 345 138 l 582 979 l 675 979 l 912 138 l 914 138 l 1131 979 l 1227 979 l 958 0 l 871 0 l 629 826 l 627 826 l 385 0 l 298 0 "},"Ẃ":{"ha":1257,"x_min":0,"x_max":0,"o":"m 584 1055 l 694 1249 l 787 1249 l 654 1055 m 29 979 l 126 979 l 342 138 l 345 138 l 582 979 l 675 979 l 912 138 l 914 138 l 1131 979 l 1227 979 l 958 0 l 871 0 l 629 826 l 627 826 l 385 0 l 298 0 "},"Ẇ":{"ha":1257,"x_min":0,"x_max":0,"o":"m 628 1099 b 572 1156 597 1099 572 1125 b 628 1213 572 1187 597 1213 b 685 1156 660 1213 685 1187 b 628 1099 685 1125 660 1099 m 29 979 l 126 979 l 342 138 l 345 138 l 582 979 l 675 979 l 912 138 l 914 138 l 1131 979 l 1227 979 l 958 0 l 871 0 l 629 826 l 627 826 l 385 0 l 298 0 "},"Ẉ":{"ha":1257,"x_min":0,"x_max":0,"o":"m 29 979 l 126 979 l 342 138 l 345 138 l 582 979 l 675 979 l 912 138 l 914 138 l 1131 979 l 1227 979 l 958 0 l 871 0 l 629 826 l 627 826 l 385 0 l 298 0 m 629 -246 b 569 -187 596 -246 569 -220 b 629 -127 569 -153 596 -127 b 688 -187 662 -127 688 -153 b 629 -246 688 -220 662 -246 "},"Ẅ":{"ha":1257,"x_min":0,"x_max":0,"o":"m 513 1099 b 458 1152 483 1099 458 1122 b 513 1206 458 1183 483 1206 b 566 1152 543 1206 566 1183 b 513 1099 566 1122 543 1099 m 744 1099 b 690 1152 715 1099 690 1122 b 744 1206 690 1183 715 1206 b 798 1152 774 1206 798 1183 b 744 1099 798 1122 774 1099 m 29 979 l 126 979 l 342 138 l 345 138 l 582 979 l 675 979 l 912 138 l 914 138 l 1131 979 l 1227 979 l 958 0 l 871 0 l 629 826 l 627 826 l 385 0 l 298 0 "},"Ŵ":{"ha":1257,"x_min":0,"x_max":0,"o":"m 588 1247 l 669 1247 l 815 1058 l 736 1058 l 629 1199 l 521 1058 l 442 1058 m 29 979 l 126 979 l 342 138 l 345 138 l 582 979 l 675 979 l 912 138 l 914 138 l 1131 979 l 1227 979 l 958 0 l 871 0 l 629 826 l 627 826 l 385 0 l 298 0 "},"X":{"ha":857,"x_min":0,"x_max":0,"o":"m 370 490 l 370 493 l 33 979 l 144 979 l 430 562 l 433 562 l 721 979 l 827 979 l 484 489 l 484 487 l 822 0 l 711 0 l 426 414 l 422 414 l 135 0 l 29 0 "},"Ẋ":{"ha":857,"x_min":0,"x_max":0,"o":"m 431 1099 b 375 1156 401 1099 375 1125 b 431 1213 375 1187 401 1213 b 488 1156 463 1213 488 1187 b 431 1099 488 1125 463 1099 m 370 490 l 370 493 l 33 979 l 144 979 l 430 562 l 433 562 l 721 979 l 827 979 l 484 489 l 484 487 l 822 0 l 711 0 l 426 414 l 422 414 l 135 0 l 29 0 "},"Ẍ":{"ha":857,"x_min":0,"x_max":0,"o":"m 316 1099 b 262 1152 286 1099 262 1122 b 316 1206 262 1183 286 1206 b 370 1152 346 1206 370 1183 b 316 1099 370 1122 346 1099 m 548 1099 b 494 1152 518 1099 494 1122 b 548 1206 494 1183 518 1206 b 602 1152 578 1206 602 1183 b 548 1099 602 1122 578 1099 m 370 490 l 370 493 l 33 979 l 144 979 l 430 562 l 433 562 l 721 979 l 827 979 l 484 489 l 484 487 l 822 0 l 711 0 l 426 414 l 422 414 l 135 0 l 29 0 "},"Y":{"ha":826,"x_min":0,"x_max":0,"o":"m 367 423 l 16 979 l 122 979 l 411 514 l 415 514 l 704 979 l 810 979 l 459 423 l 459 0 l 367 0 "},"Ỳ":{"ha":826,"x_min":0,"x_max":0,"o":"m 257 1249 l 351 1249 l 460 1055 l 390 1055 m 367 423 l 16 979 l 122 979 l 411 514 l 415 514 l 704 979 l 810 979 l 459 423 l 459 0 l 367 0 "},"Ý":{"ha":826,"x_min":0,"x_max":0,"o":"m 368 1055 l 478 1249 l 572 1249 l 439 1055 m 367 423 l 16 979 l 122 979 l 411 514 l 415 514 l 704 979 l 810 979 l 459 423 l 459 0 l 367 0 "},"Ẏ":{"ha":826,"x_min":0,"x_max":0,"o":"m 412 1099 b 356 1156 382 1099 356 1125 b 412 1213 356 1187 382 1213 b 469 1156 444 1213 469 1187 b 412 1099 469 1125 444 1099 m 367 423 l 16 979 l 122 979 l 411 514 l 415 514 l 704 979 l 810 979 l 459 423 l 459 0 l 367 0 "},"Ỵ":{"ha":826,"x_min":0,"x_max":0,"o":"m 367 423 l 16 979 l 122 979 l 411 514 l 415 514 l 704 979 l 810 979 l 459 423 l 459 0 l 367 0 m 413 -246 b 353 -187 380 -246 353 -220 b 413 -127 353 -153 380 -127 b 473 -187 446 -127 473 -153 b 413 -246 473 -220 446 -246 "},"Ÿ":{"ha":826,"x_min":0,"x_max":0,"o":"m 297 1099 b 243 1152 267 1099 243 1122 b 297 1206 243 1183 267 1206 b 351 1152 328 1206 351 1183 b 297 1099 351 1122 328 1099 m 529 1099 b 475 1152 499 1099 475 1122 b 529 1206 475 1183 499 1206 b 583 1152 559 1206 583 1183 b 529 1099 583 1122 559 1099 m 367 423 l 16 979 l 122 979 l 411 514 l 415 514 l 704 979 l 810 979 l 459 423 l 459 0 l 367 0 "},"Ỹ":{"ha":826,"x_min":0,"x_max":0,"o":"m 503 1062 b 415 1101 467 1062 438 1080 l 391 1123 b 330 1160 371 1143 351 1160 b 290 1070 301 1160 290 1131 l 290 1063 l 227 1063 l 227 1072 b 322 1228 227 1175 260 1228 b 409 1188 358 1228 386 1210 l 432 1166 b 495 1130 454 1147 474 1130 b 536 1219 524 1130 536 1159 l 536 1227 l 600 1227 l 600 1218 b 503 1062 600 1115 565 1062 m 367 423 l 16 979 l 122 979 l 411 514 l 415 514 l 704 979 l 810 979 l 459 423 l 459 0 l 367 0 "},"Ŷ":{"ha":826,"x_min":0,"x_max":0,"o":"m 373 1247 l 453 1247 l 600 1058 l 521 1058 l 413 1199 l 305 1058 l 227 1058 m 367 423 l 16 979 l 122 979 l 411 514 l 415 514 l 704 979 l 810 979 l 459 423 l 459 0 l 367 0 "},"Ȳ":{"ha":826,"x_min":0,"x_max":0,"o":"m 241 1186 l 585 1186 l 585 1119 l 241 1119 m 367 423 l 16 979 l 122 979 l 411 514 l 415 514 l 704 979 l 810 979 l 459 423 l 459 0 l 367 0 "},"Ỷ":{"ha":826,"x_min":0,"x_max":0,"o":"m 372 1057 b 436 1142 415 1088 436 1116 b 355 1194 436 1174 403 1194 b 314 1192 336 1194 323 1193 l 314 1246 b 378 1255 328 1251 352 1255 b 505 1156 448 1255 505 1215 b 441 1055 505 1116 482 1084 l 372 1055 m 367 423 l 16 979 l 122 979 l 411 514 l 415 514 l 704 979 l 810 979 l 459 423 l 459 0 l 367 0 "},"Z":{"ha":830,"x_min":0,"x_max":0,"o":"m 59 67 l 648 892 l 648 895 l 78 895 l 78 979 l 764 979 l 764 911 l 177 87 l 177 84 l 772 84 l 772 0 l 59 0 "},"Ź":{"ha":830,"x_min":0,"x_max":0,"o":"m 371 1055 l 481 1249 l 574 1249 l 441 1055 m 59 67 l 648 892 l 648 895 l 78 895 l 78 979 l 764 979 l 764 911 l 177 87 l 177 84 l 772 84 l 772 0 l 59 0 "},"Ž":{"ha":830,"x_min":0,"x_max":0,"o":"m 456 1058 l 376 1058 l 229 1247 l 308 1247 l 416 1106 l 524 1247 l 602 1247 m 59 67 l 648 892 l 648 895 l 78 895 l 78 979 l 764 979 l 764 911 l 177 87 l 177 84 l 772 84 l 772 0 l 59 0 "},"Ẑ":{"ha":830,"x_min":0,"x_max":0,"o":"m 375 1247 l 456 1247 l 602 1058 l 524 1058 l 415 1199 l 308 1058 l 229 1058 m 59 67 l 648 892 l 648 895 l 78 895 l 78 979 l 764 979 l 764 911 l 177 87 l 177 84 l 772 84 l 772 0 l 59 0 "},"Ẕ":{"ha":830,"x_min":0,"x_max":0,"o":"m 59 67 l 648 892 l 648 895 l 78 895 l 78 979 l 764 979 l 764 911 l 177 87 l 177 84 l 772 84 l 772 0 l 59 0 m 237 -147 l 594 -147 l 594 -215 l 237 -215 "},"Ẓ":{"ha":830,"x_min":0,"x_max":0,"o":"m 59 67 l 648 892 l 648 895 l 78 895 l 78 979 l 764 979 l 764 911 l 177 87 l 177 84 l 772 84 l 772 0 l 59 0 m 415 -246 b 356 -187 382 -246 356 -220 b 415 -127 356 -153 382 -127 b 475 -187 448 -127 475 -153 b 415 -246 475 -220 448 -246 "},"Ż":{"ha":830,"x_min":0,"x_max":0,"o":"m 415 1099 b 359 1156 385 1099 359 1125 b 415 1213 359 1187 385 1213 b 472 1156 446 1213 472 1187 b 415 1099 472 1125 446 1099 m 59 67 l 648 892 l 648 895 l 78 895 l 78 979 l 764 979 l 764 911 l 177 87 l 177 84 l 772 84 l 772 0 l 59 0 "},"Æ":{"ha":1298,"x_min":0,"x_max":0,"o":"m 505 979 l 1232 979 l 1232 895 l 755 895 l 755 538 l 1206 538 l 1206 455 l 755 455 l 755 84 l 1232 84 l 1232 0 l 663 0 l 663 337 l 280 337 l 111 0 l 16 0 m 319 417 l 663 417 l 663 900 l 561 900 "},"Ǣ":{"ha":1298,"x_min":0,"x_max":0,"o":"m 690 1186 l 1033 1186 l 1033 1119 l 690 1119 m 505 979 l 1232 979 l 1232 895 l 755 895 l 755 538 l 1206 538 l 1206 455 l 755 455 l 755 84 l 1232 84 l 1232 0 l 663 0 l 663 337 l 280 337 l 111 0 l 16 0 m 319 417 l 663 417 l 663 900 l 561 900 "},"Ǽ":{"ha":1298,"x_min":0,"x_max":0,"o":"m 817 1055 l 927 1249 l 1021 1249 l 888 1055 m 505 979 l 1232 979 l 1232 895 l 755 895 l 755 538 l 1206 538 l 1206 455 l 755 455 l 755 84 l 1232 84 l 1232 0 l 663 0 l 663 337 l 280 337 l 111 0 l 16 0 m 319 417 l 663 417 l 663 900 l 561 900 "},"Œ":{"ha":1492,"x_min":0,"x_max":0,"o":"m 501 -16 b 52 488 225 -16 52 178 l 52 490 b 501 994 52 800 225 994 b 856 784 664 994 791 918 l 856 979 l 1432 979 l 1432 895 l 949 895 l 949 543 l 1406 543 l 1406 460 l 949 460 l 949 84 l 1432 84 l 1432 0 l 856 0 l 856 197 b 501 -16 791 62 663 -16 m 501 71 b 854 488 718 71 854 233 l 854 490 b 501 908 854 745 717 908 b 146 490 284 908 146 746 l 146 488 b 501 71 146 233 284 71 "},"Þ":{"ha":829,"x_min":0,"x_max":0,"o":"m 109 979 l 202 979 l 202 793 l 464 793 b 756 515 625 793 756 690 l 756 514 b 463 236 756 339 625 236 l 202 236 l 202 0 l 109 0 m 202 709 l 202 319 l 441 319 b 661 514 572 319 661 388 l 661 515 b 441 709 661 641 572 709 "},"Ǳ":{"ha":1755,"x_min":0,"x_max":0,"o":"m 92 979 l 409 979 b 873 490 701 979 873 800 l 873 489 b 409 0 873 180 702 0 l 92 0 m 983 67 l 1573 892 l 1573 895 l 1003 895 l 1003 979 l 1689 979 l 1689 911 l 1102 87 l 1102 84 l 1697 84 l 1697 0 l 983 0 m 404 84 b 779 488 644 84 779 229 l 779 490 b 404 895 779 750 644 895 l 184 895 l 184 84 "},"Ǆ":{"ha":1755,"x_min":0,"x_max":0,"o":"m 1381 1058 l 1301 1058 l 1154 1247 l 1232 1247 l 1341 1106 l 1449 1247 l 1527 1247 m 92 979 l 409 979 b 873 490 701 979 873 800 l 873 489 b 409 0 873 180 702 0 l 92 0 m 983 67 l 1573 892 l 1573 895 l 1003 895 l 1003 979 l 1689 979 l 1689 911 l 1102 87 l 1102 84 l 1697 84 l 1697 0 l 983 0 m 404 84 b 779 488 644 84 779 229 l 779 490 b 404 895 779 750 644 895 l 184 895 l 184 84 "},"Ǉ":{"ha":1383,"x_min":0,"x_max":0,"o":"m 92 979 l 184 979 l 184 84 l 674 84 l 674 0 l 92 0 m 1011 -16 b 743 227 842 -16 753 92 l 742 237 l 835 237 l 836 229 b 1011 71 844 144 896 71 b 1199 274 1131 71 1199 144 l 1199 979 l 1292 979 l 1292 272 b 1011 -16 1292 93 1186 -16 "},"Ǌ":{"ha":1614,"x_min":0,"x_max":0,"o":"m 92 979 l 183 979 l 758 157 l 762 157 l 762 979 l 853 979 l 853 0 l 762 0 l 186 822 l 183 822 l 183 0 l 92 0 m 1242 -16 b 974 227 1073 -16 983 92 l 973 237 l 1065 237 l 1066 229 b 1242 71 1074 144 1127 71 b 1430 274 1362 71 1430 144 l 1430 979 l 1522 979 l 1522 272 b 1242 -16 1522 93 1417 -16 "},"Α":{"ha":860,"x_min":0,"x_max":0,"o":"m 385 979 l 476 979 l 844 0 l 747 0 l 637 300 l 223 300 l 114 0 l 16 0 m 252 380 l 608 380 l 431 865 l 429 865 "},"Β":{"ha":817,"x_min":0,"x_max":0,"o":"m 92 979 l 440 979 b 726 737 612 979 726 882 l 726 736 b 541 515 726 628 650 532 l 541 513 b 777 269 680 496 777 404 l 777 268 b 439 0 777 102 656 0 l 92 0 m 184 897 l 184 544 l 395 544 b 632 727 543 544 632 611 l 632 728 b 420 897 632 833 553 897 m 184 464 l 184 82 l 427 82 b 682 271 595 82 682 151 l 682 273 b 418 464 682 395 585 464 "},"Γ":{"ha":706,"x_min":0,"x_max":0,"o":"m 92 0 l 92 979 l 663 979 l 663 895 l 184 895 l 184 0 "},"Δ":{"ha":870,"x_min":0,"x_max":0,"o":"m 34 66 l 389 979 l 481 979 l 836 66 l 836 0 l 34 0 m 732 84 l 732 88 l 437 869 l 433 869 l 139 88 l 139 84 "},"∆":{"ha":870,"x_min":0,"x_max":0,"o":"m 34 0 l 836 0 l 836 66 l 481 979 l 389 979 l 34 66 m 139 84 l 139 88 l 433 869 l 437 869 l 732 88 l 732 84 "},"Ε":{"ha":749,"x_min":0,"x_max":0,"o":"m 92 979 l 682 979 l 682 895 l 184 895 l 184 543 l 657 543 l 657 460 l 184 460 l 184 84 l 682 84 l 682 0 l 92 0 "},"Ζ":{"ha":830,"x_min":0,"x_max":0,"o":"m 59 67 l 648 892 l 648 895 l 78 895 l 78 979 l 764 979 l 764 911 l 177 87 l 177 84 l 772 84 l 772 0 l 59 0 "},"Η":{"ha":941,"x_min":0,"x_max":0,"o":"m 92 979 l 184 979 l 184 543 l 756 543 l 756 979 l 849 979 l 849 0 l 756 0 l 756 459 l 184 459 l 184 0 l 92 0 "},"Θ":{"ha":1000,"x_min":0,"x_max":0,"o":"m 501 -16 b 52 489 225 -16 52 179 l 52 490 b 500 994 52 799 226 994 b 948 490 776 994 948 799 l 948 489 b 501 -16 948 179 776 -16 m 500 71 b 857 489 721 71 857 235 l 857 490 b 500 908 857 746 719 908 b 143 490 281 908 143 747 l 143 489 b 500 71 143 233 281 71 m 300 530 l 699 530 l 699 450 l 300 450 "},"Ι":{"ha":275,"x_min":0,"x_max":0,"o":"m 92 979 l 184 979 l 184 0 l 92 0 "},"Κ":{"ha":806,"x_min":0,"x_max":0,"o":"m 92 979 l 184 979 l 184 469 l 188 469 l 641 979 l 758 979 l 369 546 l 798 0 l 679 0 l 304 480 l 184 349 l 184 0 l 92 0 "},"Λ":{"ha":829,"x_min":0,"x_max":0,"o":"m 368 979 l 460 979 l 812 0 l 715 0 l 416 859 l 412 859 l 114 0 l 16 0 "},"Μ":{"ha":1126,"x_min":0,"x_max":0,"o":"m 92 979 l 198 979 l 561 117 l 565 117 l 928 979 l 1034 979 l 1034 0 l 947 0 l 947 804 l 943 804 l 603 0 l 522 0 l 183 804 l 178 804 l 178 0 l 92 0 "},"Ν":{"ha":945,"x_min":0,"x_max":0,"o":"m 92 979 l 183 979 l 758 157 l 762 157 l 762 979 l 853 979 l 853 0 l 762 0 l 186 822 l 183 822 l 183 0 l 92 0 "},"Ξ":{"ha":827,"x_min":0,"x_max":0,"o":"m 60 979 l 767 979 l 767 895 l 60 895 m 113 543 l 715 543 l 715 460 l 113 460 m 60 84 l 767 84 l 767 0 l 60 0 "},"Ο":{"ha":994,"x_min":0,"x_max":0,"o":"m 497 -16 b 52 489 224 -16 52 179 l 52 490 b 497 994 52 799 224 994 b 941 490 770 994 941 799 l 941 489 b 497 -16 941 179 770 -16 m 497 71 b 846 489 713 71 846 235 l 846 490 b 497 908 846 746 711 908 b 146 490 283 908 146 747 l 146 489 b 497 71 146 233 282 71 "},"Π":{"ha":929,"x_min":0,"x_max":0,"o":"m 745 0 l 745 895 l 184 895 l 184 0 l 92 0 l 92 979 l 838 979 l 838 0 "},"Ρ":{"ha":780,"x_min":0,"x_max":0,"o":"m 92 979 l 425 979 b 739 675 611 979 739 857 l 739 674 b 425 369 739 492 611 369 l 184 369 l 184 0 l 92 0 m 184 896 l 184 452 l 403 452 b 644 673 553 452 644 535 l 644 675 b 403 896 644 812 553 896 "},"Ʃ":{"ha":812,"x_min":0,"x_max":0,"o":"m 59 67 l 357 495 l 71 905 l 71 979 l 741 979 l 741 895 l 186 895 l 186 890 l 458 503 l 458 499 l 172 88 l 172 84 l 753 84 l 753 0 l 59 0 "},"Σ":{"ha":812,"x_min":0,"x_max":0,"o":"m 59 0 l 753 0 l 753 84 l 172 84 l 172 88 l 458 499 l 458 503 l 186 890 l 186 895 l 741 895 l 741 979 l 71 979 l 71 905 l 357 495 l 59 67 "},"Τ":{"ha":790,"x_min":0,"x_max":0,"o":"m 349 895 l 26 895 l 26 979 l 765 979 l 765 895 l 441 895 l 441 0 l 349 0 "},"Υ":{"ha":826,"x_min":0,"x_max":0,"o":"m 367 423 l 16 979 l 122 979 l 411 514 l 415 514 l 704 979 l 810 979 l 459 423 l 459 0 l 367 0 "},"Φ":{"ha":1082,"x_min":0,"x_max":0,"o":"m 494 53 b 45 488 217 61 45 228 l 45 488 b 494 924 45 749 217 915 l 494 1014 l 587 1014 l 587 924 b 1037 488 865 915 1037 749 l 1037 488 b 587 53 1037 227 865 61 l 587 -39 l 494 -39 m 494 840 b 140 488 273 835 140 703 l 140 488 b 494 136 140 273 273 141 m 587 136 b 943 488 809 141 943 273 l 943 488 b 587 840 943 703 809 835 l 587 136 "},"Χ":{"ha":857,"x_min":0,"x_max":0,"o":"m 370 490 l 370 493 l 33 979 l 144 979 l 430 562 l 433 562 l 721 979 l 827 979 l 484 489 l 484 487 l 822 0 l 711 0 l 426 414 l 422 414 l 135 0 l 29 0 "},"Ψ":{"ha":1030,"x_min":0,"x_max":0,"o":"m 469 234 b 78 613 227 235 78 378 l 78 979 l 170 979 l 170 616 b 469 319 170 427 276 322 l 469 979 l 562 979 l 562 319 b 860 616 754 322 860 427 l 860 979 l 952 979 l 952 613 b 562 234 952 378 803 234 l 562 0 l 469 0 "},"Ω":{"ha":1029,"x_min":0,"x_max":0,"o":"m 72 84 l 317 84 l 317 88 b 70 533 158 184 70 340 l 70 534 b 515 994 70 804 250 994 b 959 534 780 994 959 804 l 959 533 b 711 88 959 340 871 184 l 711 84 l 958 84 l 958 0 l 602 0 l 602 104 b 865 531 781 209 865 343 l 865 532 b 515 908 865 758 728 908 b 165 532 301 908 165 758 l 165 531 b 427 104 165 343 248 209 l 427 0 l 72 0 "},"Ω":{"ha":1029,"x_min":0,"x_max":0,"o":"m 72 0 l 427 0 l 427 104 b 165 531 248 209 165 343 l 165 532 b 515 908 165 758 301 908 b 865 532 728 908 865 758 l 865 531 b 602 104 865 343 781 209 l 602 0 l 958 0 l 958 84 l 711 84 l 711 88 b 959 533 871 184 959 340 l 959 534 b 515 994 959 804 780 994 b 70 534 250 994 70 804 l 70 533 b 317 88 70 340 158 184 l 317 84 l 72 84 "},"Ά":{"ha":860,"x_min":0,"x_max":0,"o":"m 116 783 l 178 979 l 270 979 l 188 783 m 385 979 l 476 979 l 844 0 l 747 0 l 637 300 l 223 300 l 114 0 l 16 0 m 252 380 l 608 380 l 431 865 l 429 865 "},"Έ":{"ha":906,"x_min":0,"x_max":0,"o":"m 16 783 l 77 979 l 170 979 l 87 783 m 248 979 l 840 979 l 840 895 l 341 895 l 341 543 l 814 543 l 814 460 l 341 460 l 341 84 l 840 84 l 840 0 l 248 0 "},"Ή":{"ha":1097,"x_min":0,"x_max":0,"o":"m 16 783 l 77 979 l 170 979 l 87 783 m 248 979 l 341 979 l 341 543 l 913 543 l 913 979 l 1006 979 l 1006 0 l 913 0 l 913 459 l 341 459 l 341 0 l 248 0 "},"Ί":{"ha":433,"x_min":0,"x_max":0,"o":"m 16 783 l 77 979 l 170 979 l 87 783 m 248 979 l 341 979 l 341 0 l 248 0 "},"Ϊ":{"ha":275,"x_min":0,"x_max":0,"o":"m 22 1099 b -32 1152 -8 1099 -32 1122 b 22 1206 -32 1183 -8 1206 b 75 1152 52 1206 75 1183 b 22 1099 75 1122 52 1099 m 254 1099 b 200 1152 224 1099 200 1122 b 254 1206 200 1183 224 1206 b 307 1152 284 1206 307 1183 b 254 1099 307 1122 284 1099 m 92 979 l 184 979 l 184 0 l 92 0 "},"Ό":{"ha":1061,"x_min":0,"x_max":0,"o":"m 566 -16 b 120 489 292 -16 120 179 l 120 490 b 565 994 120 799 292 994 b 1009 490 838 994 1009 799 l 1009 489 b 566 -16 1009 179 838 -16 m 16 783 l 77 979 l 170 979 l 87 783 m 566 71 b 915 489 781 71 915 235 l 915 490 b 565 908 915 746 779 908 b 215 490 351 908 215 747 l 215 489 b 566 71 215 233 351 71 "},"Ύ":{"ha":1017,"x_min":0,"x_max":0,"o":"m 16 783 l 77 979 l 170 979 l 87 783 m 558 423 l 208 979 l 313 979 l 603 514 l 606 514 l 896 979 l 1002 979 l 651 423 l 651 0 l 558 0 "},"Ϋ":{"ha":826,"x_min":0,"x_max":0,"o":"m 297 1099 b 243 1152 267 1099 243 1122 b 297 1206 243 1183 267 1206 b 351 1152 328 1206 351 1183 b 297 1099 351 1122 328 1099 m 529 1099 b 475 1152 499 1099 475 1122 b 529 1206 475 1183 499 1206 b 583 1152 559 1206 583 1183 b 529 1099 583 1122 559 1099 m 367 423 l 16 979 l 122 979 l 411 514 l 415 514 l 704 979 l 810 979 l 459 423 l 459 0 l 367 0 "},"Ώ":{"ha":1082,"x_min":0,"x_max":0,"o":"m 125 84 l 370 84 l 370 88 b 123 533 211 184 123 340 l 123 534 b 568 994 123 804 302 994 b 1012 534 833 994 1012 804 l 1012 533 b 764 88 1012 340 924 184 l 764 84 l 1010 84 l 1010 0 l 655 0 l 655 104 b 918 531 834 209 918 343 l 918 532 b 568 908 918 758 781 908 b 218 532 354 908 218 758 l 218 531 b 479 104 218 343 300 209 l 479 0 l 125 0 m 20 783 l 81 979 l 174 979 l 91 783 "},"Ϝ":{"ha":713,"x_min":0,"x_max":0,"o":"m 98 0 l 98 979 l 669 979 l 669 895 l 191 895 l 191 530 l 669 530 l 669 446 l 191 446 l 191 0 "},"∇":{"ha":870,"x_min":0,"x_max":0,"o":"m 836 913 l 481 0 l 389 0 l 34 913 l 34 979 l 836 979 m 139 895 l 139 890 l 433 110 l 437 110 l 732 890 l 732 895 "},"А":{"ha":873,"x_min":0,"x_max":0,"o":"m 391 979 l 483 979 l 851 0 l 753 0 l 644 300 l 230 300 l 121 0 l 22 0 m 259 380 l 615 380 l 438 865 l 436 865 "},"Ӑ":{"ha":873,"x_min":0,"x_max":0,"o":"m 439 1058 b 253 1227 325 1058 253 1128 l 253 1230 l 328 1230 l 328 1227 b 439 1120 328 1167 368 1120 b 551 1227 510 1120 551 1167 l 551 1230 l 627 1230 l 627 1227 b 439 1058 627 1128 554 1058 m 391 979 l 483 979 l 851 0 l 753 0 l 644 300 l 230 300 l 121 0 l 22 0 m 259 380 l 615 380 l 438 865 l 436 865 "},"Ӓ":{"ha":873,"x_min":0,"x_max":0,"o":"m 321 1099 b 267 1152 292 1099 267 1122 b 321 1206 267 1183 292 1206 b 375 1152 351 1206 375 1183 b 321 1099 375 1122 351 1099 m 553 1099 b 499 1152 524 1099 499 1122 b 553 1206 499 1183 524 1206 b 607 1152 583 1206 607 1183 b 553 1099 607 1122 583 1099 m 391 979 l 483 979 l 851 0 l 753 0 l 644 300 l 230 300 l 121 0 l 22 0 m 259 380 l 615 380 l 438 865 l 436 865 "},"Б":{"ha":821,"x_min":0,"x_max":0,"o":"m 98 979 l 661 979 l 661 895 l 191 895 l 191 578 l 437 578 b 752 289 624 578 752 460 l 752 288 b 438 0 752 117 625 0 l 98 0 m 416 84 b 658 288 568 84 658 159 l 658 289 b 416 494 658 417 567 494 l 191 494 l 191 84 "},"В":{"ha":831,"x_min":0,"x_max":0,"o":"m 98 979 l 447 979 b 732 737 619 979 732 882 l 732 736 b 548 515 732 628 656 532 l 548 513 b 783 269 686 496 783 404 l 783 268 b 446 0 783 102 663 0 l 98 0 m 191 897 l 191 544 l 401 544 b 639 727 550 544 639 611 l 639 728 b 427 897 639 833 560 897 m 191 464 l 191 82 l 433 82 b 688 271 602 82 688 151 l 688 273 b 425 464 688 395 591 464 "},"Г":{"ha":713,"x_min":0,"x_max":0,"o":"m 98 0 l 98 979 l 669 979 l 669 895 l 191 895 l 191 0 "},"Ѓ":{"ha":713,"x_min":0,"x_max":0,"o":"m 334 1055 l 443 1249 l 537 1249 l 404 1055 m 98 0 l 98 979 l 669 979 l 669 895 l 191 895 l 191 0 "},"Ґ":{"ha":713,"x_min":0,"x_max":0,"o":"m 98 0 l 98 979 l 583 979 l 583 1172 l 669 1172 l 669 895 l 191 895 l 191 0 "},"Ӷ":{"ha":713,"x_min":0,"x_max":0,"o":"m 229 0 l 98 0 l 98 979 l 669 979 l 669 895 l 191 895 l 191 84 l 315 84 l 315 -193 l 229 -193 "},"Ғ":{"ha":745,"x_min":0,"x_max":0,"o":"m 131 0 l 131 449 l 33 449 l 33 528 l 131 528 l 131 979 l 702 979 l 702 895 l 223 895 l 223 528 l 448 528 l 448 449 l 223 449 l 223 0 "},"Ӻ":{"ha":745,"x_min":0,"x_max":0,"o":"m 223 0 l 223 -48 b 34 -237 223 -177 162 -237 b -22 -234 14 -237 -7 -236 l -22 -160 b 21 -162 -9 -161 5 -162 b 130 -49 96 -162 130 -126 l 130 14 l 131 14 l 131 449 l 33 449 l 33 528 l 131 528 l 131 979 l 702 979 l 702 895 l 223 895 l 223 528 l 448 528 l 448 449 l 223 449 l 223 0 "},"Д":{"ha":972,"x_min":0,"x_max":0,"o":"m 16 -193 l 16 84 l 85 84 b 191 345 156 121 184 214 l 230 979 l 818 979 l 818 84 l 942 84 l 942 -193 l 855 -193 l 855 0 l 102 0 l 102 -193 m 279 341 b 205 89 272 228 257 144 l 205 84 l 725 84 l 725 895 l 313 895 l 279 341 "},"Е":{"ha":762,"x_min":0,"x_max":0,"o":"m 98 979 l 689 979 l 689 895 l 191 895 l 191 543 l 664 543 l 664 460 l 191 460 l 191 84 l 689 84 l 689 0 l 98 0 "},"Ё":{"ha":762,"x_min":0,"x_max":0,"o":"m 278 1099 b 224 1152 248 1099 224 1122 b 278 1206 224 1183 248 1206 b 332 1152 308 1206 332 1183 b 278 1099 332 1122 308 1099 m 509 1099 b 456 1152 480 1099 456 1122 b 509 1206 456 1183 480 1206 b 564 1152 540 1206 564 1183 b 509 1099 564 1122 540 1099 m 98 979 l 689 979 l 689 895 l 191 895 l 191 543 l 664 543 l 664 460 l 191 460 l 191 84 l 689 84 l 689 0 l 98 0 "},"Ӗ":{"ha":762,"x_min":0,"x_max":0,"o":"m 395 1058 b 210 1227 281 1058 210 1128 l 210 1230 l 284 1230 l 284 1227 b 396 1120 284 1167 324 1120 b 508 1227 467 1120 508 1167 l 508 1230 l 583 1230 l 583 1227 b 395 1058 583 1128 511 1058 m 98 979 l 689 979 l 689 895 l 191 895 l 191 543 l 664 543 l 664 460 l 191 460 l 191 84 l 689 84 l 689 0 l 98 0 "},"Ѐ":{"ha":762,"x_min":0,"x_max":0,"o":"m 238 1249 l 332 1249 l 441 1055 l 371 1055 m 98 979 l 689 979 l 689 895 l 191 895 l 191 543 l 664 543 l 664 460 l 191 460 l 191 84 l 689 84 l 689 0 l 98 0 "},"Ж":{"ha":1290,"x_min":0,"x_max":0,"o":"m 721 538 l 1118 979 l 1234 979 l 797 509 l 1276 0 l 1150 0 l 721 463 l 691 463 l 691 0 l 599 0 l 599 463 l 569 463 l 140 0 l 14 0 l 492 509 l 55 979 l 172 979 l 569 538 l 599 538 l 599 979 l 691 979 l 691 538 "},"Ӂ":{"ha":1290,"x_min":0,"x_max":0,"o":"m 647 1058 b 460 1227 533 1058 460 1128 l 460 1230 l 535 1230 l 535 1227 b 648 1120 535 1167 575 1120 b 760 1227 718 1120 760 1167 l 760 1230 l 834 1230 l 834 1227 b 647 1058 834 1128 762 1058 m 721 538 l 1118 979 l 1234 979 l 797 509 l 1276 0 l 1150 0 l 721 463 l 691 463 l 691 0 l 599 0 l 599 463 l 569 463 l 140 0 l 14 0 l 492 509 l 55 979 l 172 979 l 569 538 l 599 538 l 599 979 l 691 979 l 691 538 "},"Ӝ":{"ha":1290,"x_min":0,"x_max":0,"o":"m 530 1099 b 475 1152 499 1099 475 1122 b 530 1206 475 1183 499 1206 b 583 1152 559 1206 583 1183 b 530 1099 583 1122 559 1099 m 761 1099 b 707 1152 731 1099 707 1122 b 761 1206 707 1183 731 1206 b 815 1152 791 1206 815 1183 b 761 1099 815 1122 791 1099 m 721 538 l 1118 979 l 1234 979 l 797 509 l 1276 0 l 1150 0 l 721 463 l 691 463 l 691 0 l 599 0 l 599 463 l 569 463 l 140 0 l 14 0 l 492 509 l 55 979 l 172 979 l 569 538 l 599 538 l 599 979 l 691 979 l 691 538 "},"Җ":{"ha":1356,"x_min":0,"x_max":0,"o":"m 721 538 l 1118 979 l 1234 979 l 797 509 l 1197 84 l 1326 84 l 1326 -193 l 1240 -193 l 1240 0 l 1150 0 l 721 463 l 691 463 l 691 0 l 599 0 l 599 463 l 569 463 l 140 0 l 14 0 l 492 509 l 55 979 l 172 979 l 569 538 l 599 538 l 599 979 l 691 979 l 691 538 "},"З":{"ha":791,"x_min":0,"x_max":0,"o":"m 258 545 l 386 545 b 619 734 528 545 619 621 l 619 735 b 400 908 619 840 534 908 b 171 744 271 908 186 845 l 170 734 l 78 734 l 79 744 b 404 994 93 898 219 994 b 714 743 586 994 714 889 l 714 741 b 520 512 714 629 637 538 l 520 508 b 743 265 659 492 743 399 l 743 264 b 399 -16 743 104 597 -16 b 49 241 199 -16 60 91 l 48 250 l 140 250 l 140 244 b 398 71 152 139 254 71 b 649 266 549 71 649 149 l 649 267 b 390 461 649 391 556 461 l 258 461 "},"Ӟ":{"ha":791,"x_min":0,"x_max":0,"o":"m 285 1099 b 231 1152 255 1099 231 1122 b 285 1206 231 1183 255 1206 b 338 1152 315 1206 338 1183 b 285 1099 338 1122 315 1099 m 516 1099 b 463 1152 487 1099 463 1122 b 516 1206 463 1183 487 1206 b 570 1152 547 1206 570 1183 b 516 1099 570 1122 547 1099 m 258 545 l 386 545 b 619 734 528 545 619 621 l 619 735 b 400 908 619 840 534 908 b 171 744 271 908 186 845 l 170 734 l 78 734 l 79 744 b 404 994 93 898 219 994 b 714 743 586 994 714 889 l 714 741 b 520 512 714 629 637 538 l 520 508 b 743 265 659 492 743 399 l 743 264 b 399 -16 743 104 597 -16 b 49 241 199 -16 60 91 l 48 250 l 140 250 l 140 244 b 398 71 152 139 254 71 b 649 266 549 71 649 149 l 649 267 b 390 461 649 391 556 461 l 258 461 "},"Ҙ":{"ha":791,"x_min":0,"x_max":0,"o":"m 258 545 l 386 545 b 619 734 528 545 619 621 l 619 735 b 400 908 619 840 534 908 b 171 744 271 908 186 845 l 170 734 l 78 734 l 79 744 b 404 994 93 898 219 994 b 714 743 586 994 714 889 l 714 741 b 520 512 714 629 637 538 l 520 508 b 743 265 659 492 743 399 l 743 264 b 440 -14 743 115 617 2 l 440 -194 l 351 -194 l 351 -14 b 49 241 178 2 60 103 l 48 250 l 140 250 l 140 244 b 398 71 152 139 254 71 b 649 266 549 71 649 149 l 649 267 b 390 461 649 391 556 461 l 258 461 "},"Ԑ":{"ha":791,"x_min":0,"x_max":0,"o":"m 401 461 b 142 267 235 461 142 391 l 142 266 b 393 71 142 149 243 71 b 650 244 536 71 639 139 l 651 250 l 743 250 l 743 241 b 393 -16 730 91 591 -16 b 47 264 193 -16 47 104 l 47 265 b 271 508 47 399 132 492 l 271 512 b 77 741 153 538 77 629 l 77 743 b 387 994 77 889 205 994 b 712 744 572 994 698 898 l 713 734 l 622 734 l 621 744 b 391 908 606 845 519 908 b 172 735 256 908 172 840 l 172 734 b 405 545 172 621 264 545 l 533 545 l 533 461 "},"И":{"ha":958,"x_min":0,"x_max":0,"o":"m 98 979 l 190 979 l 190 153 l 193 153 l 770 979 l 860 979 l 860 0 l 768 0 l 768 824 l 765 824 l 189 0 l 98 0 "},"Й":{"ha":958,"x_min":0,"x_max":0,"o":"m 480 1058 b 294 1227 366 1058 294 1128 l 294 1230 l 369 1230 l 369 1227 b 481 1120 369 1167 409 1120 b 593 1227 551 1120 593 1167 l 593 1230 l 668 1230 l 668 1227 b 480 1058 668 1128 595 1058 m 98 979 l 190 979 l 190 153 l 193 153 l 770 979 l 860 979 l 860 0 l 768 0 l 768 824 l 765 824 l 189 0 l 98 0 "},"Ѝ":{"ha":958,"x_min":0,"x_max":0,"o":"m 323 1249 l 416 1249 l 526 1055 l 456 1055 m 98 979 l 190 979 l 190 153 l 193 153 l 770 979 l 860 979 l 860 0 l 768 0 l 768 824 l 765 824 l 189 0 l 98 0 "},"Ӣ":{"ha":958,"x_min":0,"x_max":0,"o":"m 307 1186 l 650 1186 l 650 1119 l 307 1119 m 98 979 l 190 979 l 190 153 l 193 153 l 770 979 l 860 979 l 860 0 l 768 0 l 768 824 l 765 824 l 189 0 l 98 0 "},"Ӥ":{"ha":958,"x_min":0,"x_max":0,"o":"m 363 1099 b 309 1152 333 1099 309 1122 b 363 1206 309 1183 333 1206 b 416 1152 393 1206 416 1183 b 363 1099 416 1122 393 1099 m 594 1099 b 541 1152 565 1099 541 1122 b 594 1206 541 1183 565 1206 b 648 1152 625 1206 648 1183 b 594 1099 648 1122 625 1099 m 98 979 l 190 979 l 190 153 l 193 153 l 770 979 l 860 979 l 860 0 l 768 0 l 768 824 l 765 824 l 189 0 l 98 0 "},"Ҋ":{"ha":993,"x_min":0,"x_max":0,"o":"m 480 1058 b 294 1227 366 1058 294 1128 l 294 1230 l 369 1230 l 369 1227 b 481 1120 369 1167 409 1120 b 593 1227 551 1120 593 1167 l 593 1230 l 668 1230 l 668 1227 b 480 1058 668 1128 595 1058 m 98 979 l 190 979 l 190 153 l 193 153 l 770 979 l 860 979 l 860 83 l 978 83 l 978 56 l 907 -193 l 821 -193 l 876 0 l 768 0 l 768 824 l 765 824 l 189 0 l 98 0 "},"К":{"ha":835,"x_min":0,"x_max":0,"o":"m 98 0 l 98 979 l 191 979 l 191 538 l 227 538 l 659 979 l 777 979 l 307 509 l 819 0 l 693 0 l 227 464 l 191 464 l 191 0 "},"Ќ":{"ha":835,"x_min":0,"x_max":0,"o":"m 340 1055 l 450 1249 l 544 1249 l 411 1055 m 98 0 l 98 979 l 191 979 l 191 538 l 227 538 l 659 979 l 777 979 l 307 509 l 819 0 l 693 0 l 227 464 l 191 464 l 191 0 "},"Қ":{"ha":890,"x_min":0,"x_max":0,"o":"m 98 0 l 98 979 l 191 979 l 191 538 l 227 538 l 659 979 l 777 979 l 307 509 l 735 84 l 861 84 l 861 -193 l 774 -193 l 774 0 l 689 0 l 689 4 l 227 464 l 191 464 l 191 0 "},"Ҝ":{"ha":881,"x_min":0,"x_max":0,"o":"m 98 0 l 98 979 l 191 979 l 191 538 l 303 538 l 303 797 l 375 797 l 375 538 l 393 538 l 711 979 l 819 979 l 475 509 l 865 0 l 749 0 l 393 464 l 375 464 l 375 210 l 303 210 l 303 464 l 191 464 l 191 0 "},"Ҟ":{"ha":867,"x_min":0,"x_max":0,"o":"m 131 0 l 131 766 l 33 766 l 33 844 l 131 844 l 131 979 l 223 979 l 223 844 l 345 844 l 345 766 l 223 766 l 223 538 l 260 538 l 691 979 l 810 979 l 339 509 l 852 0 l 726 0 l 260 464 l 223 464 l 223 0 "},"Ҡ":{"ha":1017,"x_min":0,"x_max":0,"o":"m 281 0 l 281 895 l 29 895 l 29 979 l 373 979 l 373 538 l 410 538 l 841 979 l 960 979 l 488 509 l 1002 0 l 876 0 l 410 464 l 373 464 l 373 0 "},"Ӄ":{"ha":829,"x_min":0,"x_max":0,"o":"m 385 -271 b 340 -268 368 -271 352 -270 l 340 -183 b 383 -185 355 -184 368 -185 b 643 106 539 -185 643 -70 l 643 107 b 213 454 643 321 477 454 l 191 454 l 191 0 l 98 0 l 98 979 l 191 979 l 191 538 l 205 538 l 662 979 l 780 979 l 309 530 b 738 110 572 501 738 339 l 738 109 b 385 -271 738 -118 595 -271 "},"Л":{"ha":924,"x_min":0,"x_max":0,"o":"m 71 -7 b 26 0 54 -7 38 -4 l 26 83 b 63 79 36 81 52 79 b 209 350 159 79 198 170 l 245 979 l 826 979 l 826 0 l 734 0 l 734 895 l 331 895 l 297 345 b 71 -7 283 115 220 -7 "},"Ӆ":{"ha":958,"x_min":0,"x_max":0,"o":"m 71 -7 b 26 0 54 -7 38 -4 l 26 83 b 63 79 36 81 52 79 b 209 350 159 79 198 170 l 245 979 l 826 979 l 826 83 l 943 83 l 943 56 l 872 -193 l 786 -193 l 842 0 l 734 0 l 734 895 l 331 895 l 297 345 b 71 -7 283 115 220 -7 "},"Ԯ":{"ha":981,"x_min":0,"x_max":0,"o":"m 71 -7 b 26 0 54 -7 38 -4 l 26 83 b 63 79 36 81 52 79 b 209 350 159 79 198 170 l 245 979 l 826 979 l 826 84 l 951 84 l 951 -193 l 865 -193 l 865 0 l 734 0 l 734 895 l 331 895 l 297 345 b 71 -7 283 115 220 -7 "},"Ԓ":{"ha":924,"x_min":0,"x_max":0,"o":"m 71 -7 b 26 0 54 -7 38 -4 l 26 83 b 63 79 36 81 52 79 b 209 350 159 79 198 170 l 245 979 l 826 979 l 826 -48 b 637 -237 826 -177 766 -237 b 582 -234 617 -237 595 -236 l 582 -160 b 625 -162 593 -161 609 -162 b 734 -49 699 -162 734 -126 l 734 895 l 331 895 l 297 345 b 71 -7 283 115 220 -7 "},"М":{"ha":1139,"x_min":0,"x_max":0,"o":"m 98 979 l 205 979 l 568 117 l 572 117 l 935 979 l 1041 979 l 1041 0 l 954 0 l 954 804 l 949 804 l 610 0 l 529 0 l 190 804 l 185 804 l 185 0 l 98 0 "},"Ӎ":{"ha":1179,"x_min":0,"x_max":0,"o":"m 98 979 l 205 979 l 568 117 l 572 117 l 935 979 l 1041 979 l 1041 83 l 1164 83 l 1164 56 l 1093 -193 l 1006 -193 l 1062 0 l 954 0 l 954 804 l 949 804 l 610 0 l 529 0 l 190 804 l 185 804 l 185 0 l 98 0 "},"Н":{"ha":954,"x_min":0,"x_max":0,"o":"m 98 979 l 191 979 l 191 543 l 763 543 l 763 979 l 856 979 l 856 0 l 763 0 l 763 459 l 191 459 l 191 0 l 98 0 "},"Ӈ":{"ha":954,"x_min":0,"x_max":0,"o":"m 98 979 l 191 979 l 191 543 l 763 543 l 763 979 l 856 979 l 856 -48 b 667 -237 856 -177 795 -237 b 612 -234 647 -237 625 -236 l 612 -160 b 654 -162 623 -161 639 -162 b 763 -49 729 -162 763 -126 l 763 459 l 191 459 l 191 0 l 98 0 "},"Ң":{"ha":1010,"x_min":0,"x_max":0,"o":"m 98 979 l 191 979 l 191 543 l 763 543 l 763 979 l 856 979 l 856 84 l 980 84 l 980 -193 l 894 -193 l 894 0 l 763 0 l 763 459 l 191 459 l 191 0 l 98 0 "},"Ӊ":{"ha":988,"x_min":0,"x_max":0,"o":"m 98 979 l 191 979 l 191 543 l 763 543 l 763 979 l 856 979 l 856 83 l 972 83 l 972 56 l 902 -193 l 815 -193 l 871 0 l 763 0 l 763 459 l 191 459 l 191 0 l 98 0 "},"Ҥ":{"ha":1371,"x_min":0,"x_max":0,"o":"m 92 979 l 184 979 l 184 543 l 756 543 l 756 979 l 1328 979 l 1328 895 l 849 895 l 849 0 l 756 0 l 756 459 l 184 459 l 184 0 l 92 0 "},"О":{"ha":1007,"x_min":0,"x_max":0,"o":"m 504 -16 b 59 489 231 -16 59 179 l 59 490 b 504 994 59 799 231 994 b 948 490 777 994 948 799 l 948 489 b 504 -16 948 179 777 -16 m 504 71 b 853 489 720 71 853 235 l 853 490 b 504 908 853 746 718 908 b 153 490 290 908 153 747 l 153 489 b 504 71 153 233 289 71 "},"Ӧ":{"ha":1007,"x_min":0,"x_max":0,"o":"m 387 1099 b 334 1152 357 1099 334 1122 b 387 1206 334 1183 357 1206 b 441 1152 417 1206 441 1183 b 387 1099 441 1122 417 1099 m 619 1099 b 565 1152 589 1099 565 1122 b 619 1206 565 1183 589 1206 b 673 1152 649 1206 673 1183 b 619 1099 673 1122 649 1099 m 504 -16 b 59 489 231 -16 59 179 l 59 490 b 504 994 59 799 231 994 b 948 490 777 994 948 799 l 948 489 b 504 -16 948 179 777 -16 m 504 71 b 853 489 720 71 853 235 l 853 490 b 504 908 853 746 718 908 b 153 490 290 908 153 747 l 153 489 b 504 71 153 233 289 71 "},"Ө":{"ha":1007,"x_min":0,"x_max":0,"o":"m 504 -16 b 59 489 231 -16 59 179 l 59 490 b 504 994 59 799 231 994 b 948 490 777 994 948 799 l 948 489 b 504 -16 948 179 777 -16 m 504 908 b 155 538 303 908 171 766 l 852 538 b 504 908 836 766 704 908 m 504 71 b 852 460 711 71 843 222 l 154 460 b 504 71 164 220 298 71 "},"Ӫ":{"ha":1007,"x_min":0,"x_max":0,"o":"m 387 1099 b 334 1152 357 1099 334 1122 b 387 1206 334 1183 357 1206 b 441 1152 417 1206 441 1183 b 387 1099 441 1122 417 1099 m 619 1099 b 565 1152 589 1099 565 1122 b 619 1206 565 1183 589 1206 b 673 1152 649 1206 673 1183 b 619 1099 673 1122 649 1099 m 504 -16 b 59 489 231 -16 59 179 l 59 490 b 504 994 59 799 231 994 b 948 490 777 994 948 799 l 948 489 b 504 -16 948 179 777 -16 m 504 908 b 155 538 303 908 171 766 l 852 538 b 504 908 836 766 704 908 m 504 71 b 852 460 711 71 843 222 l 154 460 b 504 71 164 220 298 71 "},"Ѳ":{"ha":1004,"x_min":0,"x_max":0,"o":"m 503 -16 b 59 489 229 -16 59 178 l 59 490 b 503 994 59 800 229 994 b 945 490 775 994 945 801 l 945 489 b 503 -16 945 178 775 -16 m 315 578 b 690 486 469 578 557 486 b 848 549 758 486 813 509 b 503 908 829 771 699 908 b 154 521 298 908 165 759 b 315 578 196 558 252 578 m 503 71 b 850 466 709 71 842 223 b 688 409 808 429 752 409 b 309 501 526 409 441 501 b 155 439 249 501 192 478 b 503 71 172 212 302 71 "},"П":{"ha":943,"x_min":0,"x_max":0,"o":"m 752 0 l 752 895 l 191 895 l 191 0 l 98 0 l 98 979 l 844 979 l 844 0 "},"Ԥ":{"ha":1000,"x_min":0,"x_max":0,"o":"m 884 0 l 752 0 l 752 895 l 191 895 l 191 0 l 98 0 l 98 979 l 844 979 l 844 84 l 970 84 l 970 -193 l 884 -193 "},"Џ":{"ha":943,"x_min":0,"x_max":0,"o":"m 191 979 l 191 84 l 752 84 l 752 979 l 844 979 l 844 0 l 515 0 l 515 -194 l 427 -194 l 427 0 l 98 0 l 98 979 "},"Р":{"ha":793,"x_min":0,"x_max":0,"o":"m 98 979 l 431 979 b 745 675 618 979 745 857 l 745 674 b 431 369 745 492 618 369 l 191 369 l 191 0 l 98 0 m 191 896 l 191 452 l 410 452 b 651 673 560 452 651 535 l 651 675 b 410 896 651 812 560 896 "},"Ҏ":{"ha":780,"x_min":0,"x_max":0,"o":"m 92 979 l 425 979 b 739 675 611 979 739 857 l 739 674 b 528 383 739 528 656 420 l 614 180 l 545 151 l 454 370 b 425 369 444 369 434 369 l 184 369 l 184 0 l 92 0 m 184 896 l 184 452 l 403 452 b 422 452 410 452 416 452 l 338 654 l 401 680 l 492 463 b 644 673 589 490 644 565 l 644 675 b 403 896 644 812 553 896 "},"С":{"ha":943,"x_min":0,"x_max":0,"o":"m 501 -16 b 59 490 233 -16 59 183 l 59 490 b 501 994 59 798 231 994 b 890 686 704 994 854 869 l 892 680 l 799 680 l 795 692 b 501 908 758 824 654 908 b 154 490 290 908 154 745 l 154 490 b 501 71 154 236 291 71 b 797 293 653 71 756 154 l 799 299 l 892 299 l 890 292 b 501 -16 854 108 705 -16 "},"Ҫ":{"ha":943,"x_min":0,"x_max":0,"o":"m 890 292 b 546 -14 857 122 726 3 l 546 -194 l 457 -194 l 457 -14 b 59 490 214 7 59 200 l 59 490 b 501 994 59 798 231 994 b 890 686 704 994 854 869 l 892 680 l 799 680 l 795 692 b 501 908 758 824 654 908 b 154 490 290 908 154 745 l 154 490 b 501 71 154 236 291 71 b 797 293 653 71 756 154 l 799 299 l 892 299 l 890 292 "},"Т":{"ha":804,"x_min":0,"x_max":0,"o":"m 355 895 l 33 895 l 33 979 l 772 979 l 772 895 l 448 895 l 448 0 l 355 0 "},"Ҭ":{"ha":804,"x_min":0,"x_max":0,"o":"m 355 895 l 33 895 l 33 979 l 772 979 l 772 895 l 448 895 l 448 84 l 572 84 l 572 -193 l 486 -193 l 486 0 l 355 0 "},"У":{"ha":804,"x_min":0,"x_max":0,"o":"m 190 -7 b 139 1 169 -7 149 -3 l 139 85 b 190 79 151 81 170 79 b 363 220 270 79 319 132 l 23 979 l 123 979 l 407 324 l 415 324 l 688 979 l 785 979 l 478 271 b 190 -7 395 77 326 -7 "},"Ў":{"ha":804,"x_min":0,"x_max":0,"o":"m 408 1058 b 222 1227 294 1058 222 1128 l 222 1230 l 296 1230 l 296 1227 b 409 1120 296 1167 336 1120 b 521 1227 479 1120 521 1167 l 521 1230 l 595 1230 l 595 1227 b 408 1058 595 1128 523 1058 m 190 -7 b 139 1 169 -7 149 -3 l 139 85 b 190 79 151 81 170 79 b 363 220 270 79 319 132 l 23 979 l 123 979 l 407 324 l 415 324 l 688 979 l 785 979 l 478 271 b 190 -7 395 77 326 -7 "},"Ӯ":{"ha":804,"x_min":0,"x_max":0,"o":"m 234 1186 l 577 1186 l 577 1119 l 234 1119 m 190 -7 b 139 1 169 -7 149 -3 l 139 85 b 190 79 151 81 170 79 b 363 220 270 79 319 132 l 23 979 l 123 979 l 407 324 l 415 324 l 688 979 l 785 979 l 478 271 b 190 -7 395 77 326 -7 "},"Ӱ":{"ha":804,"x_min":0,"x_max":0,"o":"m 290 1099 b 236 1152 260 1099 236 1122 b 290 1206 236 1183 260 1206 b 344 1152 320 1206 344 1183 b 290 1099 344 1122 320 1099 m 522 1099 b 468 1152 492 1099 468 1122 b 522 1206 468 1183 492 1206 b 576 1152 552 1206 576 1183 b 522 1099 576 1122 552 1099 m 190 -7 b 139 1 169 -7 149 -3 l 139 85 b 190 79 151 81 170 79 b 363 220 270 79 319 132 l 23 979 l 123 979 l 407 324 l 415 324 l 688 979 l 785 979 l 478 271 b 190 -7 395 77 326 -7 "},"Ӳ":{"ha":804,"x_min":0,"x_max":0,"o":"m 260 1055 l 357 1249 l 451 1249 l 331 1055 m 460 1055 l 570 1249 l 663 1249 l 530 1055 m 190 -7 b 139 1 169 -7 149 -3 l 139 85 b 190 79 151 81 170 79 b 363 220 270 79 319 132 l 23 979 l 123 979 l 407 324 l 415 324 l 688 979 l 785 979 l 478 271 b 190 -7 395 77 326 -7 "},"Ү":{"ha":840,"x_min":0,"x_max":0,"o":"m 374 423 l 22 979 l 129 979 l 418 514 l 422 514 l 711 979 l 817 979 l 466 423 l 466 0 l 374 0 "},"Ұ":{"ha":840,"x_min":0,"x_max":0,"o":"m 374 393 l 128 393 l 128 471 l 344 471 l 22 979 l 129 979 l 418 514 l 422 514 l 711 979 l 817 979 l 496 471 l 712 471 l 712 393 l 466 393 l 466 0 l 374 0 "},"Ф":{"ha":1073,"x_min":0,"x_max":0,"o":"m 491 93 l 490 93 b 54 491 222 98 54 252 l 54 492 b 490 890 54 732 222 886 l 491 890 l 491 983 l 583 983 l 583 890 b 1020 492 851 886 1020 732 l 1020 491 b 583 93 1020 252 852 98 l 583 -5 l 491 -5 m 491 176 l 491 807 l 490 807 b 148 492 279 803 148 681 l 148 491 b 490 176 148 303 279 181 m 583 176 b 926 491 793 181 926 303 l 926 492 b 583 807 926 681 794 803 l 583 176 "},"Х":{"ha":870,"x_min":0,"x_max":0,"o":"m 376 490 l 376 493 l 39 979 l 151 979 l 437 562 l 440 562 l 728 979 l 833 979 l 490 489 l 490 487 l 829 0 l 718 0 l 433 414 l 429 414 l 142 0 l 36 0 "},"Ҳ":{"ha":919,"x_min":0,"x_max":0,"o":"m 376 490 l 376 493 l 39 979 l 151 979 l 437 562 l 440 562 l 728 979 l 833 979 l 490 489 l 490 487 l 770 84 l 888 84 l 888 -193 l 803 -193 l 803 0 l 718 0 l 433 414 l 429 414 l 142 0 l 36 0 "},"Ӿ":{"ha":870,"x_min":0,"x_max":0,"o":"m 349 450 l 96 450 l 96 529 l 352 529 l 39 979 l 151 979 l 437 562 l 440 562 l 728 979 l 833 979 l 518 529 l 774 529 l 774 450 l 515 450 l 829 0 l 718 0 l 433 414 l 429 414 l 142 0 l 36 0 "},"Ӽ":{"ha":870,"x_min":0,"x_max":0,"o":"m 628 -258 b 578 -253 607 -258 591 -256 l 578 -168 b 621 -172 593 -170 608 -172 b 725 -81 686 -172 725 -138 b 650 94 725 -33 703 15 l 433 414 l 429 414 l 142 0 l 36 0 l 376 490 l 376 493 l 39 979 l 151 979 l 437 562 l 440 562 l 728 979 l 833 979 l 490 489 l 490 486 l 726 146 b 819 -84 796 43 819 -12 b 628 -258 819 -189 744 -258 "},"Ц":{"ha":1000,"x_min":0,"x_max":0,"o":"m 884 0 l 98 0 l 98 979 l 191 979 l 191 84 l 752 84 l 752 979 l 844 979 l 844 84 l 970 84 l 970 -193 l 884 -193 "},"Ҵ":{"ha":1218,"x_min":0,"x_max":0,"o":"m 26 979 l 699 979 l 699 895 l 410 895 l 410 84 l 970 84 l 970 979 l 1063 979 l 1063 84 l 1188 84 l 1188 -193 l 1103 -193 l 1103 0 l 317 0 l 317 895 l 26 895 "},"Ч":{"ha":886,"x_min":0,"x_max":0,"o":"m 695 450 l 693 450 b 440 375 641 414 557 375 b 80 720 208 375 80 522 l 80 979 l 173 979 l 173 721 b 441 461 173 559 273 461 b 695 545 556 461 648 503 l 695 979 l 788 979 l 788 0 l 695 0 "},"Ӵ":{"ha":886,"x_min":0,"x_max":0,"o":"m 318 1099 b 264 1152 288 1099 264 1122 b 318 1206 264 1183 288 1206 b 372 1152 348 1206 372 1183 b 318 1099 372 1122 348 1099 m 549 1099 b 496 1152 519 1099 496 1122 b 549 1206 496 1183 519 1206 b 604 1152 580 1206 604 1183 b 549 1099 604 1122 580 1099 m 695 450 l 693 450 b 440 375 641 414 557 375 b 80 720 208 375 80 522 l 80 979 l 173 979 l 173 721 b 441 461 173 559 273 461 b 695 545 556 461 648 503 l 695 979 l 788 979 l 788 0 l 695 0 "},"Ҷ":{"ha":942,"x_min":0,"x_max":0,"o":"m 695 450 l 693 450 b 440 375 641 414 557 375 b 80 720 208 375 80 522 l 80 979 l 173 979 l 173 721 b 441 461 173 559 273 461 b 695 545 556 461 648 503 l 695 979 l 788 979 l 788 84 l 912 84 l 912 -193 l 826 -193 l 826 0 l 695 0 "},"Ӌ":{"ha":886,"x_min":0,"x_max":0,"o":"m 571 -193 l 571 84 l 695 84 l 695 450 l 693 450 b 440 375 641 414 557 375 b 80 720 208 375 80 522 l 80 979 l 173 979 l 173 721 b 441 461 173 559 273 461 b 695 545 556 461 648 503 l 695 979 l 788 979 l 788 0 l 656 0 l 656 -193 "},"Ҹ":{"ha":914,"x_min":0,"x_max":0,"o":"m 416 376 b 80 720 194 391 80 533 l 80 979 l 173 979 l 173 721 b 416 463 173 571 258 475 l 416 758 l 488 758 l 488 462 b 723 545 590 469 681 507 l 723 979 l 816 979 l 816 0 l 723 0 l 723 450 l 721 450 b 488 376 674 418 589 382 l 488 171 l 416 171 "},"Ҩ":{"ha":1296,"x_min":0,"x_max":0,"o":"m 596 -15 b 57 501 272 -15 57 193 l 57 503 b 479 994 57 758 229 965 l 479 906 b 154 503 277 869 154 708 l 154 501 b 595 71 154 237 341 71 b 759 94 656 71 709 78 b 539 511 625 186 539 334 l 539 513 b 854 871 539 718 667 871 b 1170 527 1044 871 1170 732 l 1170 526 b 930 89 1170 337 1068 176 b 1073 66 974 73 1021 66 b 1258 111 1133 66 1195 79 l 1258 27 b 1071 -16 1212 0 1145 -16 b 843 41 985 -16 911 3 b 596 -15 767 5 685 -15 m 634 513 b 845 132 634 359 715 218 b 1076 526 983 211 1076 358 l 1076 527 b 854 785 1076 675 986 785 b 634 515 715 785 634 669 l 634 513 "},"Ҽ":{"ha":1124,"x_min":0,"x_max":0,"o":"m 673 -16 b 231 484 401 -16 231 176 l 231 486 b 231 488 231 487 231 488 b 18 679 100 490 18 562 b 44 795 18 723 29 765 l 127 795 b 104 686 115 764 104 727 b 236 572 104 610 149 572 b 654 994 265 829 424 994 b 1067 534 907 994 1067 815 l 1067 488 l 326 488 l 326 472 b 675 71 326 227 462 71 b 954 231 808 71 913 131 l 956 237 l 1050 237 l 1049 232 b 673 -16 1006 82 858 -16 m 652 908 b 330 572 477 908 352 775 l 966 572 l 966 579 b 652 908 957 781 836 908 "},"Ҿ":{"ha":1124,"x_min":0,"x_max":0,"o":"m 1049 232 b 715 -14 1009 94 880 0 l 715 -194 l 625 -194 l 625 -14 b 231 484 381 7 231 195 l 231 486 b 231 488 231 487 231 488 b 18 679 100 490 18 562 b 44 795 18 723 29 765 l 127 795 b 104 686 115 764 104 727 b 236 572 104 610 149 572 b 654 994 265 829 424 994 b 1067 534 907 994 1067 815 l 1067 488 l 326 488 l 326 472 b 675 71 326 227 462 71 b 954 231 808 71 913 131 l 956 237 l 1050 237 l 1049 232 m 652 908 b 330 572 477 908 352 775 l 966 572 l 966 579 b 652 908 957 781 836 908 "},"Һ":{"ha":897,"x_min":0,"x_max":0,"o":"m 98 979 l 191 979 l 191 551 l 193 551 b 446 625 244 586 334 625 b 806 281 678 625 806 478 l 806 0 l 713 0 l 713 279 b 446 539 713 441 614 539 b 191 455 330 539 238 497 l 191 0 l 98 0 "},"Ԧ":{"ha":960,"x_min":0,"x_max":0,"o":"m 98 979 l 191 979 l 191 551 l 193 551 b 446 625 244 586 334 625 b 806 281 678 625 806 478 l 806 84 l 930 84 l 930 -193 l 844 -193 l 844 0 l 713 0 l 713 279 b 446 539 713 441 614 539 b 191 455 330 539 238 497 l 191 0 l 98 0 "},"Ш":{"ha":1244,"x_min":0,"x_max":0,"o":"m 98 979 l 191 979 l 191 84 l 576 84 l 576 979 l 669 979 l 669 84 l 1054 84 l 1054 979 l 1146 979 l 1146 1 l 98 1 "},"Щ":{"ha":1301,"x_min":0,"x_max":0,"o":"m 98 979 l 191 979 l 191 84 l 576 84 l 576 979 l 669 979 l 669 84 l 1054 84 l 1054 979 l 1146 979 l 1146 84 l 1270 84 l 1270 -193 l 1185 -193 l 1185 0 l 1054 0 l 1054 1 l 98 1 "},"Ъ":{"ha":985,"x_min":0,"x_max":0,"o":"m 281 895 l 29 895 l 29 979 l 373 979 l 373 600 l 623 600 b 937 300 810 600 937 479 l 937 299 b 623 0 937 121 810 0 l 281 0 m 373 517 l 373 84 l 602 84 b 843 299 753 84 843 164 l 843 300 b 602 517 843 435 752 517 "},"Ы":{"ha":1069,"x_min":0,"x_max":0,"o":"m 98 979 l 191 979 l 191 600 l 440 600 b 755 300 627 600 755 479 l 755 299 b 441 0 755 121 628 0 l 98 0 m 879 979 l 971 979 l 971 0 l 879 0 m 191 517 l 191 84 l 419 84 b 661 299 570 84 661 164 l 661 300 b 419 517 661 435 570 517 "},"Ӹ":{"ha":1069,"x_min":0,"x_max":0,"o":"m 419 1099 b 365 1152 389 1099 365 1122 b 419 1206 365 1183 389 1206 b 473 1152 449 1206 473 1183 b 419 1099 473 1122 449 1099 m 650 1099 b 597 1152 621 1099 597 1122 b 650 1206 597 1183 621 1206 b 705 1152 681 1206 705 1183 b 650 1099 705 1122 681 1099 m 98 979 l 191 979 l 191 600 l 440 600 b 755 300 627 600 755 479 l 755 299 b 441 0 755 121 628 0 l 98 0 m 879 979 l 971 979 l 971 0 l 879 0 m 191 517 l 191 84 l 419 84 b 661 299 570 84 661 164 l 661 300 b 419 517 661 435 570 517 "},"Ҍ":{"ha":836,"x_min":0,"x_max":0,"o":"m 131 802 l 33 802 l 33 873 l 131 873 l 131 1020 l 223 1020 l 223 873 l 448 873 l 448 802 l 223 802 l 223 600 l 473 600 b 787 300 660 600 787 479 l 787 299 b 473 0 787 121 661 0 l 131 0 m 223 517 l 223 84 l 452 84 b 693 299 603 84 693 164 l 693 300 b 452 517 693 435 602 517 "},"Ѣ":{"ha":1028,"x_min":0,"x_max":0,"o":"m 324 798 l 33 798 l 33 878 l 324 878 l 324 1020 l 417 1020 l 417 878 l 772 878 l 772 798 l 417 798 l 417 600 l 666 600 b 981 300 853 600 981 479 l 981 299 b 667 0 981 121 854 0 l 324 0 m 417 517 l 417 84 l 645 84 b 886 299 796 84 886 164 l 886 300 b 645 517 886 435 795 517 "},"Ь":{"ha":803,"x_min":0,"x_max":0,"o":"m 98 979 l 191 979 l 191 600 l 440 600 b 755 300 627 600 755 479 l 755 299 b 441 0 755 121 628 0 l 98 0 m 191 517 l 191 84 l 419 84 b 661 299 570 84 661 164 l 661 300 b 419 517 661 435 570 517 "},"Љ":{"ha":1438,"x_min":0,"x_max":0,"o":"m 71 -7 b 26 0 54 -7 38 -4 l 26 83 b 63 79 36 81 52 79 b 209 350 159 79 198 170 l 245 979 l 826 979 l 826 600 l 1076 600 b 1390 300 1263 600 1390 479 l 1390 299 b 1076 0 1390 121 1263 0 l 734 0 l 734 895 l 331 895 l 297 345 b 71 -7 283 115 220 -7 m 826 517 l 826 84 l 1055 84 b 1296 299 1206 84 1296 164 l 1296 300 b 1055 517 1296 435 1205 517 "},"Њ":{"ha":1468,"x_min":0,"x_max":0,"o":"m 98 979 l 191 979 l 191 543 l 763 543 l 763 979 l 856 979 l 856 600 l 1105 600 b 1420 300 1292 600 1420 479 l 1420 299 b 1106 0 1420 121 1293 0 l 763 0 l 763 459 l 191 459 l 191 0 l 98 0 m 856 517 l 856 84 l 1084 84 b 1325 299 1236 84 1325 164 l 1325 300 b 1084 517 1325 435 1235 517 "},"Э":{"ha":941,"x_min":0,"x_max":0,"o":"m 443 -16 b 51 286 243 -16 87 104 l 50 292 l 142 292 l 144 286 b 443 71 184 150 294 71 b 787 459 645 71 777 222 l 321 459 l 321 543 l 786 543 b 443 908 769 768 640 908 b 144 692 294 908 184 829 l 142 686 l 50 686 l 51 693 b 443 994 87 873 243 994 b 882 490 712 994 882 799 l 882 490 b 443 -16 882 182 711 -16 "},"Ӭ":{"ha":941,"x_min":0,"x_max":0,"o":"m 330 1099 b 277 1152 300 1099 277 1122 b 330 1206 277 1183 300 1206 b 385 1152 361 1206 385 1183 b 330 1099 385 1122 361 1099 m 562 1099 b 509 1152 532 1099 509 1122 b 562 1206 509 1183 532 1206 b 616 1152 593 1206 616 1183 b 562 1099 616 1122 593 1099 m 443 -16 b 51 286 243 -16 87 104 l 50 292 l 142 292 l 144 286 b 443 71 184 150 294 71 b 787 459 645 71 777 222 l 321 459 l 321 543 l 786 543 b 443 908 769 768 640 908 b 144 692 294 908 184 829 l 142 686 l 50 686 l 51 693 b 443 994 87 873 243 994 b 882 490 712 994 882 799 l 882 490 b 443 -16 882 182 711 -16 "},"Є":{"ha":941,"x_min":0,"x_max":0,"o":"m 498 -16 b 59 490 231 -16 59 182 l 59 490 b 498 994 59 799 229 994 b 890 693 698 994 854 873 l 892 686 l 799 686 l 797 692 b 498 908 758 829 647 908 b 155 543 301 908 173 768 l 621 543 l 621 459 l 154 459 b 498 71 164 222 296 71 b 797 286 647 71 758 150 l 799 292 l 892 292 l 890 286 b 498 -16 854 104 699 -16 "},"Ю":{"ha":1297,"x_min":0,"x_max":0,"o":"m 98 979 l 191 979 l 191 543 l 372 543 b 804 994 389 822 552 994 b 1238 490 1073 994 1238 800 l 1238 489 b 804 -16 1238 180 1074 -16 b 371 459 543 -16 382 167 l 191 459 l 191 0 l 98 0 m 804 908 b 465 490 596 908 465 746 l 465 489 b 804 71 465 235 593 71 b 1143 489 1013 71 1143 235 l 1143 490 b 804 908 1143 746 1013 908 "},"Я":{"ha":835,"x_min":0,"x_max":0,"o":"m 644 0 l 644 393 l 417 393 l 142 0 l 32 0 l 315 404 b 77 686 174 432 77 536 l 77 687 b 390 979 77 861 203 979 l 736 979 l 736 0 m 644 895 l 412 895 b 171 687 260 895 171 818 l 171 686 b 412 477 171 554 260 477 l 644 477 "},"Ӏ":{"ha":289,"x_min":0,"x_max":0,"o":"m 98 979 l 191 979 l 191 0 l 98 0 "},"І":{"ha":289,"x_min":0,"x_max":0,"o":"m 98 979 l 191 979 l 191 0 l 98 0 "},"Ї":{"ha":289,"x_min":0,"x_max":0,"o":"m 28 1099 b -25 1152 -1 1099 -25 1122 b 28 1206 -25 1183 -1 1206 b 82 1152 59 1206 82 1183 b 28 1099 82 1122 59 1099 m 260 1099 b 207 1152 231 1099 207 1122 b 260 1206 207 1183 231 1206 b 314 1152 291 1206 314 1183 b 260 1099 314 1122 291 1099 m 98 979 l 191 979 l 191 0 l 98 0 "},"Ѕ":{"ha":814,"x_min":0,"x_max":0,"o":"m 412 -16 b 52 255 205 -16 64 90 l 51 264 l 144 264 l 144 255 b 417 71 158 142 262 71 b 669 256 570 71 669 143 l 669 257 b 458 441 669 353 608 407 l 351 465 b 75 728 161 507 75 589 l 75 729 b 409 994 76 884 215 994 b 746 724 597 994 734 884 l 747 714 l 654 714 l 653 723 b 406 908 639 838 545 908 b 170 732 265 908 170 837 l 170 730 b 375 553 170 640 233 584 l 482 528 b 764 261 683 484 764 406 l 764 260 b 412 -16 764 93 627 -16 "},"Ʒ":{"ha":778,"x_min":0,"x_max":0,"o":"m 388 -16 b 50 244 197 -16 57 94 l 49 250 l 140 250 l 141 241 b 387 71 153 141 254 71 b 629 275 530 71 629 151 l 629 277 b 330 501 629 427 525 501 l 260 501 l 260 581 l 561 886 l 561 895 l 88 895 l 88 979 l 696 979 l 696 911 l 378 585 l 378 577 b 724 278 596 572 724 467 l 724 277 b 388 -16 724 104 584 -16 "},"Ӡ":{"ha":778,"x_min":0,"x_max":0,"o":"m 388 -16 b 724 277 584 -16 724 104 l 724 278 b 378 577 724 467 596 572 l 378 585 l 696 911 l 696 979 l 88 979 l 88 895 l 561 895 l 561 886 l 260 581 l 260 501 l 330 501 b 629 277 525 501 629 427 l 629 275 b 387 71 629 151 530 71 b 141 241 254 71 153 141 l 140 250 l 49 250 l 50 244 b 388 -16 57 94 197 -16 "},"Ћ":{"ha":1154,"x_min":0,"x_max":0,"o":"m 355 895 l 33 895 l 33 979 l 772 979 l 772 895 l 448 895 l 448 538 l 450 538 b 703 611 502 572 592 611 b 1063 267 936 611 1063 465 l 1063 0 l 970 0 l 970 266 b 703 526 970 427 871 526 b 448 441 587 526 495 484 l 448 0 l 355 0 "},"Ђ":{"ha":1103,"x_min":0,"x_max":0,"o":"m 718 -41 b 646 -33 688 -41 661 -38 l 646 51 b 711 44 661 47 688 44 b 933 279 838 44 933 129 l 933 280 b 705 518 933 416 842 518 b 452 378 597 518 506 454 l 452 0 l 360 0 l 360 895 l 32 895 l 32 979 l 781 979 l 781 895 l 452 895 l 452 494 l 458 494 b 713 604 520 557 607 604 b 1027 281 899 604 1027 468 l 1027 279 b 718 -41 1027 84 895 -41 "},"Ҕ":{"ha":841,"x_min":0,"x_max":0,"o":"m 456 -41 b 384 -33 425 -41 399 -38 l 384 51 b 449 44 399 47 427 44 b 671 279 576 44 671 129 l 671 280 b 442 518 671 416 580 518 b 191 378 335 518 244 454 l 191 0 l 98 0 l 98 979 l 623 979 l 623 895 l 191 895 l 191 494 l 196 494 b 452 604 258 557 345 604 b 766 281 637 604 766 468 l 766 279 b 456 -41 766 84 633 -41 "},"Ҧ":{"ha":1449,"x_min":0,"x_max":0,"o":"m 1065 -41 b 991 -33 1034 -41 1007 -38 l 991 51 b 1057 44 1007 47 1035 44 b 1280 279 1185 44 1280 129 l 1280 280 b 1050 518 1280 416 1188 518 b 799 378 943 518 852 454 l 799 0 l 707 0 l 707 895 l 191 895 l 191 0 l 98 0 l 98 979 l 799 979 l 799 494 l 804 494 b 1060 604 866 557 953 604 b 1374 281 1246 604 1374 468 l 1374 279 b 1065 -41 1374 84 1242 -41 "},"Ј":{"ha":683,"x_min":0,"x_max":0,"o":"m 304 -16 b 36 227 135 -16 45 92 l 35 237 l 127 237 l 128 229 b 304 71 136 144 189 71 b 492 274 425 71 492 144 l 492 979 l 585 979 l 585 272 b 304 -16 585 93 479 -16 "},"Ѵ":{"ha":983,"x_min":0,"x_max":0,"o":"m 22 979 l 121 979 l 433 115 l 437 115 l 694 823 b 871 987 732 928 781 987 b 975 964 907 987 947 979 l 947 884 b 880 899 924 895 899 899 b 774 782 821 899 800 852 l 481 0 l 389 0 "},"Ѷ":{"ha":983,"x_min":0,"x_max":0,"o":"m 181 1249 l 275 1249 l 397 1055 l 327 1055 m 393 1249 l 487 1249 l 597 1055 l 526 1055 m 22 979 l 121 979 l 433 115 l 437 115 l 694 823 b 871 987 732 928 781 987 b 975 964 907 987 947 979 l 947 884 b 880 899 924 895 899 899 b 774 782 821 899 800 852 l 481 0 l 389 0 "},"Ԝ":{"ha":1271,"x_min":0,"x_max":0,"o":"m 36 979 l 133 979 l 349 138 l 351 138 l 589 979 l 682 979 l 919 138 l 921 138 l 1137 979 l 1234 979 l 965 0 l 878 0 l 636 826 l 634 826 l 392 0 l 305 0 "},"Ӕ":{"ha":1298,"x_min":0,"x_max":0,"o":"m 505 979 l 1232 979 l 1232 895 l 755 895 l 755 538 l 1206 538 l 1206 455 l 755 455 l 755 84 l 1232 84 l 1232 0 l 663 0 l 663 337 l 280 337 l 111 0 l 16 0 m 319 417 l 663 417 l 663 900 l 561 900 "},"Ə":{"ha":957,"x_min":0,"x_max":0,"o":"m 473 -16 b 57 463 216 -16 57 167 l 57 505 l 803 505 l 803 521 b 457 908 803 751 664 908 b 176 753 326 908 225 854 l 170 739 l 75 739 l 81 753 b 458 994 139 904 283 994 b 898 491 728 994 898 800 l 898 490 b 473 -16 898 185 729 -16 m 475 71 b 801 422 652 71 783 208 l 158 422 l 159 416 b 475 71 168 201 289 71 "},"Ә":{"ha":970,"x_min":0,"x_max":0,"o":"m 479 -16 b 64 463 222 -16 64 167 l 64 505 l 810 505 l 810 521 b 464 908 810 751 671 908 b 183 753 332 908 232 854 l 176 739 l 81 739 l 87 753 b 465 994 146 904 290 994 b 905 491 735 994 905 800 l 905 490 b 479 -16 905 185 736 -16 m 481 71 b 808 422 659 71 789 208 l 165 422 l 165 416 b 481 71 175 201 296 71 "},"Ӛ":{"ha":970,"x_min":0,"x_max":0,"o":"m 348 1099 b 294 1152 318 1099 294 1122 b 348 1206 294 1183 318 1206 b 401 1152 378 1206 401 1183 b 348 1099 401 1122 378 1099 m 580 1099 b 526 1152 550 1099 526 1122 b 580 1206 526 1183 550 1206 b 633 1152 610 1206 633 1183 b 580 1099 633 1122 610 1099 m 479 -16 b 64 463 222 -16 64 167 l 64 505 l 810 505 l 810 521 b 464 908 810 751 671 908 b 183 753 332 908 232 854 l 176 739 l 81 739 l 87 753 b 465 994 146 904 290 994 b 905 491 735 994 905 800 l 905 490 b 479 -16 905 185 736 -16 m 481 71 b 808 422 659 71 789 208 l 165 422 l 165 416 b 481 71 175 201 296 71 "},"ᴀ":{"ha":663,"x_min":0,"x_max":0,"o":"m 286 705 l 378 705 l 652 0 l 562 0 l 484 208 l 179 208 l 102 0 l 11 0 m 204 275 l 459 275 l 333 614 l 330 614 "},"ʙ":{"ha":707,"x_min":0,"x_max":0,"o":"m 77 705 l 375 705 b 614 531 521 705 614 636 l 614 530 b 460 372 614 452 551 384 l 460 370 b 656 196 575 359 656 292 l 656 195 b 376 0 656 74 556 0 l 77 0 m 167 634 l 167 397 l 336 397 b 525 519 454 397 525 442 l 525 521 b 355 634 525 592 462 634 m 167 330 l 167 71 l 360 71 b 564 199 495 71 564 117 l 564 200 b 355 330 564 283 487 330 "},"ᴄ":{"ha":708,"x_min":0,"x_max":0,"o":"m 376 -12 b 42 353 173 -12 42 130 l 42 353 b 376 716 42 576 172 716 b 673 488 534 716 648 623 l 673 483 l 588 483 l 585 491 b 376 644 560 583 486 644 b 130 353 227 644 130 530 l 130 353 b 376 62 130 176 227 62 b 587 218 486 62 559 121 l 588 222 l 673 222 l 673 218 b 376 -12 649 81 534 -12 "},"ᴅ":{"ha":720,"x_min":0,"x_max":0,"o":"m 77 705 l 326 705 b 678 354 548 705 678 577 l 678 353 b 326 0 678 130 549 0 l 77 0 m 319 72 b 590 352 493 72 590 172 l 590 353 b 319 633 590 534 492 633 l 163 633 l 163 72 "},"ᴇ":{"ha":575,"x_min":0,"x_max":0,"o":"m 77 705 l 532 705 l 532 635 l 163 635 l 163 395 l 514 395 l 514 326 l 163 326 l 163 71 l 532 71 l 532 0 l 77 0 "},"ꜰ":{"ha":546,"x_min":0,"x_max":0,"o":"m 77 705 l 527 705 l 527 635 l 163 635 l 163 382 l 497 382 l 497 313 l 163 313 l 163 0 l 77 0 "},"ɢ":{"ha":713,"x_min":0,"x_max":0,"o":"m 372 -12 b 42 356 171 -12 42 131 l 42 357 b 372 716 42 577 170 716 b 671 495 533 716 641 627 l 673 488 l 585 488 l 584 492 b 372 644 551 591 475 644 b 130 357 222 644 130 535 l 130 356 b 373 61 130 174 224 61 b 593 276 504 61 593 148 l 593 291 l 380 291 l 380 359 l 679 359 l 679 296 b 372 -12 679 106 564 -12 "},"ʛ":{"ha":829,"x_min":0,"x_max":0,"o":"m 370 -12 b 42 356 170 -12 42 130 l 42 357 b 369 716 42 578 170 716 b 591 634 463 716 538 686 l 591 802 b 777 991 591 928 642 991 b 829 988 794 991 818 990 l 829 914 b 785 916 819 915 798 916 b 674 802 709 916 674 880 l 674 486 l 578 486 l 576 492 b 369 639 545 587 471 639 b 134 357 223 639 134 533 b 371 66 134 177 227 66 b 585 275 499 66 585 150 l 586 289 l 380 289 l 380 360 l 674 360 l 674 296 b 370 -12 674 106 559 -12 "},"ʜ":{"ha":720,"x_min":0,"x_max":0,"o":"m 77 705 l 161 705 l 161 397 l 563 397 l 563 705 l 646 705 l 646 0 l 563 0 l 563 324 l 161 324 l 161 0 l 77 0 "},"ɪ":{"ha":452,"x_min":0,"x_max":0,"o":"m 35 71 l 181 71 l 181 635 l 35 635 l 35 705 l 418 705 l 418 635 l 271 635 l 271 71 l 418 71 l 418 0 l 35 0 "},"ᵻ":{"ha":258,"x_min":0,"x_max":0,"o":"m 84 363 l 0 363 l 0 428 l 84 428 l 84 705 l 174 705 l 174 428 l 258 428 l 258 363 l 174 363 l 174 0 l 84 0 "},"ᴊ":{"ha":511,"x_min":0,"x_max":0,"o":"m 225 -12 b 20 176 96 -12 26 68 l 19 182 l 104 182 l 105 178 b 224 66 110 117 146 66 b 351 204 306 66 351 116 l 351 705 l 437 705 l 437 203 b 225 -12 437 68 358 -12 "},"ᴋ":{"ha":618,"x_min":0,"x_max":0,"o":"m 77 705 l 167 705 l 167 347 l 170 347 l 479 705 l 585 705 l 313 394 l 611 0 l 500 0 l 249 334 l 167 242 l 167 0 l 77 0 "},"ʟ":{"ha":545,"x_min":0,"x_max":0,"o":"m 77 705 l 163 705 l 163 71 l 526 71 l 526 0 l 77 0 "},"ᴌ":{"ha":517,"x_min":0,"x_max":0,"o":"m 68 280 l 11 252 l 11 321 l 68 350 l 68 705 l 157 705 l 157 395 l 356 493 l 356 424 l 157 325 l 157 75 l 498 75 l 498 0 l 68 0 "},"ᴍ":{"ha":850,"x_min":0,"x_max":0,"o":"m 77 705 l 177 705 l 424 108 l 427 108 l 673 705 l 773 705 l 773 0 l 694 0 l 694 559 l 692 559 l 458 0 l 392 0 l 159 559 l 157 559 l 157 0 l 77 0 "},"ɴ":{"ha":724,"x_min":0,"x_max":0,"o":"m 77 705 l 158 705 l 556 140 l 560 140 l 560 705 l 646 705 l 646 0 l 565 0 l 167 566 l 163 566 l 163 0 l 77 0 "},"ᴎ":{"ha":724,"x_min":0,"x_max":0,"o":"m 560 0 l 560 566 l 556 566 l 158 0 l 77 0 l 77 705 l 163 705 l 163 140 l 167 140 l 565 705 l 646 705 l 646 0 "},"ᴏ":{"ha":734,"x_min":0,"x_max":0,"o":"m 368 -12 b 42 352 168 -12 42 129 l 42 353 b 368 716 42 576 168 716 b 693 353 568 716 693 575 l 693 352 b 368 -12 693 129 568 -12 m 368 62 b 606 352 515 62 606 176 l 606 353 b 368 642 606 530 513 642 b 130 353 223 642 130 530 l 130 352 b 368 62 130 174 222 62 "},"ᴘ":{"ha":606,"x_min":0,"x_max":0,"o":"m 77 705 l 328 705 b 561 482 467 705 561 616 l 561 481 b 328 257 561 347 467 257 l 163 257 l 163 0 l 77 0 m 163 635 l 163 328 l 308 328 b 473 481 411 328 473 385 l 473 481 b 308 635 473 578 411 635 "},"ᴩ":{"ha":606,"x_min":0,"x_max":0,"o":"m 77 0 l 163 0 l 163 257 l 328 257 b 561 481 467 257 561 347 l 561 482 b 328 705 561 616 467 705 l 77 705 m 308 635 b 473 481 411 635 473 578 l 473 481 b 308 328 473 385 411 328 l 163 328 l 163 635 "},"ꞯ":{"ha":734,"x_min":0,"x_max":0,"o":"m 368 -12 b 42 353 168 -12 42 129 l 42 353 b 368 716 42 576 168 716 b 693 353 568 716 693 576 l 693 353 b 562 47 693 215 646 109 l 654 -79 l 564 -79 l 498 12 b 368 -12 459 -3 416 -12 m 368 62 b 450 77 398 62 426 68 l 359 203 l 449 203 l 514 114 b 604 352 572 163 604 247 l 604 353 b 368 642 604 530 513 642 b 130 353 222 642 130 530 l 130 352 b 368 62 130 174 222 62 "},"ʀ":{"ha":646,"x_min":0,"x_max":0,"o":"m 77 705 l 347 705 b 590 494 496 705 590 624 l 590 494 b 436 295 590 396 532 321 l 611 0 l 511 0 l 347 283 b 332 282 342 282 336 282 l 163 282 l 163 0 l 77 0 m 339 351 b 501 492 441 351 501 404 l 501 494 b 336 635 501 582 439 635 l 163 635 l 163 351 "},"ᴙ":{"ha":646,"x_min":0,"x_max":0,"o":"m 482 0 l 482 282 l 314 282 b 299 283 309 282 303 282 l 134 0 l 35 0 l 210 295 b 56 494 114 321 56 396 l 56 494 b 299 705 56 624 149 705 l 568 705 l 568 0 m 482 635 l 309 635 b 144 494 207 635 144 582 l 144 492 b 307 351 144 404 205 351 l 482 351 "},"ʁ":{"ha":649,"x_min":0,"x_max":0,"o":"m 572 0 l 300 0 b 56 212 149 0 56 81 l 56 212 b 210 411 56 310 114 385 l 35 705 l 138 705 l 301 425 b 316 425 306 425 311 425 l 481 425 l 481 705 l 572 705 m 309 353 b 148 214 208 353 148 301 l 148 213 b 311 73 148 125 210 73 l 481 73 l 481 353 "},"ꜱ":{"ha":636,"x_min":0,"x_max":0,"o":"m 321 -12 b 43 186 160 -12 52 64 l 43 193 l 127 193 l 127 186 b 324 61 138 110 214 61 b 507 187 435 61 507 111 b 351 311 507 253 462 288 l 271 328 b 60 520 127 358 60 419 l 60 521 b 318 716 60 635 168 716 b 580 519 468 716 571 636 l 580 511 l 496 511 l 494 518 b 317 644 485 595 416 644 b 148 524 215 643 148 595 l 148 524 b 298 403 148 462 194 425 l 378 387 b 593 192 530 355 593 298 b 321 -12 593 68 488 -12 "},"ᴛ":{"ha":593,"x_min":0,"x_max":0,"o":"m 254 633 l 26 633 l 26 705 l 566 705 l 566 633 l 339 633 l 339 0 l 254 0 "},"ᴜ":{"ha":729,"x_min":0,"x_max":0,"o":"m 364 -12 b 73 246 184 -12 73 92 l 73 705 l 159 705 l 159 253 b 364 62 159 138 236 62 b 569 253 494 62 569 138 l 569 705 l 655 705 l 655 246 b 364 -12 655 92 545 -12 "},"ᴠ":{"ha":633,"x_min":0,"x_max":0,"o":"m 11 705 l 109 705 l 315 98 l 317 98 l 525 705 l 622 705 l 367 0 l 266 0 "},"ᴡ":{"ha":903,"x_min":0,"x_max":0,"o":"m 11 705 l 104 705 l 248 125 l 250 125 l 410 705 l 493 705 l 652 125 l 654 125 l 798 705 l 891 705 l 699 0 l 614 0 l 452 564 l 450 564 l 289 0 l 203 0 "},"ʏ":{"ha":639,"x_min":0,"x_max":0,"o":"m 275 293 l 11 705 l 111 705 l 318 378 l 321 378 l 528 705 l 628 705 l 365 293 l 365 0 l 275 0 "},"ᴢ":{"ha":631,"x_min":0,"x_max":0,"o":"m 54 60 l 460 628 l 460 630 l 66 630 l 66 705 l 570 705 l 570 645 l 165 77 l 165 75 l 576 75 l 576 0 l 54 0 "},"ɶ":{"ha":1128,"x_min":0,"x_max":0,"o":"m 380 -12 b 42 352 174 -12 42 130 l 42 353 b 380 716 42 575 174 716 b 643 567 502 716 598 661 l 644 567 l 644 705 l 1086 705 l 1086 629 l 729 629 l 729 396 l 1067 396 l 1067 323 l 729 323 l 729 75 l 1086 75 l 1086 0 l 644 0 l 644 139 l 643 139 b 380 -12 598 44 500 -12 m 387 66 b 639 351 541 66 639 177 l 639 353 b 387 639 639 527 541 639 b 134 353 233 639 134 528 l 134 351 b 387 66 134 177 233 66 "},"ᴁ":{"ha":940,"x_min":0,"x_max":0,"o":"m 351 705 l 898 705 l 898 630 l 560 630 l 560 393 l 880 393 l 880 321 l 560 321 l 560 75 l 898 75 l 898 0 l 475 0 l 475 229 l 212 229 l 102 0 l 11 0 m 245 298 l 475 298 l 475 635 l 406 635 "},"ᴆ":{"ha":697,"x_min":0,"x_max":0,"o":"m 79 320 l 16 320 l 16 385 l 79 385 l 79 705 l 319 705 b 654 354 531 705 654 577 l 654 353 b 319 0 654 130 531 0 l 79 0 m 311 75 b 563 353 473 75 563 174 l 563 353 b 311 630 563 531 472 630 l 168 630 l 168 385 l 293 385 l 293 320 l 168 320 l 168 75 "},"ᴦ":{"ha":522,"x_min":0,"x_max":0,"o":"m 77 0 l 77 705 l 503 705 l 503 630 l 167 630 l 167 0 "},"ᴧ":{"ha":618,"x_min":0,"x_max":0,"o":"m 260 705 l 359 705 l 608 0 l 513 0 l 310 607 l 307 607 l 104 0 l 11 0 "},"ᴨ":{"ha":713,"x_min":0,"x_max":0,"o":"m 547 0 l 547 630 l 167 630 l 167 0 l 77 0 l 77 705 l 636 705 l 636 0 "},"ᴪ":{"ha":805,"x_min":0,"x_max":0,"o":"m 359 164 b 73 442 180 165 73 271 l 73 705 l 161 705 l 161 443 b 359 239 161 314 230 243 l 359 705 l 446 705 l 446 239 b 644 443 574 243 644 314 l 644 705 l 731 705 l 731 442 b 446 164 731 271 623 165 l 446 0 l 359 0 "},"a":{"ha":688,"x_min":0,"x_max":0,"o":"m 286 -13 b 52 195 147 -13 52 71 l 52 197 b 305 400 52 317 143 389 l 525 414 l 525 475 b 351 638 525 576 460 638 b 166 509 248 638 181 589 l 165 502 l 78 502 l 79 510 b 352 718 92 631 193 718 b 614 483 513 718 614 627 l 614 0 l 525 0 l 525 129 l 522 129 b 286 -13 484 45 391 -13 m 144 195 b 304 66 144 118 209 66 b 525 265 428 66 525 153 l 525 343 l 316 329 b 144 197 205 322 144 274 l 144 195 "},"à":{"ha":688,"x_min":0,"x_max":0,"o":"m 185 986 l 281 986 l 396 784 l 324 784 m 286 -13 b 52 195 147 -13 52 71 l 52 197 b 305 400 52 317 143 389 l 525 414 l 525 475 b 351 638 525 576 460 638 b 166 509 248 638 181 589 l 165 502 l 78 502 l 79 510 b 352 718 92 631 193 718 b 614 483 513 718 614 627 l 614 0 l 525 0 l 525 129 l 522 129 b 286 -13 484 45 391 -13 m 144 195 b 304 66 144 118 209 66 b 525 265 428 66 525 153 l 525 343 l 316 329 b 144 197 205 322 144 274 l 144 195 "},"á":{"ha":688,"x_min":0,"x_max":0,"o":"m 302 784 l 418 986 l 513 986 l 374 784 m 286 -13 b 52 195 147 -13 52 71 l 52 197 b 305 400 52 317 143 389 l 525 414 l 525 475 b 351 638 525 576 460 638 b 166 509 248 638 181 589 l 165 502 l 78 502 l 79 510 b 352 718 92 631 193 718 b 614 483 513 718 614 627 l 614 0 l 525 0 l 525 129 l 522 129 b 286 -13 484 45 391 -13 m 144 195 b 304 66 144 118 209 66 b 525 265 428 66 525 153 l 525 343 l 316 329 b 144 197 205 322 144 274 l 144 195 "},"ä":{"ha":688,"x_min":0,"x_max":0,"o":"m 229 831 b 174 886 199 831 174 856 b 229 941 174 918 199 941 b 283 886 259 941 283 918 b 229 831 283 856 259 831 m 470 831 b 415 886 440 831 415 856 b 470 941 415 918 440 941 b 525 886 501 941 525 918 b 470 831 525 856 501 831 m 286 -13 b 52 195 147 -13 52 71 l 52 197 b 305 400 52 317 143 389 l 525 414 l 525 475 b 351 638 525 576 460 638 b 166 509 248 638 181 589 l 165 502 l 78 502 l 79 510 b 352 718 92 631 193 718 b 614 483 513 718 614 627 l 614 0 l 525 0 l 525 129 l 522 129 b 286 -13 484 45 391 -13 m 144 195 b 304 66 144 118 209 66 b 525 265 428 66 525 153 l 525 343 l 316 329 b 144 197 205 322 144 274 l 144 195 "},"ǟ":{"ha":688,"x_min":0,"x_max":0,"o":"m 155 1077 l 544 1077 l 544 1009 l 155 1009 m 473 804 b 418 859 443 804 418 828 b 473 913 418 889 443 913 b 528 859 504 913 528 889 b 473 804 528 828 504 804 m 226 804 b 170 859 195 804 170 828 b 226 913 170 889 195 913 b 281 859 256 913 281 889 b 226 804 281 828 256 804 m 286 -13 b 52 195 147 -13 52 71 l 52 197 b 305 400 52 317 143 389 l 525 414 l 525 475 b 351 638 525 576 460 638 b 166 509 248 638 181 589 l 165 502 l 78 502 l 79 510 b 352 718 92 631 193 718 b 614 483 513 718 614 627 l 614 0 l 525 0 l 525 129 l 522 129 b 286 -13 484 45 391 -13 m 144 195 b 304 66 144 118 209 66 b 525 265 428 66 525 153 l 525 343 l 316 329 b 144 197 205 322 144 274 l 144 195 "},"å":{"ha":688,"x_min":0,"x_max":0,"o":"m 349 780 b 220 906 277 780 220 836 l 220 907 b 349 1032 220 976 277 1032 b 478 907 421 1032 478 976 l 478 906 b 349 780 478 836 421 780 m 349 836 b 419 906 389 836 419 867 l 419 907 b 349 976 419 945 389 976 b 279 907 310 976 279 945 l 279 906 b 349 836 279 867 310 836 m 286 -13 b 52 195 147 -13 52 71 l 52 197 b 305 400 52 317 143 389 l 525 414 l 525 475 b 351 638 525 576 460 638 b 166 509 248 638 181 589 l 165 502 l 78 502 l 79 510 b 352 718 92 631 193 718 b 614 483 513 718 614 627 l 614 0 l 525 0 l 525 129 l 522 129 b 286 -13 484 45 391 -13 m 144 195 b 304 66 144 118 209 66 b 525 265 428 66 525 153 l 525 343 l 316 329 b 144 197 205 322 144 274 l 144 195 "},"ǻ":{"ha":688,"x_min":0,"x_max":0,"o":"m 418 1273 l 512 1273 l 379 1085 l 313 1085 m 349 776 b 221 902 278 776 221 833 l 221 903 b 349 1028 221 971 278 1028 l 350 1028 b 477 903 420 1028 477 971 l 477 902 b 350 776 477 833 420 776 l 349 776 m 350 831 b 420 902 389 831 420 863 l 420 903 b 350 972 420 941 389 972 l 349 972 b 279 903 310 972 279 941 l 279 902 b 349 831 279 863 310 831 m 286 -13 b 52 195 147 -13 52 71 l 52 197 b 305 400 52 317 143 389 l 525 414 l 525 475 b 351 638 525 576 460 638 b 166 509 248 638 181 589 l 165 502 l 78 502 l 79 510 b 352 718 92 631 193 718 b 614 483 513 718 614 627 l 614 0 l 525 0 l 525 129 l 522 129 b 286 -13 484 45 391 -13 m 144 195 b 304 66 144 118 209 66 b 525 265 428 66 525 153 l 525 343 l 316 329 b 144 197 205 322 144 274 l 144 195 "},"ã":{"ha":688,"x_min":0,"x_max":0,"o":"m 444 792 b 351 834 406 792 376 810 l 327 857 b 262 896 305 878 285 896 b 220 801 232 896 220 865 l 220 793 l 155 793 l 155 802 b 254 964 155 909 191 964 b 346 922 292 964 321 946 l 370 899 b 436 861 392 878 414 861 b 479 956 467 861 479 892 l 479 963 l 544 963 l 544 954 b 444 792 544 847 508 792 m 286 -13 b 52 195 147 -13 52 71 l 52 197 b 305 400 52 317 143 389 l 525 414 l 525 475 b 351 638 525 576 460 638 b 166 509 248 638 181 589 l 165 502 l 78 502 l 79 510 b 352 718 92 631 193 718 b 614 483 513 718 614 627 l 614 0 l 525 0 l 525 129 l 522 129 b 286 -13 484 45 391 -13 m 144 195 b 304 66 144 118 209 66 b 525 265 428 66 525 153 l 525 343 l 316 329 b 144 197 205 322 144 274 l 144 195 "},"ằ":{"ha":688,"x_min":0,"x_max":0,"o":"m 186 1217 l 280 1217 l 386 1029 l 319 1029 m 349 785 b 155 970 230 785 155 859 l 155 977 l 222 977 l 222 974 b 349 850 222 905 268 850 b 476 974 431 850 476 905 l 476 977 l 544 977 l 544 970 b 349 785 544 859 469 785 m 286 -13 b 52 195 147 -13 52 71 l 52 197 b 305 400 52 317 143 389 l 525 414 l 525 475 b 351 638 525 576 460 638 b 166 509 248 638 181 589 l 165 502 l 78 502 l 79 510 b 352 718 92 631 193 718 b 614 483 513 718 614 627 l 614 0 l 525 0 l 525 129 l 522 129 b 286 -13 484 45 391 -13 m 144 195 b 304 66 144 118 209 66 b 525 265 428 66 525 153 l 525 343 l 316 329 b 144 197 205 322 144 274 l 144 195 "},"ǡ":{"ha":688,"x_min":0,"x_max":0,"o":"m 155 1077 l 544 1077 l 544 1010 l 155 1010 m 349 804 b 294 859 319 804 294 829 b 349 913 294 890 319 913 b 404 859 380 913 404 890 b 349 804 404 829 380 804 m 286 -13 b 52 195 147 -13 52 71 l 52 197 b 305 400 52 317 143 389 l 525 414 l 525 475 b 351 638 525 576 460 638 b 166 509 248 638 181 589 l 165 502 l 78 502 l 79 510 b 352 718 92 631 193 718 b 614 483 513 718 614 627 l 614 0 l 525 0 l 525 129 l 522 129 b 286 -13 484 45 391 -13 m 144 195 b 304 66 144 118 209 66 b 525 265 428 66 525 153 l 525 343 l 316 329 b 144 197 205 322 144 274 l 144 195 "},"ḁ":{"ha":688,"x_min":0,"x_max":0,"o":"m 286 -13 b 52 195 147 -13 52 71 l 52 197 b 305 400 52 317 143 389 l 525 414 l 525 475 b 351 638 525 576 460 638 b 166 509 248 638 181 589 l 165 502 l 78 502 l 79 510 b 352 718 92 631 193 718 b 614 483 513 718 614 627 l 614 0 l 525 0 l 525 129 l 522 129 b 286 -13 484 45 391 -13 m 144 195 b 304 66 144 118 209 66 b 525 265 428 66 525 153 l 525 343 l 316 329 b 144 197 205 322 144 274 l 144 195 m 350 -71 b 477 -197 420 -71 477 -127 l 477 -197 b 350 -323 477 -266 420 -323 l 349 -323 b 221 -197 278 -323 221 -266 l 221 -197 b 349 -71 221 -127 278 -71 l 350 -71 m 349 -126 b 279 -197 309 -126 279 -158 l 279 -197 b 349 -267 279 -236 309 -267 l 350 -267 b 420 -197 389 -267 420 -236 l 420 -197 b 350 -126 420 -158 389 -126 "},"â":{"ha":688,"x_min":0,"x_max":0,"o":"m 307 985 l 391 985 l 544 787 l 464 787 l 349 934 l 235 787 l 155 787 m 286 -13 b 52 195 147 -13 52 71 l 52 197 b 305 400 52 317 143 389 l 525 414 l 525 475 b 351 638 525 576 460 638 b 166 509 248 638 181 589 l 165 502 l 78 502 l 79 510 b 352 718 92 631 193 718 b 614 483 513 718 614 627 l 614 0 l 525 0 l 525 129 l 522 129 b 286 -13 484 45 391 -13 m 144 195 b 304 66 144 118 209 66 b 525 265 428 66 525 153 l 525 343 l 316 329 b 144 197 205 322 144 274 l 144 195 "},"ậ":{"ha":688,"x_min":0,"x_max":0,"o":"m 307 985 l 391 985 l 544 787 l 464 787 l 349 934 l 235 787 l 155 787 m 286 -13 b 52 195 147 -13 52 71 l 52 197 b 305 400 52 317 143 389 l 525 414 l 525 475 b 351 638 525 576 460 638 b 166 509 248 638 181 589 l 165 502 l 78 502 l 79 510 b 352 718 92 631 193 718 b 614 483 513 718 614 627 l 614 0 l 525 0 l 525 129 l 522 129 b 286 -13 484 45 391 -13 m 144 195 b 304 66 144 118 209 66 b 525 265 428 66 525 153 l 525 343 l 316 329 b 144 197 205 322 144 274 l 144 195 m 349 -246 b 290 -187 317 -246 290 -220 b 349 -127 290 -153 317 -127 b 409 -187 382 -127 409 -153 b 349 -246 409 -220 382 -246 "},"ấ":{"ha":688,"x_min":0,"x_max":0,"o":"m 568 1198 l 661 1198 l 528 1010 l 463 1010 m 308 985 l 391 985 l 545 787 l 465 787 l 349 934 l 233 787 l 153 787 m 286 -13 b 52 195 147 -13 52 71 l 52 197 b 305 400 52 317 143 389 l 525 414 l 525 475 b 351 638 525 576 460 638 b 166 509 248 638 181 589 l 165 502 l 78 502 l 79 510 b 352 718 92 631 193 718 b 614 483 513 718 614 627 l 614 0 l 525 0 l 525 129 l 522 129 b 286 -13 484 45 391 -13 m 144 195 b 304 66 144 118 209 66 b 525 265 428 66 525 153 l 525 343 l 316 329 b 144 197 205 322 144 274 l 144 195 "},"ẫ":{"ha":688,"x_min":0,"x_max":0,"o":"m 450 1040 b 353 1081 413 1040 382 1055 l 329 1103 b 261 1140 305 1124 283 1140 b 218 1048 230 1140 218 1110 l 218 1040 l 153 1040 l 153 1049 b 250 1207 153 1154 188 1207 b 348 1165 286 1207 319 1191 l 372 1144 b 439 1106 395 1122 417 1106 b 483 1198 469 1106 483 1136 l 483 1206 l 547 1206 l 547 1197 b 450 1040 547 1093 511 1040 m 308 985 l 391 985 l 545 787 l 465 787 l 349 934 l 233 787 l 153 787 m 286 -13 b 52 195 147 -13 52 71 l 52 197 b 305 400 52 317 143 389 l 525 414 l 525 475 b 351 638 525 576 460 638 b 166 509 248 638 181 589 l 165 502 l 78 502 l 79 510 b 352 718 92 631 193 718 b 614 483 513 718 614 627 l 614 0 l 525 0 l 525 129 l 522 129 b 286 -13 484 45 391 -13 m 144 195 b 304 66 144 118 209 66 b 525 265 428 66 525 153 l 525 343 l 316 329 b 144 197 205 322 144 274 l 144 195 "},"ầ":{"ha":688,"x_min":0,"x_max":0,"o":"m 336 1198 l 430 1198 l 535 1010 l 469 1010 m 288 985 l 371 985 l 526 787 l 446 787 l 330 934 l 214 787 l 134 787 m 286 -13 b 52 195 147 -13 52 71 l 52 197 b 305 400 52 317 143 389 l 525 414 l 525 475 b 351 638 525 576 460 638 b 166 509 248 638 181 589 l 165 502 l 78 502 l 79 510 b 352 718 92 631 193 718 b 614 483 513 718 614 627 l 614 0 l 525 0 l 525 129 l 522 129 b 286 -13 484 45 391 -13 m 144 195 b 304 66 144 118 209 66 b 525 265 428 66 525 153 l 525 343 l 316 329 b 144 197 205 322 144 274 l 144 195 "},"ẩ":{"ha":688,"x_min":0,"x_max":0,"o":"m 458 1008 b 519 1090 499 1039 519 1066 b 441 1139 519 1119 487 1139 b 403 1135 423 1139 412 1137 l 403 1190 b 463 1200 416 1196 439 1200 b 589 1103 532 1200 589 1162 b 528 1006 589 1066 568 1034 l 458 1006 m 308 985 l 391 985 l 545 787 l 465 787 l 349 934 l 233 787 l 153 787 m 286 -13 b 52 195 147 -13 52 71 l 52 197 b 305 400 52 317 143 389 l 525 414 l 525 475 b 351 638 525 576 460 638 b 166 509 248 638 181 589 l 165 502 l 78 502 l 79 510 b 352 718 92 631 193 718 b 614 483 513 718 614 627 l 614 0 l 525 0 l 525 129 l 522 129 b 286 -13 484 45 391 -13 m 144 195 b 304 66 144 118 209 66 b 525 265 428 66 525 153 l 525 343 l 316 329 b 144 197 205 322 144 274 l 144 195 "},"ă":{"ha":688,"x_min":0,"x_max":0,"o":"m 349 785 b 155 970 230 785 155 859 l 155 977 l 222 977 l 222 974 b 349 850 222 905 268 850 b 476 974 431 850 476 905 l 476 977 l 544 977 l 544 970 b 349 785 544 859 469 785 m 286 -13 b 52 195 147 -13 52 71 l 52 197 b 305 400 52 317 143 389 l 525 414 l 525 475 b 351 638 525 576 460 638 b 166 509 248 638 181 589 l 165 502 l 78 502 l 79 510 b 352 718 92 631 193 718 b 614 483 513 718 614 627 l 614 0 l 525 0 l 525 129 l 522 129 b 286 -13 484 45 391 -13 m 144 195 b 304 66 144 118 209 66 b 525 265 428 66 525 153 l 525 343 l 316 329 b 144 197 205 322 144 274 l 144 195 "},"ắ":{"ha":688,"x_min":0,"x_max":0,"o":"m 418 1217 l 512 1217 l 379 1029 l 313 1029 m 349 785 b 155 970 230 785 155 859 l 155 977 l 222 977 l 222 974 b 349 850 222 905 268 850 b 476 974 431 850 476 905 l 476 977 l 544 977 l 544 970 b 349 785 544 859 469 785 m 286 -13 b 52 195 147 -13 52 71 l 52 197 b 305 400 52 317 143 389 l 525 414 l 525 475 b 351 638 525 576 460 638 b 166 509 248 638 181 589 l 165 502 l 78 502 l 79 510 b 352 718 92 631 193 718 b 614 483 513 718 614 627 l 614 0 l 525 0 l 525 129 l 522 129 b 286 -13 484 45 391 -13 m 144 195 b 304 66 144 118 209 66 b 525 265 428 66 525 153 l 525 343 l 316 329 b 144 197 205 322 144 274 l 144 195 "},"ẵ":{"ha":688,"x_min":0,"x_max":0,"o":"m 450 1035 b 352 1077 412 1035 381 1051 l 328 1098 b 260 1136 304 1120 282 1136 b 217 1044 230 1136 217 1106 l 217 1036 l 153 1036 l 153 1045 b 249 1202 153 1149 187 1202 b 347 1161 286 1202 319 1186 l 371 1139 b 439 1102 395 1118 417 1102 b 482 1194 469 1102 482 1132 l 482 1202 l 547 1202 l 547 1193 b 450 1035 547 1088 511 1035 m 349 785 b 155 970 230 785 155 859 l 155 977 l 222 977 l 222 974 b 349 850 222 905 268 850 b 476 974 431 850 476 905 l 476 977 l 544 977 l 544 970 b 349 785 544 859 469 785 m 286 -13 b 52 195 147 -13 52 71 l 52 197 b 305 400 52 317 143 389 l 525 414 l 525 475 b 351 638 525 576 460 638 b 166 509 248 638 181 589 l 165 502 l 78 502 l 79 510 b 352 718 92 631 193 718 b 614 483 513 718 614 627 l 614 0 l 525 0 l 525 129 l 522 129 b 286 -13 484 45 391 -13 m 144 195 b 304 66 144 118 209 66 b 525 265 428 66 525 153 l 525 343 l 316 329 b 144 197 205 322 144 274 l 144 195 "},"ẳ":{"ha":688,"x_min":0,"x_max":0,"o":"m 309 1027 b 370 1109 349 1058 370 1085 b 292 1158 370 1139 338 1158 b 254 1154 273 1158 262 1156 l 254 1210 b 314 1219 267 1215 289 1219 b 440 1122 382 1219 440 1181 b 378 1025 440 1086 418 1053 l 309 1025 m 349 785 b 155 970 230 785 155 859 l 155 977 l 222 977 l 222 974 b 349 850 222 905 268 850 b 476 974 431 850 476 905 l 476 977 l 544 977 l 544 970 b 349 785 544 859 469 785 m 286 -13 b 52 195 147 -13 52 71 l 52 197 b 305 400 52 317 143 389 l 525 414 l 525 475 b 351 638 525 576 460 638 b 166 509 248 638 181 589 l 165 502 l 78 502 l 79 510 b 352 718 92 631 193 718 b 614 483 513 718 614 627 l 614 0 l 525 0 l 525 129 l 522 129 b 286 -13 484 45 391 -13 m 144 195 b 304 66 144 118 209 66 b 525 265 428 66 525 153 l 525 343 l 316 329 b 144 197 205 322 144 274 l 144 195 "},"ặ":{"ha":688,"x_min":0,"x_max":0,"o":"m 349 785 b 155 970 230 785 155 859 l 155 977 l 222 977 l 222 974 b 349 850 222 905 268 850 b 476 974 431 850 476 905 l 476 977 l 544 977 l 544 970 b 349 785 544 859 469 785 m 286 -13 b 52 195 147 -13 52 71 l 52 197 b 305 400 52 317 143 389 l 525 414 l 525 475 b 351 638 525 576 460 638 b 166 509 248 638 181 589 l 165 502 l 78 502 l 79 510 b 352 718 92 631 193 718 b 614 483 513 718 614 627 l 614 0 l 525 0 l 525 129 l 522 129 b 286 -13 484 45 391 -13 m 144 195 b 304 66 144 118 209 66 b 525 265 428 66 525 153 l 525 343 l 316 329 b 144 197 205 322 144 274 l 144 195 m 349 -246 b 290 -187 317 -246 290 -220 b 349 -127 290 -153 317 -127 b 409 -187 382 -127 409 -153 b 349 -246 409 -220 382 -246 "},"ȃ":{"ha":688,"x_min":0,"x_max":0,"o":"m 349 977 b 536 791 464 977 536 903 l 536 785 l 469 785 l 469 789 b 349 912 469 857 426 912 b 230 789 273 912 230 857 l 230 785 l 162 785 l 162 791 b 349 977 162 903 235 977 m 286 -13 b 52 195 147 -13 52 71 l 52 197 b 305 400 52 317 143 389 l 525 414 l 525 475 b 351 638 525 576 460 638 b 166 509 248 638 181 589 l 165 502 l 78 502 l 79 510 b 352 718 92 631 193 718 b 614 483 513 718 614 627 l 614 0 l 525 0 l 525 129 l 522 129 b 286 -13 484 45 391 -13 m 144 195 b 304 66 144 118 209 66 b 525 265 428 66 525 153 l 525 343 l 316 329 b 144 197 205 322 144 274 l 144 195 "},"ǎ":{"ha":688,"x_min":0,"x_max":0,"o":"m 390 787 l 309 787 l 155 985 l 235 985 l 349 836 l 464 985 l 544 985 m 286 -13 b 52 195 147 -13 52 71 l 52 197 b 305 400 52 317 143 389 l 525 414 l 525 475 b 351 638 525 576 460 638 b 166 509 248 638 181 589 l 165 502 l 78 502 l 79 510 b 352 718 92 631 193 718 b 614 483 513 718 614 627 l 614 0 l 525 0 l 525 129 l 522 129 b 286 -13 484 45 391 -13 m 144 195 b 304 66 144 118 209 66 b 525 265 428 66 525 153 l 525 343 l 316 329 b 144 197 205 322 144 274 l 144 195 "},"ȧ":{"ha":688,"x_min":0,"x_max":0,"o":"m 349 833 b 290 892 317 833 290 859 b 349 951 290 926 317 951 b 409 892 382 951 409 926 b 349 833 409 859 382 833 m 286 -13 b 52 195 147 -13 52 71 l 52 197 b 305 400 52 317 143 389 l 525 414 l 525 475 b 351 638 525 576 460 638 b 166 509 248 638 181 589 l 165 502 l 78 502 l 79 510 b 352 718 92 631 193 718 b 614 483 513 718 614 627 l 614 0 l 525 0 l 525 129 l 522 129 b 286 -13 484 45 391 -13 m 144 195 b 304 66 144 118 209 66 b 525 265 428 66 525 153 l 525 343 l 316 329 b 144 197 205 322 144 274 l 144 195 "},"ạ":{"ha":688,"x_min":0,"x_max":0,"o":"m 286 -13 b 52 195 147 -13 52 71 l 52 197 b 305 400 52 317 143 389 l 525 414 l 525 475 b 351 638 525 576 460 638 b 166 509 248 638 181 589 l 165 502 l 78 502 l 79 510 b 352 718 92 631 193 718 b 614 483 513 718 614 627 l 614 0 l 525 0 l 525 129 l 522 129 b 286 -13 484 45 391 -13 m 144 195 b 304 66 144 118 209 66 b 525 265 428 66 525 153 l 525 343 l 316 329 b 144 197 205 322 144 274 l 144 195 m 349 -246 b 290 -187 317 -246 290 -220 b 349 -127 290 -153 317 -127 b 409 -187 382 -127 409 -153 b 349 -246 409 -220 382 -246 "},"ả":{"ha":688,"x_min":0,"x_max":0,"o":"m 306 786 b 374 876 351 820 374 848 b 288 930 374 909 338 930 b 245 927 269 930 254 928 l 245 983 b 311 992 260 987 284 992 b 444 890 385 992 444 951 b 376 784 444 848 420 814 l 306 784 m 286 -13 b 52 195 147 -13 52 71 l 52 197 b 305 400 52 317 143 389 l 525 414 l 525 475 b 351 638 525 576 460 638 b 166 509 248 638 181 589 l 165 502 l 78 502 l 79 510 b 352 718 92 631 193 718 b 614 483 513 718 614 627 l 614 0 l 525 0 l 525 129 l 522 129 b 286 -13 484 45 391 -13 m 144 195 b 304 66 144 118 209 66 b 525 265 428 66 525 153 l 525 343 l 316 329 b 144 197 205 322 144 274 l 144 195 "},"ȁ":{"ha":688,"x_min":0,"x_max":0,"o":"m 65 986 l 161 986 l 290 784 l 218 784 m 287 986 l 382 986 l 497 784 l 425 784 m 286 -13 b 52 195 147 -13 52 71 l 52 197 b 305 400 52 317 143 389 l 525 414 l 525 475 b 351 638 525 576 460 638 b 166 509 248 638 181 589 l 165 502 l 78 502 l 79 510 b 352 718 92 631 193 718 b 614 483 513 718 614 627 l 614 0 l 525 0 l 525 129 l 522 129 b 286 -13 484 45 391 -13 m 144 195 b 304 66 144 118 209 66 b 525 265 428 66 525 153 l 525 343 l 316 329 b 144 197 205 322 144 274 l 144 195 "},"ā":{"ha":688,"x_min":0,"x_max":0,"o":"m 170 920 l 528 920 l 528 852 l 170 852 m 286 -13 b 52 195 147 -13 52 71 l 52 197 b 305 400 52 317 143 389 l 525 414 l 525 475 b 351 638 525 576 460 638 b 166 509 248 638 181 589 l 165 502 l 78 502 l 79 510 b 352 718 92 631 193 718 b 614 483 513 718 614 627 l 614 0 l 525 0 l 525 129 l 522 129 b 286 -13 484 45 391 -13 m 144 195 b 304 66 144 118 209 66 b 525 265 428 66 525 153 l 525 343 l 316 329 b 144 197 205 322 144 274 l 144 195 "},"ą":{"ha":688,"x_min":0,"x_max":0,"o":"m 286 -13 b 52 195 147 -13 52 71 l 52 197 b 305 400 52 317 143 389 l 525 414 l 525 475 b 351 638 525 576 460 638 b 166 509 248 638 181 589 l 165 502 l 78 502 l 79 510 b 352 718 92 631 193 718 b 614 483 513 718 614 627 l 614 0 b 506 -163 543 -51 506 -100 l 506 -164 b 579 -245 506 -217 538 -245 b 625 -235 596 -245 612 -242 l 625 -297 b 562 -309 608 -306 581 -309 b 422 -176 488 -309 422 -265 l 422 -175 b 525 3 422 -109 458 -47 l 525 129 l 522 129 b 286 -13 484 45 391 -13 m 144 195 b 304 66 144 118 209 66 b 525 265 428 66 525 153 l 525 343 l 316 329 b 144 197 205 322 144 274 l 144 195 "},"ɐ":{"ha":688,"x_min":0,"x_max":0,"o":"m 402 718 b 636 510 541 718 636 635 l 636 509 b 383 305 636 389 545 316 l 163 292 l 163 231 b 337 67 163 129 227 67 b 522 197 440 67 507 117 l 524 203 l 610 203 l 609 195 b 336 -13 596 74 496 -13 b 73 222 174 -13 73 78 l 73 705 l 163 705 l 163 576 l 165 576 b 402 718 204 661 298 718 m 163 362 l 372 376 b 545 509 482 383 545 431 l 545 510 b 384 640 545 587 479 640 b 163 440 260 640 163 553 "},"ɑ":{"ha":757,"x_min":0,"x_max":0,"o":"m 340 -13 b 42 353 163 -13 42 132 l 42 353 b 340 718 42 574 163 718 b 581 558 450 718 541 656 l 583 558 l 583 705 l 673 705 l 673 0 l 583 0 l 583 146 l 581 146 b 340 -13 540 50 452 -13 m 357 67 b 584 353 490 67 584 182 l 584 353 b 357 638 584 523 489 638 b 134 353 222 638 134 526 l 134 353 b 357 67 134 178 222 67 "},"ɒ":{"ha":757,"x_min":0,"x_max":0,"o":"m 416 718 b 715 353 594 718 715 573 l 715 352 b 417 -13 715 132 593 -13 b 176 147 307 -13 216 50 l 174 147 l 174 0 l 83 0 l 83 705 l 174 705 l 174 559 l 176 559 b 416 718 217 656 305 718 m 399 638 b 173 353 267 638 173 523 l 173 352 b 399 67 173 182 268 67 b 623 352 535 67 623 179 l 623 353 b 399 638 623 527 535 638 "},"b":{"ha":757,"x_min":0,"x_max":0,"o":"m 416 -13 b 176 149 305 -13 216 50 l 174 149 l 174 0 l 83 0 l 83 979 l 174 979 l 174 558 l 176 558 b 417 718 216 656 307 718 b 715 353 593 718 715 574 l 715 353 b 416 -13 715 132 594 -13 m 399 67 b 623 353 535 67 623 178 l 623 353 b 399 638 623 526 535 638 b 173 353 268 638 173 523 l 173 353 b 399 67 173 182 267 67 "},"ḇ":{"ha":757,"x_min":0,"x_max":0,"o":"m 416 -13 b 176 149 305 -13 216 50 l 174 149 l 174 0 l 83 0 l 83 979 l 174 979 l 174 558 l 176 558 b 417 718 216 656 307 718 b 715 353 593 718 715 574 l 715 353 b 416 -13 715 132 594 -13 m 399 67 b 623 353 535 67 623 178 l 623 353 b 399 638 623 526 535 638 b 173 353 268 638 173 523 l 173 353 b 399 67 173 182 267 67 m 220 -147 l 578 -147 l 578 -215 l 220 -215 "},"ḅ":{"ha":757,"x_min":0,"x_max":0,"o":"m 416 -13 b 176 149 305 -13 216 50 l 174 149 l 174 0 l 83 0 l 83 979 l 174 979 l 174 558 l 176 558 b 417 718 216 656 307 718 b 715 353 593 718 715 574 l 715 353 b 416 -13 715 132 594 -13 m 399 67 b 623 353 535 67 623 178 l 623 353 b 399 638 623 526 535 638 b 173 353 268 638 173 523 l 173 353 b 399 67 173 182 267 67 m 399 -246 b 340 -187 366 -246 340 -220 b 399 -127 340 -153 366 -127 b 459 -187 433 -127 459 -153 b 399 -246 459 -220 433 -246 "},"ḃ":{"ha":757,"x_min":0,"x_max":0,"o":"m 128 1099 b 72 1156 98 1099 72 1125 b 128 1213 72 1187 98 1213 b 185 1156 159 1213 185 1187 b 128 1099 185 1125 159 1099 m 416 -13 b 176 149 305 -13 216 50 l 174 149 l 174 0 l 83 0 l 83 979 l 174 979 l 174 558 l 176 558 b 417 718 216 656 307 718 b 715 353 593 718 715 574 l 715 353 b 416 -13 715 132 594 -13 m 399 67 b 623 353 535 67 623 178 l 623 353 b 399 638 623 526 535 638 b 173 353 268 638 173 523 l 173 353 b 399 67 173 182 267 67 "},"ɓ":{"ha":757,"x_min":0,"x_max":0,"o":"m 416 -13 b 176 149 305 -13 216 50 l 174 149 l 174 0 l 83 0 l 83 802 b 273 991 83 930 144 991 b 328 988 290 991 316 990 l 328 914 b 283 916 317 915 298 916 b 174 802 208 916 174 880 l 174 558 l 176 558 b 417 718 216 656 307 718 b 715 353 593 718 715 574 l 715 353 b 416 -13 715 132 594 -13 m 399 67 b 623 353 535 67 623 178 l 623 353 b 399 638 623 526 535 638 b 173 353 268 638 173 523 l 173 353 b 399 67 173 182 267 67 "},"c":{"ha":686,"x_min":0,"x_max":0,"o":"m 363 -13 b 42 353 167 -13 42 129 l 42 354 b 362 718 42 576 169 718 b 650 490 526 718 633 612 l 651 484 l 563 484 l 562 490 b 362 638 542 572 472 638 b 134 353 224 638 134 528 l 134 352 b 363 67 134 174 226 67 b 562 216 468 67 541 127 l 563 221 l 652 221 l 651 216 b 363 -13 630 84 517 -13 "},"ć":{"ha":686,"x_min":0,"x_max":0,"o":"m 316 784 l 431 986 l 527 986 l 388 784 m 363 -13 b 42 353 167 -13 42 129 l 42 354 b 362 718 42 576 169 718 b 650 490 526 718 633 612 l 651 484 l 563 484 l 562 490 b 362 638 542 572 472 638 b 134 353 224 638 134 528 l 134 352 b 363 67 134 174 226 67 b 562 216 468 67 541 127 l 563 221 l 652 221 l 651 216 b 363 -13 630 84 517 -13 "},"č":{"ha":686,"x_min":0,"x_max":0,"o":"m 404 787 l 323 787 l 169 985 l 249 985 l 363 836 l 477 985 l 557 985 m 363 -13 b 42 353 167 -13 42 129 l 42 354 b 362 718 42 576 169 718 b 650 490 526 718 633 612 l 651 484 l 563 484 l 562 490 b 362 638 542 572 472 638 b 134 353 224 638 134 528 l 134 352 b 363 67 134 174 226 67 b 562 216 468 67 541 127 l 563 221 l 652 221 l 651 216 b 363 -13 630 84 517 -13 "},"ĉ":{"ha":686,"x_min":0,"x_max":0,"o":"m 320 985 l 406 985 l 557 787 l 477 787 l 363 934 l 249 787 l 169 787 m 363 -13 b 42 353 167 -13 42 129 l 42 354 b 362 718 42 576 169 718 b 650 490 526 718 633 612 l 651 484 l 563 484 l 562 490 b 362 638 542 572 472 638 b 134 353 224 638 134 528 l 134 352 b 363 67 134 174 226 67 b 562 216 468 67 541 127 l 563 221 l 652 221 l 651 216 b 363 -13 630 84 517 -13 "},"ċ":{"ha":686,"x_min":0,"x_max":0,"o":"m 363 833 b 303 892 330 833 303 859 b 363 951 303 926 330 951 b 422 892 396 951 422 926 b 363 833 422 859 396 833 m 363 -13 b 42 353 167 -13 42 129 l 42 354 b 362 718 42 576 169 718 b 650 490 526 718 633 612 l 651 484 l 563 484 l 562 490 b 362 638 542 572 472 638 b 134 353 224 638 134 528 l 134 352 b 363 67 134 174 226 67 b 562 216 468 67 541 127 l 563 221 l 652 221 l 651 216 b 363 -13 630 84 517 -13 "},"ç":{"ha":686,"x_min":0,"x_max":0,"o":"m 353 -302 b 256 -283 313 -302 275 -294 l 256 -224 b 334 -239 272 -232 303 -239 b 409 -187 374 -239 409 -223 l 409 -186 b 319 -129 409 -147 376 -129 l 292 -129 l 292 -82 l 335 -12 b 42 353 155 1 42 140 l 42 354 b 362 718 42 576 169 718 b 650 490 526 718 633 612 l 651 484 l 563 484 l 562 490 b 362 638 542 572 472 638 b 134 353 224 638 134 528 l 134 352 b 363 67 134 174 226 67 b 562 216 468 67 541 127 l 563 221 l 652 221 l 651 216 b 401 -11 632 96 536 4 l 366 -71 b 490 -184 439 -74 490 -112 l 490 -185 b 353 -302 490 -260 425 -302 "},"ḉ":{"ha":686,"x_min":0,"x_max":0,"o":"m 316 784 l 431 986 l 527 986 l 388 784 m 353 -302 b 256 -283 313 -302 275 -294 l 256 -224 b 334 -239 272 -232 303 -239 b 409 -187 374 -239 409 -223 l 409 -186 b 319 -129 409 -147 376 -129 l 292 -129 l 292 -82 l 335 -12 b 42 353 155 1 42 140 l 42 354 b 362 718 42 576 169 718 b 650 490 526 718 633 612 l 651 484 l 563 484 l 562 490 b 362 638 542 572 472 638 b 134 353 224 638 134 528 l 134 352 b 363 67 134 174 226 67 b 562 216 468 67 541 127 l 563 221 l 652 221 l 651 216 b 401 -11 632 96 536 4 l 366 -71 b 490 -184 439 -74 490 -112 l 490 -185 b 353 -302 490 -260 425 -302 "},"ɕ":{"ha":687,"x_min":0,"x_max":0,"o":"m 357 -12 b 42 351 174 3 42 125 l 42 353 b 361 718 42 576 169 718 b 649 494 522 718 626 618 l 651 482 l 563 482 l 561 491 b 361 638 540 574 469 638 b 134 353 224 638 134 528 l 134 351 b 357 60 134 180 207 75 l 357 104 b 518 304 357 227 416 304 b 663 165 601 304 663 245 l 663 164 b 435 -11 663 68 568 0 l 435 -152 l 357 -152 m 435 59 b 582 161 535 68 582 109 l 582 162 b 516 229 582 203 553 229 b 435 110 469 229 435 193 "},"ʗ":{"ha":686,"x_min":0,"x_max":0,"o":"m 363 -250 b 42 229 167 -250 42 -63 l 42 231 b 362 707 42 520 169 707 b 650 424 526 707 633 570 l 651 416 l 563 416 l 562 423 b 362 625 542 534 472 625 b 134 229 224 625 134 471 l 134 228 b 363 -168 134 -18 226 -168 b 562 35 468 -168 541 -85 l 563 41 l 652 41 l 651 35 b 363 -250 630 -129 517 -250 "},"d":{"ha":757,"x_min":0,"x_max":0,"o":"m 340 -13 b 42 353 163 -13 42 132 l 42 353 b 340 718 42 574 163 718 b 581 558 450 718 541 656 l 583 558 l 583 979 l 673 979 l 673 0 l 583 0 l 583 146 l 581 146 b 340 -13 540 50 452 -13 m 357 67 b 584 353 490 67 584 182 l 584 353 b 357 638 584 523 489 638 b 134 353 222 638 134 526 l 134 353 b 357 67 134 178 222 67 "},"ḋ":{"ha":757,"x_min":0,"x_max":0,"o":"m 628 1099 b 572 1156 597 1099 572 1125 b 628 1213 572 1187 597 1213 b 685 1156 659 1213 685 1187 b 628 1099 685 1125 659 1099 m 340 -13 b 42 353 163 -13 42 132 l 42 353 b 340 718 42 574 163 718 b 581 558 450 718 541 656 l 583 558 l 583 979 l 673 979 l 673 0 l 583 0 l 583 146 l 581 146 b 340 -13 540 50 452 -13 m 357 67 b 584 353 490 67 584 182 l 584 353 b 357 638 584 523 489 638 b 134 353 222 638 134 526 l 134 353 b 357 67 134 178 222 67 "},"ḓ":{"ha":757,"x_min":0,"x_max":0,"o":"m 340 -13 b 42 353 163 -13 42 132 l 42 353 b 340 718 42 574 163 718 b 581 558 450 718 541 656 l 583 558 l 583 979 l 673 979 l 673 0 l 583 0 l 583 146 l 581 146 b 340 -13 540 50 452 -13 m 357 67 b 584 353 490 67 584 182 l 584 353 b 357 638 584 523 489 638 b 134 353 222 638 134 526 l 134 353 b 357 67 134 178 222 67 m 370 -82 l 452 -82 l 606 -280 l 526 -280 l 411 -131 l 297 -280 l 217 -280 "},"ḑ":{"ha":757,"x_min":0,"x_max":0,"o":"m 340 -13 b 42 353 163 -13 42 132 l 42 353 b 340 718 42 574 163 718 b 581 558 450 718 541 656 l 583 558 l 583 979 l 673 979 l 673 0 l 583 0 l 583 146 l 581 146 b 340 -13 540 50 452 -13 m 357 67 b 584 353 490 67 584 182 l 584 353 b 357 638 584 523 489 638 b 134 353 222 638 134 526 l 134 353 b 357 67 134 178 222 67 m 366 -82 l 454 -82 l 368 -302 l 308 -302 "},"ḏ":{"ha":757,"x_min":0,"x_max":0,"o":"m 340 -13 b 42 353 163 -13 42 132 l 42 353 b 340 718 42 574 163 718 b 581 558 450 718 541 656 l 583 558 l 583 979 l 673 979 l 673 0 l 583 0 l 583 146 l 581 146 b 340 -13 540 50 452 -13 m 357 67 b 584 353 490 67 584 182 l 584 353 b 357 638 584 523 489 638 b 134 353 222 638 134 526 l 134 353 b 357 67 134 178 222 67 m 233 -147 l 590 -147 l 590 -215 l 233 -215 "},"ď":{"ha":863,"x_min":0,"x_max":0,"o":"m 781 985 l 863 985 l 785 787 l 728 787 m 340 -13 b 42 353 163 -13 42 132 l 42 353 b 340 718 42 574 163 718 b 581 558 450 718 541 656 l 583 558 l 583 979 l 673 979 l 673 0 l 583 0 l 583 146 l 581 146 b 340 -13 540 50 452 -13 m 357 67 b 584 353 490 67 584 182 l 584 353 b 357 638 584 523 489 638 b 134 353 222 638 134 526 l 134 353 b 357 67 134 178 222 67 "},"ḍ":{"ha":757,"x_min":0,"x_max":0,"o":"m 340 -13 b 42 353 163 -13 42 132 l 42 353 b 340 718 42 574 163 718 b 581 558 450 718 541 656 l 583 558 l 583 979 l 673 979 l 673 0 l 583 0 l 583 146 l 581 146 b 340 -13 540 50 452 -13 m 357 67 b 584 353 490 67 584 182 l 584 353 b 357 638 584 523 489 638 b 134 353 222 638 134 526 l 134 353 b 357 67 134 178 222 67 m 411 -246 b 351 -187 378 -246 351 -220 b 411 -127 351 -153 378 -127 b 471 -187 444 -127 471 -153 b 411 -246 471 -220 444 -246 "},"đ":{"ha":785,"x_min":0,"x_max":0,"o":"m 340 -13 b 42 353 163 -13 42 132 l 42 353 b 340 718 42 574 163 718 b 581 558 450 718 541 656 l 583 558 l 583 814 l 448 814 l 448 880 l 583 880 l 583 979 l 673 979 l 673 880 l 757 880 l 757 814 l 673 814 l 673 0 l 583 0 l 583 146 l 581 146 b 340 -13 540 50 452 -13 m 357 67 b 584 353 490 67 584 182 l 584 353 b 357 638 584 523 489 638 b 134 353 222 638 134 526 l 134 353 b 357 67 134 178 222 67 "},"ɗ":{"ha":757,"x_min":0,"x_max":0,"o":"m 340 -13 b 42 353 163 -13 42 132 l 42 353 b 340 718 42 574 163 718 b 581 558 450 718 541 656 l 583 558 l 583 802 b 772 991 583 930 644 991 b 828 988 791 991 816 990 l 828 914 b 783 916 818 915 798 916 b 673 802 708 916 673 880 l 673 0 l 583 0 l 583 146 l 581 146 b 340 -13 540 50 452 -13 m 357 67 b 584 353 490 67 584 182 l 584 353 b 357 638 584 523 489 638 b 134 353 222 638 134 526 l 134 353 b 357 67 134 178 222 67 "},"ɖ":{"ha":757,"x_min":0,"x_max":0,"o":"m 340 -13 b 42 353 163 -13 42 132 l 42 353 b 340 718 42 574 163 718 b 581 558 450 718 541 656 l 583 558 l 583 979 l 673 979 l 673 -49 b 783 -162 673 -126 708 -162 b 828 -160 798 -162 818 -161 l 828 -234 b 772 -237 816 -236 791 -237 b 583 -48 644 -237 583 -177 l 583 146 l 581 146 b 340 -13 540 50 452 -13 m 357 67 b 584 353 490 67 584 182 l 584 353 b 357 638 584 523 489 638 b 134 353 222 638 134 526 l 134 353 b 357 67 134 178 222 67 "},"e":{"ha":705,"x_min":0,"x_max":0,"o":"m 363 -13 b 42 351 165 -13 42 127 l 42 351 b 355 718 42 572 167 718 b 663 366 544 718 663 577 l 663 331 l 133 331 b 365 67 136 163 226 67 b 564 196 469 67 541 119 l 565 202 l 654 202 l 652 195 b 363 -13 628 75 515 -13 m 355 638 b 134 402 235 638 145 552 l 572 402 b 355 638 562 556 475 638 "},"è":{"ha":705,"x_min":0,"x_max":0,"o":"m 197 986 l 292 986 l 408 784 l 336 784 m 363 -13 b 42 351 165 -13 42 127 l 42 351 b 355 718 42 572 167 718 b 663 366 544 718 663 577 l 663 331 l 133 331 b 365 67 136 163 226 67 b 564 196 469 67 541 119 l 565 202 l 654 202 l 652 195 b 363 -13 628 75 515 -13 m 355 638 b 134 402 235 638 145 552 l 572 402 b 355 638 562 556 475 638 "},"ȅ":{"ha":705,"x_min":0,"x_max":0,"o":"m 77 986 l 172 986 l 301 784 l 230 784 m 298 986 l 394 986 l 509 784 l 437 784 m 363 -13 b 42 351 165 -13 42 127 l 42 351 b 355 718 42 572 167 718 b 663 366 544 718 663 577 l 663 331 l 133 331 b 365 67 136 163 226 67 b 564 196 469 67 541 119 l 565 202 l 654 202 l 652 195 b 363 -13 628 75 515 -13 m 355 638 b 134 402 235 638 145 552 l 572 402 b 355 638 562 556 475 638 "},"é":{"ha":705,"x_min":0,"x_max":0,"o":"m 314 784 l 429 986 l 525 986 l 386 784 m 363 -13 b 42 351 165 -13 42 127 l 42 351 b 355 718 42 572 167 718 b 663 366 544 718 663 577 l 663 331 l 133 331 b 365 67 136 163 226 67 b 564 196 469 67 541 119 l 565 202 l 654 202 l 652 195 b 363 -13 628 75 515 -13 m 355 638 b 134 402 235 638 145 552 l 572 402 b 355 638 562 556 475 638 "},"ê":{"ha":705,"x_min":0,"x_max":0,"o":"m 318 985 l 404 985 l 555 787 l 475 787 l 361 934 l 247 787 l 167 787 m 363 -13 b 42 351 165 -13 42 127 l 42 351 b 355 718 42 572 167 718 b 663 366 544 718 663 577 l 663 331 l 133 331 b 365 67 136 163 226 67 b 564 196 469 67 541 119 l 565 202 l 654 202 l 652 195 b 363 -13 628 75 515 -13 m 355 638 b 134 402 235 638 145 552 l 572 402 b 355 638 562 556 475 638 "},"ể":{"ha":705,"x_min":0,"x_max":0,"o":"m 469 1008 b 531 1090 511 1039 531 1066 b 452 1139 531 1119 498 1139 b 414 1135 435 1139 423 1137 l 414 1190 b 475 1200 428 1196 450 1200 b 601 1103 544 1200 601 1162 b 540 1006 601 1066 580 1034 l 469 1006 m 319 985 l 402 985 l 557 787 l 477 787 l 361 934 l 245 787 l 165 787 m 363 -13 b 42 351 165 -13 42 127 l 42 351 b 355 718 42 572 167 718 b 663 366 544 718 663 577 l 663 331 l 133 331 b 365 67 136 163 226 67 b 564 196 469 67 541 119 l 565 202 l 654 202 l 652 195 b 363 -13 628 75 515 -13 m 355 638 b 134 402 235 638 145 552 l 572 402 b 355 638 562 556 475 638 "},"ề":{"ha":705,"x_min":0,"x_max":0,"o":"m 348 1198 l 441 1198 l 547 1010 l 481 1010 m 300 985 l 382 985 l 538 787 l 457 787 l 341 934 l 225 787 l 145 787 m 363 -13 b 42 351 165 -13 42 127 l 42 351 b 355 718 42 572 167 718 b 663 366 544 718 663 577 l 663 331 l 133 331 b 365 67 136 163 226 67 b 564 196 469 67 541 119 l 565 202 l 654 202 l 652 195 b 363 -13 628 75 515 -13 m 355 638 b 134 402 235 638 145 552 l 572 402 b 355 638 562 556 475 638 "},"ễ":{"ha":705,"x_min":0,"x_max":0,"o":"m 462 1040 b 364 1081 425 1040 393 1055 l 340 1103 b 273 1140 317 1124 294 1140 b 229 1048 242 1140 229 1110 l 229 1040 l 165 1040 l 165 1049 b 261 1207 165 1154 199 1207 b 359 1165 298 1207 331 1191 l 383 1144 b 451 1106 407 1122 429 1106 b 494 1198 481 1106 494 1136 l 494 1206 l 559 1206 l 559 1197 b 462 1040 559 1093 523 1040 m 319 985 l 402 985 l 557 787 l 477 787 l 361 934 l 245 787 l 165 787 m 363 -13 b 42 351 165 -13 42 127 l 42 351 b 355 718 42 572 167 718 b 663 366 544 718 663 577 l 663 331 l 133 331 b 365 67 136 163 226 67 b 564 196 469 67 541 119 l 565 202 l 654 202 l 652 195 b 363 -13 628 75 515 -13 m 355 638 b 134 402 235 638 145 552 l 572 402 b 355 638 562 556 475 638 "},"ệ":{"ha":705,"x_min":0,"x_max":0,"o":"m 318 985 l 404 985 l 555 787 l 475 787 l 361 934 l 247 787 l 167 787 m 363 -13 b 42 351 165 -13 42 127 l 42 351 b 355 718 42 572 167 718 b 663 366 544 718 663 577 l 663 331 l 133 331 b 365 67 136 163 226 67 b 564 196 469 67 541 119 l 565 202 l 654 202 l 652 195 b 363 -13 628 75 515 -13 m 355 638 b 134 402 235 638 145 552 l 572 402 b 355 638 562 556 475 638 m 366 -246 b 307 -187 334 -246 307 -220 b 366 -127 307 -153 334 -127 b 426 -187 399 -127 426 -153 b 366 -246 426 -220 399 -246 "},"ế":{"ha":705,"x_min":0,"x_max":0,"o":"m 580 1198 l 673 1198 l 540 1010 l 474 1010 m 319 985 l 402 985 l 557 787 l 477 787 l 361 934 l 245 787 l 165 787 m 363 -13 b 42 351 165 -13 42 127 l 42 351 b 355 718 42 572 167 718 b 663 366 544 718 663 577 l 663 331 l 133 331 b 365 67 136 163 226 67 b 564 196 469 67 541 119 l 565 202 l 654 202 l 652 195 b 363 -13 628 75 515 -13 m 355 638 b 134 402 235 638 145 552 l 572 402 b 355 638 562 556 475 638 "},"ë":{"ha":705,"x_min":0,"x_max":0,"o":"m 241 831 b 185 886 210 831 185 856 b 241 941 185 918 210 941 b 295 886 271 941 295 918 b 241 831 295 856 271 831 m 481 831 b 427 886 452 831 427 856 b 481 941 427 918 452 941 b 537 886 513 941 537 918 b 481 831 537 856 513 831 m 363 -13 b 42 351 165 -13 42 127 l 42 351 b 355 718 42 572 167 718 b 663 366 544 718 663 577 l 663 331 l 133 331 b 365 67 136 163 226 67 b 564 196 469 67 541 119 l 565 202 l 654 202 l 652 195 b 363 -13 628 75 515 -13 m 355 638 b 134 402 235 638 145 552 l 572 402 b 355 638 562 556 475 638 "},"ẹ":{"ha":705,"x_min":0,"x_max":0,"o":"m 363 -13 b 42 351 165 -13 42 127 l 42 351 b 355 718 42 572 167 718 b 663 366 544 718 663 577 l 663 331 l 133 331 b 365 67 136 163 226 67 b 564 196 469 67 541 119 l 565 202 l 654 202 l 652 195 b 363 -13 628 75 515 -13 m 355 638 b 134 402 235 638 145 552 l 572 402 b 355 638 562 556 475 638 m 366 -246 b 307 -187 334 -246 307 -220 b 366 -127 307 -153 334 -127 b 426 -187 399 -127 426 -153 b 366 -246 426 -220 399 -246 "},"ȇ":{"ha":705,"x_min":0,"x_max":0,"o":"m 361 977 b 548 791 475 977 548 903 l 548 785 l 480 785 l 480 789 b 361 912 480 857 437 912 b 241 789 284 912 241 857 l 241 785 l 174 785 l 174 791 b 361 977 174 903 246 977 m 363 -13 b 42 351 165 -13 42 127 l 42 351 b 355 718 42 572 167 718 b 663 366 544 718 663 577 l 663 331 l 133 331 b 365 67 136 163 226 67 b 564 196 469 67 541 119 l 565 202 l 654 202 l 652 195 b 363 -13 628 75 515 -13 m 355 638 b 134 402 235 638 145 552 l 572 402 b 355 638 562 556 475 638 "},"ẻ":{"ha":705,"x_min":0,"x_max":0,"o":"m 317 786 b 385 876 362 820 385 848 b 299 930 385 909 349 930 b 257 927 280 930 266 928 l 257 983 b 323 992 271 987 296 992 b 455 890 396 992 455 951 b 387 784 455 848 431 814 l 317 784 m 363 -13 b 42 351 165 -13 42 127 l 42 351 b 355 718 42 572 167 718 b 663 366 544 718 663 577 l 663 331 l 133 331 b 365 67 136 163 226 67 b 564 196 469 67 541 119 l 565 202 l 654 202 l 652 195 b 363 -13 628 75 515 -13 m 355 638 b 134 402 235 638 145 552 l 572 402 b 355 638 562 556 475 638 "},"ě":{"ha":705,"x_min":0,"x_max":0,"o":"m 401 787 l 321 787 l 167 985 l 247 985 l 361 836 l 475 985 l 555 985 m 363 -13 b 42 351 165 -13 42 127 l 42 351 b 355 718 42 572 167 718 b 663 366 544 718 663 577 l 663 331 l 133 331 b 365 67 136 163 226 67 b 564 196 469 67 541 119 l 565 202 l 654 202 l 652 195 b 363 -13 628 75 515 -13 m 355 638 b 134 402 235 638 145 552 l 572 402 b 355 638 562 556 475 638 "},"ē":{"ha":705,"x_min":0,"x_max":0,"o":"m 182 920 l 540 920 l 540 852 l 182 852 m 363 -13 b 42 351 165 -13 42 127 l 42 351 b 355 718 42 572 167 718 b 663 366 544 718 663 577 l 663 331 l 133 331 b 365 67 136 163 226 67 b 564 196 469 67 541 119 l 565 202 l 654 202 l 652 195 b 363 -13 628 75 515 -13 m 355 638 b 134 402 235 638 145 552 l 572 402 b 355 638 562 556 475 638 "},"ḕ":{"ha":705,"x_min":0,"x_max":0,"o":"m 198 1148 l 292 1148 l 397 960 l 332 960 m 166 882 l 555 882 l 555 814 l 166 814 m 363 -13 b 42 351 165 -13 42 127 l 42 351 b 355 718 42 572 167 718 b 663 366 544 718 663 577 l 663 331 l 133 331 b 365 67 136 163 226 67 b 564 196 469 67 541 119 l 565 202 l 654 202 l 652 195 b 363 -13 628 75 515 -13 m 355 638 b 134 402 235 638 145 552 l 572 402 b 355 638 562 556 475 638 "},"ḗ":{"ha":705,"x_min":0,"x_max":0,"o":"m 430 1148 l 524 1148 l 391 960 l 325 960 m 166 882 l 555 882 l 555 814 l 166 814 m 363 -13 b 42 351 165 -13 42 127 l 42 351 b 355 718 42 572 167 718 b 663 366 544 718 663 577 l 663 331 l 133 331 b 365 67 136 163 226 67 b 564 196 469 67 541 119 l 565 202 l 654 202 l 652 195 b 363 -13 628 75 515 -13 m 355 638 b 134 402 235 638 145 552 l 572 402 b 355 638 562 556 475 638 "},"ẽ":{"ha":705,"x_min":0,"x_max":0,"o":"m 456 792 b 363 834 418 792 387 810 l 338 857 b 274 896 317 878 296 896 b 232 801 243 896 232 865 l 232 793 l 167 793 l 167 802 b 266 964 167 909 202 964 b 357 922 304 964 333 946 l 382 899 b 448 861 404 878 425 861 b 490 956 478 861 490 892 l 490 963 l 555 963 l 555 954 b 456 792 555 847 519 792 m 363 -13 b 42 351 165 -13 42 127 l 42 351 b 355 718 42 572 167 718 b 663 366 544 718 663 577 l 663 331 l 133 331 b 365 67 136 163 226 67 b 564 196 469 67 541 119 l 565 202 l 654 202 l 652 195 b 363 -13 628 75 515 -13 m 355 638 b 134 402 235 638 145 552 l 572 402 b 355 638 562 556 475 638 "}}}
